<svg width="20" height="20" viewBox="0 0 20 20" fill="none" xmlns="http://www.w3.org/2000/svg">
<path d="M5 10L4.29289 10.7071L3.58579 10L4.29289 9.29289L5 10ZM9.29289 15.7071L4.29289 10.7071L5.70711 9.29289L10.7071 14.2929L9.29289 15.7071ZM4.29289 9.29289L9.29289 4.29289L10.7071 5.70711L5.70711 10.7071L4.29289 9.29289Z" fill="white"/>
<path d="M10 10L9.29289 10.7071L8.58579 10L9.29289 9.29289L10 10ZM14.2929 15.7071L9.29289 10.7071L10.7071 9.29289L15.7071 14.2929L14.2929 15.7071ZM9.29289 9.29289L14.2929 4.29289L15.7071 5.70711L10.7071 10.7071L9.29289 9.29289Z" fill="white"/>
</svg>
