<svg width="105" height="84" viewBox="0 0 105 84" fill="none" xmlns="http://www.w3.org/2000/svg">
<path d="M105 32.7792C105 64.1298 84.121 84 63.8968 84C43.6726 84 0 64.6261 0 40.7273C0 16.8284 30.7758 0 51 0C92.1032 7.87463e-05 105 8.88036 105 32.7792Z" fill="#2CCAD6"/>
<g clip-path="url(#clip0_1763_3133)">
<path d="M58.2752 25.3523C57.8812 25.3072 57.526 25.5957 57.4816 25.9967C57.4373 26.3978 57.7207 26.7596 58.1146 26.8047C65.326 27.6316 70.764 33.8358 70.764 41.2363C70.764 49.2447 64.365 55.76 56.4996 55.76C48.6343 55.76 42.2353 49.2447 42.2353 41.2363C42.2353 33.8455 47.6655 27.6421 54.8663 26.8068C55.2601 26.7611 55.5431 26.399 55.4982 25.998C55.4533 25.5969 55.0981 25.3084 54.7038 25.3545C46.7773 26.2741 40.7998 33.1017 40.7998 41.2363C40.7998 50.0507 47.8427 57.2216 56.4996 57.2216C65.1566 57.2216 72.1995 50.0507 72.1995 41.2363C72.1995 33.0912 66.2133 26.2625 58.2752 25.3523V25.3523Z" fill="white"/>
<path d="M74.1441 47.7547C73.7968 46.6246 74.1254 45.3762 74.9811 44.5743C75.895 43.7179 76.4193 42.5013 76.4193 41.2366C76.4193 39.9719 75.895 38.7553 74.9812 37.8989C74.1254 37.0971 73.7968 35.8486 74.1441 34.7185C74.5151 33.5115 74.3716 32.191 73.7506 31.0958C73.1296 30.0005 72.0781 29.2138 70.8661 28.9374C69.7312 28.6786 68.8336 27.7647 68.5794 26.6093C68.308 25.3752 67.5353 24.3047 66.4596 23.6723C65.3839 23.0399 64.0871 22.8938 62.9016 23.2716C61.7917 23.6252 60.5656 23.2907 59.778 22.4194C58.9369 21.4889 57.742 20.9551 56.4999 20.9551C55.2578 20.9551 54.063 21.4889 53.2218 22.4193C52.4343 23.2907 51.2084 23.6252 50.0982 23.2716C48.9127 22.8939 47.6159 23.0399 46.5402 23.6723C45.4645 24.3046 44.6918 25.3752 44.4204 26.6093C44.1662 27.7647 43.2686 28.6786 42.1338 28.9374C40.9217 29.2138 39.8703 30.0005 39.2492 31.0958C38.6281 32.191 38.4848 33.5115 38.8557 34.7185C39.203 35.8486 38.8745 37.097 38.0188 37.8989C37.1048 38.7553 36.5806 39.9719 36.5806 41.2366C36.5806 42.5013 37.1048 43.7179 38.0187 44.5743C38.8745 45.3761 39.203 46.6246 38.8557 47.7547C38.4848 48.9617 38.6282 50.2821 39.2492 51.3774C39.8702 52.4726 40.9217 53.2594 42.1338 53.5357C43.2686 53.7945 44.1662 54.7085 44.4204 55.8639C44.6918 57.098 45.4645 58.1685 46.5402 58.8009C47.616 59.4332 48.9127 59.5794 50.0982 59.2016C51.2085 58.8481 52.4343 59.1825 53.2218 60.0537C54.063 60.9843 55.2578 61.5181 56.4999 61.5181C57.742 61.5181 58.9369 60.9843 59.778 60.0538C60.5656 59.1825 61.7918 58.848 62.9016 59.2016C64.0869 59.5792 65.3839 59.4332 66.4596 58.8009C67.5353 58.1686 68.308 57.098 68.5794 55.8639C68.8336 54.7085 69.7312 53.7945 70.8661 53.5357C72.0781 53.2594 73.1295 52.4726 73.7506 51.3774C74.3717 50.2821 74.5151 48.9617 74.1441 47.7547V47.7547ZM72.7742 48.1912C73.0293 49.0213 72.9346 49.8934 72.5074 50.6466C72.0803 51.3998 71.386 51.9194 70.5523 52.1095C68.8779 52.4914 67.5537 53.8397 67.1786 55.5445C66.9919 56.3932 66.4817 57.1002 65.7419 57.5352C65.002 57.97 64.1456 58.0664 63.3304 57.8067C61.6926 57.2848 59.8838 57.7785 58.7218 59.064C58.1433 59.704 57.3542 60.0566 56.5 60.0566C55.6458 60.0566 54.8567 59.7041 54.2782 59.064C53.4237 58.1187 52.2194 57.6017 50.9906 57.6017C50.5484 57.6017 50.103 57.6687 49.6697 57.8067C48.8545 58.0663 47.9979 57.9699 47.2582 57.5352C46.5184 57.1003 46.0081 56.3933 45.8214 55.5445C45.4463 53.8397 44.1221 52.4914 42.4477 52.1095C41.6141 51.9194 40.9198 51.3999 40.4926 50.6466C40.0655 49.8934 39.9707 49.0213 40.2259 48.1912C40.7383 46.5239 40.2536 44.682 38.991 43.4989C38.3624 42.9099 38.0162 42.1065 38.0162 41.2367C38.0162 40.3669 38.3623 39.5635 38.991 38.9745C40.2535 37.7913 40.7383 35.9495 40.2259 34.2821C39.9707 33.452 40.0655 32.58 40.4926 31.8268C40.9197 31.0736 41.614 30.554 42.4477 30.3639C44.1221 29.982 45.4463 28.6337 45.8214 26.9289C46.0081 26.0801 46.5183 25.3732 47.2582 24.9382C47.998 24.5032 48.8546 24.4069 49.6697 24.6667C51.3071 25.1884 53.1162 24.6948 54.2782 23.4094C54.8567 22.7694 55.6458 22.4168 56.5 22.4168C57.3542 22.4168 58.1433 22.7693 58.7218 23.4094C59.8839 24.6948 61.6928 25.1884 63.3304 24.6667C64.1455 24.4069 65.002 24.5032 65.7419 24.9382C66.4817 25.3731 66.9919 26.08 67.1786 26.9289C67.5537 28.6337 68.8779 29.982 70.5523 30.3639C71.3859 30.554 72.0802 31.0735 72.5074 31.8268C72.9346 32.58 73.0293 33.452 72.7742 34.2821C72.2618 35.9495 72.7464 37.7913 74.009 38.9745C74.6376 39.5635 74.9838 40.3669 74.9838 41.2367C74.9838 42.1065 74.6377 42.9099 74.009 43.4989C72.7464 44.682 72.2617 46.5239 72.7742 48.1912V48.1912Z" fill="white"/>
<path d="M74.0791 23.8654C74.2627 23.8654 74.4465 23.7941 74.5866 23.6514L80.5902 17.5386C80.8705 17.2531 80.8705 16.7904 80.5902 16.5051C80.3099 16.2197 79.8554 16.2197 79.5752 16.5051L73.5716 22.6179C73.2912 22.9033 73.2912 23.366 73.5716 23.6514C73.7117 23.794 73.8953 23.8654 74.0791 23.8654Z" fill="white"/>
<path d="M80.775 26.523C80.6707 26.1336 80.2763 25.904 79.8936 26.0104L76.8918 26.8442C76.5094 26.9504 76.2839 27.3521 76.3883 27.7415C76.4754 28.0665 76.7647 28.2802 77.0803 28.2802C77.1428 28.2802 77.2065 28.2718 77.2697 28.2542L80.2716 27.4204C80.6539 27.3142 80.8794 26.9124 80.775 26.523V26.523Z" fill="white"/>
<path d="M69.4904 20.7835C69.5536 20.8011 69.6172 20.8095 69.6798 20.8095C69.9954 20.8095 70.2847 20.5958 70.3718 20.2708L71.1907 17.2144C71.295 16.825 71.0697 16.4232 70.6872 16.3171C70.3048 16.2106 69.9102 16.4403 69.8059 16.8297L68.987 19.8861C68.8825 20.2755 69.1079 20.6773 69.4904 20.7835V20.7835Z" fill="white"/>
<path d="M38.4136 23.6514C38.5537 23.794 38.7375 23.8654 38.9211 23.8654C39.1048 23.8654 39.2885 23.7941 39.4286 23.6514C39.7089 23.3659 39.7089 22.9032 39.4286 22.6179L33.425 16.5051C33.1447 16.2197 32.6902 16.2197 32.4099 16.5051C32.1296 16.7905 32.1296 17.2532 32.4099 17.5386L38.4136 23.6514Z" fill="white"/>
<path d="M36.1079 26.8442L33.106 26.0104C32.7236 25.904 32.3289 26.1337 32.2247 26.523C32.1204 26.9124 32.3458 27.3143 32.7282 27.4204L35.73 28.2542C35.7933 28.2719 35.8568 28.2802 35.9194 28.2802C36.235 28.2802 36.5244 28.0665 36.6114 27.7416C36.7157 27.3522 36.4903 26.9504 36.1079 26.8442V26.8442Z" fill="white"/>
<path d="M42.628 20.2708C42.7151 20.5958 43.0044 20.8094 43.3201 20.8094C43.3826 20.8094 43.4462 20.8011 43.5095 20.7834C43.8919 20.6772 44.1174 20.2755 44.013 19.8861L43.194 16.8297C43.0897 16.4404 42.6955 16.2106 42.3127 16.317C41.9303 16.4232 41.7048 16.825 41.8092 17.2144L42.628 20.2708Z" fill="white"/>
<path d="M74.5866 58.8215C74.3063 58.5361 73.8518 58.5361 73.5716 58.8215C73.2912 59.1069 73.2912 59.5697 73.5716 59.855L79.5752 65.9678C79.7153 66.1104 79.8991 66.1819 80.0827 66.1819C80.2664 66.1819 80.4501 66.1105 80.5902 65.9678C80.8705 65.6824 80.8705 65.2196 80.5902 64.9343L74.5866 58.8215Z" fill="white"/>
<path d="M80.2714 55.0532L77.2696 54.2193C76.887 54.113 76.4926 54.3426 76.3883 54.732C76.284 55.1214 76.5093 55.5232 76.8918 55.6293L79.8936 56.4632C79.9569 56.4808 80.0204 56.4892 80.083 56.4892C80.3986 56.4892 80.6879 56.2755 80.775 55.9505C80.8793 55.5611 80.6539 55.1594 80.2714 55.0532Z" fill="white"/>
<path d="M70.3718 62.2017C70.2674 61.8125 69.8729 61.5827 69.4904 61.6891C69.108 61.7953 68.8825 62.1971 68.9869 62.5864L69.8059 65.6429C69.893 65.9678 70.1823 66.1815 70.4979 66.1815C70.5604 66.1815 70.6239 66.1731 70.6873 66.1555C71.0697 66.0493 71.2952 65.6475 71.1908 65.2581L70.3718 62.2017Z" fill="white"/>
<path d="M38.4136 58.8215L32.4099 64.9343C32.1296 65.2197 32.1296 65.6825 32.4099 65.9678C32.5501 66.1104 32.7338 66.1819 32.9175 66.1819C33.1011 66.1819 33.2849 66.1105 33.425 65.9678L39.4286 59.855C39.7089 59.5696 39.7089 59.1068 39.4286 58.8215C39.1483 58.5361 38.6938 58.5361 38.4136 58.8215V58.8215Z" fill="white"/>
<path d="M35.7301 54.2184L32.7282 55.0522C32.3458 55.1585 32.1203 55.5602 32.2247 55.9496C32.3118 56.2746 32.6011 56.4883 32.9168 56.4883C32.9793 56.4883 33.0429 56.4799 33.1062 56.4622L36.108 55.6284C36.4904 55.5222 36.7159 55.1205 36.6115 54.7311C36.5073 54.3417 36.1127 54.1119 35.7301 54.2184Z" fill="white"/>
<path d="M43.5089 61.6891C43.1265 61.5828 42.7319 61.8123 42.6276 62.2017L41.8087 65.2581C41.7044 65.6475 41.9298 66.0494 42.3122 66.1555C42.3754 66.1731 42.439 66.1815 42.5016 66.1815C42.8172 66.1815 43.1065 65.9678 43.1936 65.6428L44.0125 62.5864C44.1169 62.1971 43.8914 61.7953 43.5089 61.6891V61.6891Z" fill="white"/>
<path d="M59.5898 43.6014C59.3095 43.8868 59.3095 44.3496 59.5898 44.6349C59.8702 44.9203 60.3246 44.9203 60.6049 44.6349L66.4945 38.6382C66.9145 38.2105 67.1458 37.6421 67.1458 37.0372C67.1458 36.4324 66.9145 35.8639 66.4945 35.4363L64.6435 33.5516C63.7764 32.669 62.3658 32.669 61.4988 33.5516L54.2011 40.982L51.648 38.3823C51.228 37.9546 50.6696 37.7191 50.0756 37.7191C49.4816 37.7191 48.9233 37.9546 48.5032 38.3823L46.5049 40.417C46.0848 40.8447 45.8535 41.4132 45.8535 42.018C45.8535 42.6228 46.0848 43.1913 46.5049 43.6189L51.6248 48.832C52.2945 49.5138 53.1741 49.8548 54.0537 49.8548C54.9333 49.8548 55.8129 49.5138 56.4825 48.832L58.2474 47.035C58.5277 46.7496 58.5277 46.2868 58.2474 46.0015C57.9671 45.7161 57.5126 45.7161 57.2324 46.0015L55.4675 47.7986C54.6879 48.5922 53.4193 48.5922 52.6399 47.7986L47.5199 42.5854C47.371 42.4339 47.289 42.2324 47.289 42.0181C47.289 41.8037 47.3711 41.6022 47.5199 41.4507L49.5182 39.416C49.6672 39.2645 49.8651 39.181 50.0755 39.181C50.286 39.181 50.4839 39.2644 50.6328 39.416L53.6935 42.5324C53.9738 42.8178 54.4283 42.8178 54.7086 42.5324L62.5138 34.5853C62.821 34.2725 63.3211 34.2724 63.6284 34.5853L65.4794 36.47C65.6283 36.6215 65.7102 36.823 65.7102 37.0373C65.7102 37.2516 65.6282 37.4532 65.4794 37.6047L59.5898 43.6014Z" fill="white"/>
</g>
<defs>
<clipPath id="clip0_1763_3133">
<rect width="49" height="49.8909" fill="white" transform="translate(32 16.291)"/>
</clipPath>
</defs>
</svg>
