<svg width="105" height="84" viewBox="0 0 105 84" fill="none" xmlns="http://www.w3.org/2000/svg">
<path d="M105 32.7792C105 64.1298 84.121 84 63.8968 84C43.6726 84 0 64.6261 0 40.7273C0 16.8284 30.7758 0 51 0C92.1032 7.87463e-05 105 8.88036 105 32.7792Z" fill="#2CCAD6"/>
<path d="M42.0298 26.4034C42.3906 26.4034 42.6831 26.1806 42.6831 25.9058C42.6831 25.631 42.3906 25.4082 42.0298 25.4082C41.669 25.4082 41.3765 25.631 41.3765 25.9058C41.3765 26.1806 41.669 26.4034 42.0298 26.4034Z" fill="white"/>
<path d="M62.349 26.9861C62.5435 27.031 62.7402 27.0522 62.9334 27.0522C63.7992 27.0522 64.6025 26.6239 64.8666 25.9606V25.9603C65.1889 25.1492 64.5845 24.2891 63.5198 24.0433C62.4524 23.796 61.3256 24.2574 61.0028 25.0689C60.8465 25.4617 60.9001 25.8777 61.1547 26.2397C61.4087 26.602 61.8329 26.8668 62.349 26.9861V26.9861ZM62.2533 25.3575C62.3464 25.1235 62.6298 24.9723 62.9354 24.9723C63.003 24.9723 63.0726 24.9799 63.1408 24.9957C63.5167 25.0824 63.7297 25.386 63.6161 25.6722C63.5026 25.9587 63.1057 26.1205 62.7279 26.0337C62.5461 25.9917 62.3962 25.8981 62.3069 25.7706C62.217 25.6427 62.1979 25.4963 62.2533 25.3575V25.3575Z" fill="white"/>
<path d="M68.8166 29.9192C68.8625 29.6364 69.015 28.2987 67.8915 27.8289C66.951 27.4351 65.6564 27.8111 63.8183 29.0112C62.2896 30.0089 60.891 30.469 59.7854 30.3393C59.0396 30.2528 58.5828 29.924 58.385 29.7462C58.4271 29.2823 58.406 28.2335 57.4381 27.8289C56.4983 27.4351 55.2031 27.8111 53.3649 29.0112C51.8363 30.0089 50.4383 30.469 49.332 30.3393C48.5863 30.2528 48.1294 29.924 47.9316 29.7462C47.9738 29.2823 47.9527 28.2335 46.9848 27.8289C46.0443 27.4351 44.7491 27.8111 42.9116 29.0112C41.3829 30.0089 39.9856 30.469 38.8787 30.3393C37.8598 30.2212 37.38 29.651 37.3635 29.6306C37.2129 29.4389 36.9099 29.3485 36.6291 29.407C36.3459 29.4668 36.1499 29.6629 36.1499 29.8866V51.7808C36.1499 51.8709 36.1818 51.9594 36.243 52.0369C36.2742 52.0764 37.029 53.0134 38.6465 53.2131C40.17 53.4019 41.8953 52.8797 43.7614 51.661C45.3456 50.6267 46.1387 50.5034 46.3556 50.5954C46.6184 50.7045 46.681 51.3191 46.6096 51.7103C46.5885 51.8235 46.6192 51.9387 46.6963 52.0369C46.7275 52.0764 47.4823 53.0134 49.0998 53.2131C50.6253 53.4019 52.3487 52.8797 54.2147 51.661C55.7989 50.6267 56.5921 50.5034 56.809 50.5954C57.0718 50.7045 57.1343 51.3191 57.0629 51.7103C57.0419 51.8235 57.0726 51.9387 57.1497 52.0369C57.1809 52.0764 57.9356 53.0134 59.5531 53.2131C59.756 53.2383 59.9628 53.2508 60.1726 53.2508C61.5406 53.2508 63.0501 52.7177 64.6681 51.6611C66.2522 50.6268 67.0447 50.5035 67.2623 50.5955C67.3886 50.648 67.4691 50.8173 67.5099 51.0227V51.781C67.5099 52.0422 67.7747 52.2589 68.1167 52.2773C68.4688 52.2931 68.7617 52.1094 68.8102 51.8514C68.8249 51.7715 68.8166 29.9192 68.8166 29.9192V29.9192ZM67.5099 39.6586C66.6083 39.4889 65.4199 39.9081 63.8183 40.9535C62.2896 41.9513 60.891 42.412 59.7854 42.2815C59.0381 42.195 58.5834 41.8664 58.3848 41.6872C58.3998 41.5207 58.4052 41.2788 58.3632 41.0188V36.9654C58.6917 37.1084 59.0814 37.232 59.5531 37.2902C59.756 37.3154 59.9628 37.3279 60.1726 37.3279C61.5406 37.3279 63.0501 36.7948 64.6681 35.7382C66.2522 34.7042 67.0447 34.5809 67.2623 34.6726C67.3895 34.7255 67.4691 34.8976 67.5099 35.1047V39.6586ZM57.0566 39.6586C56.1553 39.4889 54.9666 39.9081 53.3649 40.9535C51.8363 41.9513 50.4383 42.412 49.332 42.2815C48.5848 42.195 48.1301 41.8664 47.9315 41.6872C47.9465 41.5207 47.9519 41.2788 47.9099 41.0188V36.9654C48.2384 37.1084 48.6281 37.232 49.0998 37.2902C49.3026 37.3154 49.5094 37.3279 49.7193 37.3279C51.0872 37.3279 52.5968 36.7948 54.2147 35.7382C55.7989 34.7042 56.5921 34.5809 56.809 34.6726C56.9362 34.7255 57.0157 34.8976 57.0566 35.1047V39.6586ZM46.6032 39.6586C45.7015 39.4889 44.5127 39.9081 42.9116 40.9535C41.3829 41.9513 39.9856 42.412 38.8787 42.2815C38.1042 42.1917 37.6428 41.8419 37.4566 41.668V36.9653C37.785 37.1083 38.1747 37.2318 38.6465 37.2901C38.8493 37.3153 39.0561 37.3277 39.266 37.3277C40.6339 37.3277 42.1434 36.7947 43.7614 35.7381C45.3456 34.7041 46.1387 34.5808 46.3556 34.6725C46.4829 34.7253 46.5624 34.8975 46.6032 35.1046V39.6586ZM37.4566 42.9364C37.785 43.0794 38.1747 43.203 38.6465 43.2612C38.8493 43.2864 39.0561 43.2989 39.266 43.2989C40.6339 43.2989 42.1434 42.7658 43.7614 41.7092C45.3456 40.6749 46.1387 40.5524 46.3556 40.6436C46.4829 40.6965 46.5624 40.8686 46.6032 41.0758V48.1178C45.7015 47.9483 44.5127 48.3671 42.9116 49.4126C41.3829 50.4104 39.9856 50.8697 38.8787 50.7407C38.1016 50.6506 37.6402 50.299 37.4566 50.1275V42.9364ZM47.8883 49.374C47.8946 49.3465 47.9099 49.3216 47.9099 49.2928V42.9364C48.2384 43.0794 48.6281 43.203 49.0998 43.2612C49.3026 43.2864 49.5094 43.2989 49.7193 43.2989C51.0872 43.2989 52.5968 42.7658 54.2147 41.7092C55.7989 40.6749 56.5921 40.5524 56.809 40.6436C56.9362 40.6965 57.0157 40.8686 57.0566 41.0758V48.118C56.1553 47.9485 54.9666 48.3674 53.3649 49.4127C51.8363 50.4105 50.4383 50.8698 49.332 50.7408C48.5863 50.6543 48.1294 50.3255 47.9316 50.1476C47.9486 49.9591 47.9516 49.6733 47.8883 49.374V49.374ZM58.3417 49.374C58.3479 49.3465 58.3632 49.3216 58.3632 49.2928V42.9364C58.6917 43.0794 59.0814 43.203 59.5531 43.2612C59.756 43.2864 59.9628 43.2989 60.1726 43.2989C61.5406 43.2989 63.0501 42.7658 64.6681 41.7092C66.2522 40.6749 67.0447 40.5524 67.2623 40.6436C67.3895 40.6965 67.4691 40.8686 67.5099 41.0758V48.1178C66.6083 47.9484 65.4199 48.3671 63.8183 49.4126C62.2896 50.4104 60.891 50.8697 59.7854 50.7407C59.0396 50.6542 58.5828 50.3254 58.385 50.1475C58.402 49.9591 58.4049 49.6733 58.3417 49.374V49.374ZM59.5531 31.3189C61.078 31.5081 62.802 30.9855 64.6681 29.7668C66.2522 28.7326 67.0447 28.6103 67.2623 28.7012C67.5251 28.8103 67.5877 29.425 67.5163 29.8174C67.5119 29.8403 67.5099 29.8636 67.5099 29.8867V33.6877C66.6083 33.5183 65.4199 33.937 63.8183 34.9825C62.2896 35.9803 60.891 36.4395 59.7854 36.3105C59.0381 36.224 58.5834 35.8954 58.3848 35.7162C58.3998 35.5497 58.4052 35.3078 58.3632 35.0478V30.9941C58.6917 31.1373 59.0814 31.2607 59.5531 31.3189V31.3189ZM49.0998 31.3189C50.6253 31.5081 52.3487 30.9855 54.2147 29.7668C55.7989 28.7326 56.5921 28.6103 56.809 28.7012C57.0718 28.8103 57.1343 29.425 57.0629 29.8162C57.0603 29.8297 57.0656 29.8431 57.0646 29.8566C57.0636 29.8671 57.0566 29.876 57.0566 29.8866V33.6876C56.1553 33.5182 54.9666 33.937 53.3649 34.9823C51.8363 35.9801 50.4383 36.4394 49.332 36.3104C48.5848 36.2238 48.1301 35.8953 47.9315 35.716C47.9465 35.5496 47.9519 35.3076 47.9099 35.0476V30.9941C48.2384 31.1373 48.6281 31.2607 49.0998 31.3189V31.3189ZM38.6465 31.3189C40.17 31.5081 41.8953 30.9855 43.7614 29.7668C45.3456 28.7326 46.1387 28.6103 46.3556 28.7012C46.6184 28.8103 46.681 29.425 46.6096 29.8162C46.607 29.8297 46.6122 29.8431 46.6112 29.8566C46.6103 29.8671 46.6032 29.876 46.6032 29.8866V33.6876C45.7015 33.518 44.5127 33.9369 42.9116 34.9823C41.3829 35.9801 39.9856 36.4394 38.8787 36.3104C38.1042 36.2206 37.6428 35.8708 37.4566 35.6969V31.0005C37.7832 31.1418 38.1788 31.2611 38.6465 31.3189ZM42.9116 50.9054C41.3829 51.9032 39.9856 52.3639 38.8787 52.2334C38.1042 52.1437 37.6416 51.7927 37.4566 51.6204V51.3955C37.785 51.5385 38.1747 51.6621 38.6465 51.7203C40.17 51.9098 41.8953 51.3872 43.7614 50.1682C45.3456 49.1342 46.1387 49.0106 46.3556 49.1026C46.4984 49.1618 46.5804 49.3713 46.6155 49.612C45.7124 49.4367 44.5198 49.8552 42.9116 50.9054V50.9054ZM53.3649 50.9054C51.8363 51.9032 50.4383 52.3639 49.332 52.2334C48.5863 52.147 48.1294 51.8182 47.9316 51.6403C47.9375 51.5747 47.9411 51.4955 47.9419 51.4102C48.2638 51.547 48.6439 51.6641 49.0998 51.7203C50.6253 51.9098 52.3487 51.3872 54.2147 50.1682C55.7989 49.1342 56.5921 49.0106 56.809 49.1026C56.9517 49.1618 57.0337 49.3713 57.0688 49.6119C56.1662 49.4367 54.9736 49.8553 53.3649 50.9054V50.9054ZM63.8183 50.9054C62.2896 51.9032 60.891 52.3639 59.7854 52.2334C59.0396 52.147 58.5828 51.8182 58.385 51.6403C58.3908 51.5747 58.3944 51.4955 58.3953 51.4102C58.7172 51.547 59.0973 51.6641 59.5531 51.7203C59.756 51.7455 59.9628 51.758 60.1726 51.758C61.5406 51.758 63.0501 51.2249 64.6681 50.1683C66.2522 49.1343 67.0447 49.0108 67.2623 49.1027C67.3895 49.1556 67.4691 49.3277 67.5099 49.535V49.6096C66.6083 49.4393 65.4191 49.8604 63.8183 50.9054V50.9054Z" fill="white"/>
<path d="M66.2031 31.8766C66.5643 31.8766 66.8565 31.6538 66.8565 31.379V29.8863C66.8565 29.6115 66.5643 29.3887 66.2031 29.3887C65.842 29.3887 65.5498 29.6115 65.5498 29.8863V31.379C65.5498 31.6538 65.842 31.8766 66.2031 31.8766Z" fill="white"/>
<path d="M45.2964 43.819C45.6575 43.819 45.9497 43.5962 45.9497 43.3214V41.8286C45.9497 41.5539 45.6575 41.3311 45.2964 41.3311C44.9353 41.3311 44.6431 41.5539 44.6431 41.8286V43.3214C44.6431 43.5962 44.9353 43.819 45.2964 43.819Z" fill="white"/>
</svg>
