<svg width="105" height="84" viewBox="0 0 105 84" fill="none" xmlns="http://www.w3.org/2000/svg">
<path d="M105 32.7792C105 64.1298 84.121 84 63.8968 84C43.6726 84 0 64.6261 0 40.7273C0 16.8284 30.7758 0 51 0C92.1032 7.87463e-05 105 8.88036 105 32.7792Z" fill="#2CCAD6"/>
<g clip-path="url(#clip0_1763_3135)">
<path d="M41.5269 28.5693C40.9986 28.5693 40.5698 29.0059 40.5698 29.5438C40.5698 30.0817 40.9986 30.5182 41.5269 30.5182C42.0551 30.5182 42.4839 30.0817 42.4839 29.5438C42.4839 29.0059 42.0551 28.5693 41.5269 28.5693Z" fill="white"/>
<path d="M76.069 36.9028L74.6843 34.0829C74.1946 33.0858 73.2107 32.4666 72.1163 32.4666H64.1119V25.6459C64.1119 24.034 62.8241 22.7227 61.2409 22.7227H33.871C32.2879 22.7227 31 24.0339 31 25.6459V50.98C31 52.5918 32.2879 53.9032 33.871 53.9032H36.742C36.742 55.3993 37.2976 56.7656 38.2087 57.8007H31.957C31.4285 57.8007 31 58.2371 31 58.7752C31 59.3132 31.4285 59.7496 31.957 59.7496H79.0411C79.5696 59.7496 79.9981 59.3132 79.9981 58.7752C79.9981 58.2371 79.5696 57.8007 79.0411 57.8007H76.6173C77.5286 56.7655 78.084 55.3993 78.084 53.9032C78.084 53.8477 78.0814 53.7924 78.0799 53.737C79.1959 53.3359 79.998 52.2518 79.998 50.98V45.5935C79.998 44.4565 80.2192 45.518 76.069 36.9028ZM74.6216 38.3129L77.4926 44.1593H67.9399V38.3129H74.6216V38.3129ZM32.914 46.108H34.8279V48.0568H32.914V46.108ZM42.4839 57.8007C40.3732 57.8007 38.656 56.0522 38.656 53.9032C38.656 53.6378 38.6818 53.3765 38.7335 53.1225C39.0934 51.3165 40.6707 50.0056 42.4839 50.0056C44.2971 50.0056 45.8745 51.3164 46.2343 53.1225C46.2346 53.1239 46.2349 53.1252 46.2352 53.1266C46.2861 53.3764 46.3118 53.6378 46.3118 53.9032C46.3118 56.0523 44.5946 57.8007 42.4839 57.8007ZM42.4839 48.0568C40.0319 48.0568 37.8679 49.6561 37.0702 51.9543H33.871C33.3433 51.9543 32.914 51.5172 32.914 50.9799V50.0055H35.785C36.3135 50.0055 36.742 49.5691 36.742 49.031V45.1335C36.742 44.5954 36.3135 44.1591 35.785 44.1591H32.914V25.6459C32.914 25.1086 33.3433 24.6714 33.871 24.6714H61.2409C61.7687 24.6714 62.198 25.1086 62.198 25.6459C62.198 26.3707 62.198 49.6176 62.198 51.9544H47.8972C47.0979 49.655 44.9349 48.0568 42.4839 48.0568ZM46.7591 57.8007C47.6703 56.7655 48.2258 55.3993 48.2258 53.9032C48.9606 53.9032 66.2872 53.9032 66.6 53.9032C66.6 55.3993 67.1556 56.7656 68.0668 57.8007H46.7591ZM72.342 57.8007C70.2313 57.8007 68.5141 56.0522 68.5141 53.9032C68.5141 53.6378 68.5399 53.3765 68.5916 53.1225C68.9516 51.3165 70.5288 50.0056 72.342 50.0056C74.1552 50.0056 75.7326 51.3164 76.0924 53.1225C76.0927 53.1239 76.093 53.1252 76.0933 53.1266C76.1442 53.3764 76.17 53.6378 76.17 53.9032C76.1701 56.0523 74.4528 57.8007 72.342 57.8007ZM78.084 50.98C78.084 51.3041 77.9272 51.5909 77.6874 51.7682C76.8384 49.569 74.7263 48.0569 72.342 48.0569C69.89 48.0569 67.7261 49.6562 66.9283 51.9544H64.1118V34.4153H72.1162C72.481 34.4153 72.809 34.6219 72.9722 34.9543L73.6645 36.3641H66.9829C66.4544 36.3641 66.0259 36.8005 66.0259 37.3385V45.1337C66.0259 45.6718 66.4544 46.1081 66.9829 46.1081H78.084V50.98Z" fill="white"/>
<path d="M57.4131 28.5693H45.355C44.8264 28.5693 44.3979 29.0057 44.3979 29.5438C44.3979 30.0818 44.8264 30.5182 45.355 30.5182H57.4131C57.9417 30.5182 58.3701 30.0818 58.3701 29.5438C58.3701 29.0057 57.9416 28.5693 57.4131 28.5693Z" fill="white"/>
<path d="M57.4128 32.4668H49.1826C48.654 32.4668 48.2256 32.9031 48.2256 33.4412C48.2256 33.9793 48.654 34.4157 49.1826 34.4157H57.4128C57.9414 34.4157 58.3698 33.9793 58.3698 33.4412C58.3698 32.9031 57.9413 32.4668 57.4128 32.4668Z" fill="white"/>
<path d="M72.3422 51.9551C71.2868 51.9551 70.4282 52.8293 70.4282 53.9038C70.4282 54.9784 71.2869 55.8526 72.3422 55.8526C73.3976 55.8526 74.2562 54.9784 74.2562 53.9038C74.2562 52.8292 73.3976 51.9551 72.3422 51.9551Z" fill="white"/>
<path d="M42.4838 51.9551C41.4284 51.9551 40.5698 52.8293 40.5698 53.9038C40.5698 54.9784 41.4285 55.8526 42.4838 55.8526C43.5392 55.8526 44.3978 54.9784 44.3978 53.9038C44.3978 52.8292 43.5392 51.9551 42.4838 51.9551Z" fill="white"/>
</g>
<defs>
<clipPath id="clip0_1763_3135">
<rect width="49" height="49.8909" fill="white" transform="translate(31 16.291)"/>
</clipPath>
</defs>
</svg>
