<svg width="105" height="84" viewBox="0 0 105 84" fill="none" xmlns="http://www.w3.org/2000/svg">
<path d="M105 32.7792C105 64.1298 84.121 84 63.8968 84C43.6726 84 0 64.6261 0 40.7273C0 16.8284 30.7758 0 51 0C92.1032 7.87463e-05 105 8.88036 105 32.7792Z" fill="#2CCAD6"/>
<g clip-path="url(#clip0_1763_3134)">
<path d="M54.0862 51.1753C53.7176 50.8999 53.199 50.9803 52.9282 51.3558L52.8259 51.4975C52.5553 51.8727 52.6341 52.4 53.0022 52.676C53.15 52.787 53.3223 52.8406 53.4929 52.8406C53.7468 52.8406 53.9975 52.7221 54.1598 52.4982L54.2636 52.3545C54.5344 51.979 54.4549 51.4511 54.0862 51.1753Z" fill="white"/>
<path d="M54.3022 59.1996L52.1716 55.2548L54.1609 52.4962C54.4318 52.1208 54.3523 51.5928 53.9835 51.3171C53.6147 51.0412 53.0962 51.1222 52.8254 51.4978L50.523 54.6906C50.3321 54.9552 50.3095 55.3085 50.4648 55.5963L52.8505 60.0125V60.0124C53.0014 60.2916 53.2848 60.4496 53.5772 60.4496C53.7122 60.4495 53.8491 60.4159 53.9757 60.345C54.3765 60.1206 54.5227 59.6078 54.3022 59.1996Z" fill="white"/>
<path d="M60.477 54.691L58.184 51.5112C57.9938 51.2477 57.6716 51.1195 57.3563 51.1831C57.0412 51.2461 56.7903 51.4891 56.7124 51.8063C56.6526 52.0499 56.7025 52.3078 56.8484 52.5101L58.828 55.2553L56.7119 59.1733C56.6447 59.2977 56.6094 59.438 56.6094 59.5802C56.6094 59.9652 56.8655 60.3014 57.2317 60.3972C57.3004 60.4152 57.3695 60.4239 57.4379 60.4239C57.7345 60.4239 58.0155 60.2609 58.1638 59.9868L60.5351 55.597C60.6906 55.309 60.6679 54.9557 60.477 54.691Z" fill="white"/>
<path d="M61.7899 41.4347C61.5175 41.289 61.188 41.3089 60.9345 41.4868C60.4418 41.8324 59.9845 42.1986 59.5754 42.5751C57.3459 44.6272 55.2277 44.3495 55.1448 44.3374C55.0948 44.3294 55.044 44.3257 54.9937 44.3274C54.1126 44.3504 52.5239 43.5306 50.8433 42.1867C50.5862 41.9811 50.3227 41.7853 50.0595 41.6044C49.8057 41.4298 49.4777 41.4122 49.2072 41.5586C48.9367 41.705 48.7676 41.9915 48.7676 42.3035V45.1972C48.7676 45.4531 48.8819 45.6949 49.0779 45.8551C49.1011 45.8741 49.1252 45.8917 49.1501 45.9078L55.0245 49.9046C55.0254 49.9052 55.0263 49.906 55.0272 49.9066L55.0427 49.9172C55.181 50.0103 55.3404 50.0574 55.5003 50.0574C55.6349 50.0574 55.7694 50.0242 55.8924 49.9572C55.9183 49.9431 55.9432 49.9276 55.9671 49.911C55.9699 49.9092 55.9727 49.9073 55.9756 49.9054C55.9788 49.9032 55.9821 49.901 55.9853 49.8988L61.8458 45.9114C61.8694 45.8962 61.8923 45.8799 61.9144 45.8623C62.1155 45.7025 62.233 45.4573 62.233 45.1975V42.1815C62.233 41.8679 62.0625 41.5806 61.7899 41.4347ZM60.576 44.746L55.5002 48.1994L50.4245 44.7459V43.9787C51.6604 44.8933 53.4785 46.0149 54.9604 46.0148C54.9635 46.0148 54.967 46.0148 54.9701 46.0148C55.4677 46.0709 58.0051 46.2232 60.5762 43.9266V44.746H60.576Z" fill="white"/>
<path d="M56.3175 49.0759C56.2628 48.7414 56.0166 48.4727 55.6925 48.394C55.3683 48.3157 55.0297 48.4419 54.8326 48.7153L52.9283 51.3562C52.6575 51.7317 52.7369 52.2597 53.1059 52.5353C53.2535 52.6458 53.4252 52.699 53.5955 52.699C53.8503 52.699 54.1016 52.5797 54.2641 52.3545L56.1583 49.7276C56.2661 49.5841 56.3289 49.4056 56.3289 49.2148C56.3288 49.1685 56.325 49.1217 56.3175 49.0759Z" fill="white"/>
<path d="M68.1215 21.8822C68.105 21.7501 67.7169 18.8983 65.0805 17.7733C65.157 17.2724 65.149 16.6287 64.8367 16.0025C64.417 15.1607 63.5887 14.6122 62.3747 14.3719C62.3226 14.3616 62.2698 14.3564 62.2167 14.3564H51.0972C46.5821 14.3564 42.9087 18.0965 42.9087 22.6939V27.1365C42.9087 28.2939 43.2962 29.4226 43.9996 30.3144C44.3484 30.7566 44.7779 31.5289 44.8427 32.6964C44.8679 33.1523 45.2427 33.5045 45.6932 33.4919C46.1415 33.479 46.4982 33.1052 46.4982 32.6487V26.8566C47.0608 24.4879 48.9807 24.0269 49.3108 23.9646H52.9075C53.3306 23.9646 53.7466 23.8988 54.1443 23.769C54.8282 23.5457 55.9132 23.1347 56.7031 22.8292C57.2316 22.6246 57.8167 22.6171 58.3504 22.8081L62.201 24.1844C64.1259 24.9075 64.4695 26.6281 64.5121 26.8984V33.8498C64.5121 34.2913 64.8464 34.6576 65.2788 34.6904C65.2998 34.692 65.3205 34.6929 65.3412 34.6929C65.7475 34.6928 66.0984 34.3896 66.1599 33.9742C66.1632 33.9525 66.4939 31.7769 67.5606 30.0349C67.9318 29.4286 68.1281 28.7372 68.1281 28.0356V21.9887C68.1281 21.9532 68.1259 21.9176 68.1215 21.8822ZM66.471 28.0352C66.471 28.412 66.3666 28.7858 66.1689 29.1182V26.8407C66.1689 26.8102 66.1673 26.7799 66.164 26.7496C66.151 26.6271 65.8087 23.7364 62.7668 22.5986C62.763 22.5973 62.7593 22.5959 62.7556 22.5945L58.8992 21.2161C58.4644 21.0607 58.0095 20.9831 57.5549 20.9831C57.0661 20.9831 56.5775 21.0729 56.1146 21.2521C55.0087 21.6799 54.1522 21.9948 53.6382 22.1626C53.4044 22.2389 53.1585 22.2776 52.9074 22.2776H49.2438C49.2083 22.2776 49.1727 22.28 49.1374 22.2846C48.9971 22.3031 45.6928 22.7815 44.8612 26.5765C44.848 26.6368 44.8413 26.6984 44.8413 26.7602V28.4962C44.6609 28.0717 44.5654 27.6081 44.5654 27.1366V22.6941C44.5654 19.0271 47.4956 16.0437 51.097 16.0437H62.133C62.5899 16.1428 63.1452 16.3461 63.3558 16.7599C63.6137 17.2663 63.3199 17.9636 63.3196 17.9642C63.2137 18.1937 63.2149 18.4594 63.3226 18.6879C63.4304 18.9164 63.6334 19.0834 63.8756 19.1428C65.9847 19.6597 66.4149 21.7194 66.471 22.0526V28.0352H66.471Z" fill="white"/>
<path d="M66.1641 26.7499C66.1511 26.6274 65.8088 23.7366 62.7668 22.5989C62.7631 22.5975 62.7594 22.5961 62.7556 22.5948L58.8993 21.2163C57.9968 20.8938 57.008 20.9067 56.1146 21.2522C55.0086 21.68 54.1522 21.9948 53.6382 22.1627C53.4044 22.239 53.1585 22.2777 52.9074 22.2777H49.2438C49.2082 22.2777 49.1726 22.28 49.1373 22.2846C48.9971 22.3031 45.6928 22.7816 44.8612 26.5765C44.848 26.6368 44.8413 26.6984 44.8413 26.7602V34.0116C44.8413 34.0178 44.8414 34.024 44.8415 34.0303C44.847 34.2822 45.022 40.2308 49.0588 42.9513L49.0796 42.9663C49.0969 42.9788 49.1143 42.9913 49.1324 43.0036C49.3625 43.1619 49.5936 43.3337 49.8197 43.5144C50.9957 44.4546 53.2119 46.0157 54.9602 46.0157C54.9635 46.0157 54.9665 46.0157 54.9699 46.0157C55.0648 46.0263 55.2343 46.0406 55.4642 46.0406C56.455 46.0406 58.5689 45.7762 60.6862 43.8273C61.0416 43.5004 61.4411 43.1806 61.8743 42.8768L61.9362 42.8326C61.9564 42.8181 61.9766 42.8035 61.9975 42.7893C63.344 41.8684 65.6761 39.4924 66.1657 33.925C66.1679 33.9001 66.1691 33.8748 66.1691 33.8497V26.841C66.169 26.8106 66.1673 26.7803 66.1641 26.7499ZM64.512 33.8116C64.0605 38.836 61.958 40.7838 61.0735 41.3886C61.0422 41.4102 61.0111 41.4324 60.9801 41.4546L60.9342 41.4875C60.4414 41.8332 59.9842 42.1993 59.5751 42.5758C57.3539 44.6203 55.2426 44.3522 55.1391 44.3374C55.0909 44.3301 55.0421 44.3269 54.9934 44.3283C54.1123 44.3513 52.5236 43.5315 50.843 42.1876C50.5859 41.982 50.3223 41.7861 50.0595 41.6055L50.0391 41.5909C50.0192 41.5765 49.9994 41.5622 49.9761 41.5464C46.7185 39.3511 46.5054 34.2137 46.4982 33.9994V26.8568C47.0628 24.4793 48.9945 24.0236 49.3094 23.9647H52.9075C53.3306 23.9647 53.7466 23.899 54.1442 23.7692C54.8281 23.5458 55.9132 23.1348 56.7031 22.8293C57.2315 22.6248 57.8167 22.6173 58.3504 22.8083L62.2009 24.1846C64.1259 24.9076 64.4695 26.6282 64.5121 26.8986V33.8116H64.512Z" fill="white"/>
<path d="M56.2411 48.8373C56.112 48.5744 55.8578 48.3989 55.5702 48.374C55.2831 48.3498 55.0031 48.4783 54.8322 48.7153L52.8477 51.4673C52.5772 51.8427 52.6562 52.3703 53.0246 52.6461C53.1724 52.7568 53.3443 52.8103 53.5148 52.8103C53.769 52.8103 54.0199 52.6915 54.1823 52.4671L56.1669 49.7252C56.2719 49.5802 56.3286 49.3949 56.3286 49.2148C56.3286 49.084 56.2985 48.9546 56.2411 48.8373Z" fill="white"/>
<path d="M56.2942 62.4188C55.983 62.0874 55.4688 62.0697 55.1365 62.3793L54.9471 62.5557C54.6636 62.8197 54.5955 63.2476 54.7829 63.5893L54.7887 63.5999C54.9153 63.8307 55.1409 63.9878 55.3981 64.0242C55.4362 64.0295 55.4743 64.0322 55.5122 64.0322C55.7303 64.0322 55.9415 63.9444 56.098 63.785L56.2814 63.598C56.5998 63.2739 56.6056 62.75 56.2942 62.4188Z" fill="white"/>
<path d="M56.0531 62.5556L55.8637 62.3792C55.5314 62.0698 55.0171 62.0874 54.7059 62.4187C54.3945 62.7502 54.4003 63.2742 54.7188 63.5983L54.9025 63.7852C55.059 63.9446 55.2701 64.0323 55.4882 64.0323C55.5272 64.0323 55.5663 64.0295 55.6055 64.0238C55.8635 63.9863 56.0892 63.8272 56.2146 63.5945L56.2205 63.5838C56.404 63.2428 56.3349 62.818 56.0531 62.5556Z" fill="white"/>
<path d="M56.0668 62.5693L56.0658 62.5683C55.9378 62.4465 55.7724 62.3662 55.5901 62.3458C55.3459 62.3187 55.1081 62.4029 54.9352 62.5669L54.9327 62.5693C54.7652 62.7248 54.6677 62.9435 54.6628 63.1743C54.6579 63.4052 54.7461 63.6279 54.9068 63.7906L54.9155 63.7995C55.0772 63.9631 55.2884 64.0448 55.4997 64.0448C55.7118 64.0448 55.9238 63.9624 56.0854 63.7979L56.0941 63.7891C56.2541 63.626 56.3418 63.4036 56.3365 63.1732C56.3316 62.9428 56.234 62.7246 56.0668 62.5693Z" fill="white"/>
<path d="M55.7686 48.3982C55.4255 48.2863 55.049 48.416 54.8401 48.7152C54.6064 49.0502 54.6449 49.5067 54.9297 49.798C55.0899 49.9619 55.3025 50.0459 55.5168 50.0459C55.6832 50.0459 55.8505 49.9952 55.9948 49.8917C56.2153 49.7338 56.3465 49.4765 56.3465 49.2019V49.1999C56.3465 48.8328 56.1121 48.5098 55.7686 48.3982Z" fill="white"/>
<path d="M56.1731 48.7083L56.166 48.6985C55.9534 48.4056 55.5802 48.285 55.2405 48.3989C54.9009 48.5128 54.6714 48.8359 54.6714 49.2V49.2144C54.6714 49.5249 54.8426 49.808 55.1113 49.955C55.2331 50.0215 55.3674 50.0544 55.5016 50.0544C55.6634 50.0544 55.8251 50.0066 55.964 49.9129C56.1534 49.7852 56.2831 49.5839 56.3226 49.3562C56.3622 49.1285 56.3081 48.8942 56.1731 48.7083Z" fill="white"/>
<path d="M65.3557 46.0578C65.2699 45.8268 65.0889 45.6457 64.8605 45.5625L61.6841 44.4031C61.6583 44.3938 61.6316 44.3854 61.605 44.3788C61.3783 44.321 61.1381 44.3634 60.9438 44.4957L55.0582 48.5C55.0567 48.5011 55.055 48.5022 55.0533 48.5034L55.5155 49.203L55.043 48.5105C54.8704 48.6267 54.7467 48.8049 54.6966 49.0094C54.669 49.1216 54.6645 49.2389 54.6832 49.353C54.7045 49.4834 54.7556 49.6069 54.8326 49.7136L59.1416 55.689C59.2982 55.9063 59.5466 56.0333 59.8092 56.0333C59.8272 56.0333 59.8453 56.0326 59.8634 56.0314C60.1456 56.0125 60.3989 55.8486 60.5352 55.5961L65.3067 46.763C65.4238 46.5465 65.4417 46.2887 65.3557 46.0578ZM59.7089 53.6252L56.6804 49.4254L61.5174 46.1344L63.3868 46.8168L59.7089 53.6252Z" fill="white"/>
<path d="M56.3161 49.0693C56.2771 48.8429 56.1492 48.6424 55.9616 48.5143L50.0564 44.4966C49.8684 44.3685 49.6367 44.3247 49.4159 44.3746C49.3821 44.3822 49.3488 44.3921 49.3161 44.404L46.1396 45.5634C45.9113 45.6467 45.7303 45.8278 45.6445 46.0587C45.5586 46.2898 45.5764 46.5474 45.6934 46.7639L50.4649 55.597C50.6011 55.8494 50.8545 56.0134 51.1367 56.0323C51.1547 56.0335 51.1728 56.034 51.1908 56.034C51.4534 56.034 51.7017 55.907 51.8586 55.6896L54.161 52.4968C54.1628 52.4944 54.1646 52.4918 54.1665 52.4891L56.1677 49.7138C56.3013 49.5285 56.3549 49.2958 56.3161 49.0693ZM52.8256 51.498C52.8236 51.5008 52.8216 51.5035 52.8196 51.5062L51.291 53.6261L47.6131 46.8176L49.4826 46.1353L54.3195 49.4263L52.8256 51.498Z" fill="white"/>
<path d="M79.9589 60.4584L78.8901 53.8874C78.5534 51.8167 77.1399 50.0866 75.2013 49.3727L64.8621 45.564C64.5433 45.4467 64.187 45.5387 63.9618 45.7961C63.7365 46.0537 63.6878 46.4249 63.839 46.7337L65.9977 51.1415L63.8795 51.1747C63.5919 51.1793 63.3271 51.3352 63.1801 51.587C63.0331 51.8388 63.0249 52.15 63.1583 52.4095L64.0271 54.0985L55.136 62.38C55.1269 62.3884 55.118 62.397 55.1093 62.4059L54.9257 62.5928C54.6657 62.8576 54.6082 63.2653 54.7848 63.5939L54.7913 63.6059C54.9366 63.8763 55.2153 64.0446 55.5181 64.0446H76.9721C77.8633 64.0446 78.705 63.6477 79.2812 62.9557C79.8575 62.2636 80.1045 61.3533 79.9589 60.4584ZM78.0177 61.8646C77.7566 62.178 77.3755 62.3576 76.9721 62.3576H57.6146L65.6165 54.9048C65.894 54.6464 65.9658 54.2303 65.7912 53.8911L65.2507 52.8403L67.3395 52.8076C67.6242 52.8032 67.8866 52.6501 68.0346 52.4025C68.1825 52.1547 68.1952 51.8472 68.0682 51.5877L66.2463 47.8677L74.6381 50.9589C76.0139 51.4656 77.0169 52.6934 77.2559 54.1629L78.3246 60.7338C78.3246 60.7339 78.3246 60.7339 78.3246 60.7339C78.3905 61.1392 78.2787 61.5512 78.0177 61.8646Z" fill="white"/>
<path d="M56.0741 62.5756L56.0644 62.5668C55.7365 62.2645 55.2329 62.2779 54.9209 62.5974L54.9123 62.6062C54.6764 62.8479 54.6065 63.2104 54.7349 63.5249C54.8634 63.8396 55.1653 64.0445 55.4998 64.0445H55.518C55.8605 64.0445 56.1678 63.8297 56.2909 63.5044C56.4143 63.1788 56.3281 62.8097 56.0741 62.5756Z" fill="white"/>
<path d="M56.0481 62.5515C55.8601 62.3791 55.605 62.3036 55.3552 62.347C55.1057 62.3899 54.8892 62.5469 54.7675 62.7728L54.7618 62.7834C54.5871 63.1076 54.6402 63.5099 54.8928 63.7757L54.8958 63.7788C55.0581 63.9496 55.2744 64.0358 55.4912 64.0358C55.6908 64.0358 55.8909 63.9627 56.0494 63.8153L56.0581 63.8073C56.1333 63.7375 56.1953 63.6539 56.2409 63.5611C56.4077 63.2217 56.3252 62.8052 56.0481 62.5515Z" fill="white"/>
<path d="M56.0841 62.6031L56.0806 62.5995C56.0784 62.5973 56.0761 62.5949 56.074 62.5928L55.8903 62.4059C55.8817 62.397 55.8727 62.3883 55.8638 62.3801L46.9726 54.0986L47.8415 52.4096C47.975 52.1502 47.9667 51.8389 47.8198 51.5871C47.6728 51.3354 47.4081 51.1794 47.1205 51.1748L45.0021 51.1416L47.1608 46.7338C47.312 46.4251 47.2632 46.0538 47.038 45.7962C46.8128 45.5387 46.456 45.4466 46.1376 45.5641L35.7985 49.3728C33.8599 50.0866 32.4464 51.8167 32.1096 53.8876L31.0409 60.4585C30.8953 61.3538 31.1424 62.2639 31.7188 62.9559C32.2952 63.6478 33.1369 64.0447 34.0279 64.0447H55.5001C55.8356 64.0447 56.1379 63.8386 56.2658 63.5229C56.3938 63.2072 56.322 62.8439 56.0841 62.6031ZM34.028 62.3577C33.6245 62.3577 33.2434 62.1781 32.9825 61.8647C32.7216 61.5514 32.6098 61.1393 32.6757 60.7339L33.7444 54.163C33.9834 52.6933 34.9864 51.4657 36.3622 50.959L44.7539 47.8678L42.9321 51.5876C42.805 51.8471 42.8177 52.1546 42.9657 52.4024C43.1136 52.6501 43.3761 52.8031 43.6608 52.8075L45.7496 52.8403L45.2091 53.8911C45.0346 54.2302 45.1064 54.6464 45.3838 54.9048L53.3856 62.3577H34.028Z" fill="white"/>
<path d="M58.3199 52.2145C58.3797 51.9708 58.3299 51.7129 58.1839 51.5105L56.1679 48.715C55.956 48.4211 55.5823 48.3042 55.2422 48.4178C55.0586 48.4791 54.9072 48.6029 54.8066 48.761L52.8273 51.4954C52.799 51.5344 52.7738 51.5763 52.7525 51.6198C52.6169 51.896 52.6403 52.2256 52.8135 52.479L53.6564 53.7114L52.7585 59.4739C52.7297 59.659 52.7622 59.8484 52.8509 60.0126L54.7743 63.5733C54.9199 63.8429 55.1982 64.0103 55.5002 64.0103C55.8024 64.0103 56.0806 63.8429 56.2261 63.5733L58.1639 59.9862C58.2311 59.8616 58.2664 59.7218 58.2664 59.5797V59.5792C58.2664 59.535 58.2629 59.4908 58.2562 59.447L57.3624 53.7115L58.1962 52.4927C58.2534 52.4083 58.2956 52.3138 58.3199 52.2145ZM55.5002 61.4165L54.4394 59.4528L55.3451 53.6403C55.3787 53.425 55.329 53.205 55.2067 53.0262L54.5125 52.011L55.5026 50.6431L56.4979 52.0233L55.812 53.0262C55.6897 53.2049 55.6401 53.425 55.6736 53.6403L56.5753 59.4263L55.5002 61.4165Z" fill="white"/>
</g>
<defs>
<clipPath id="clip0_1763_3134">
<rect width="49" height="49.8911" fill="white" transform="translate(31 14.2549)"/>
</clipPath>
</defs>
</svg>
