<svg width="16" height="16" viewBox="0 0 16 16" fill="none" xmlns="http://www.w3.org/2000/svg">
<path d="M8.00033 1.33398C8.36852 1.33398 8.66699 1.63246 8.66699 2.00065V9.05784L10.1956 7.52925C10.4559 7.2689 10.878 7.2689 11.1384 7.52925C11.3987 7.7896 11.3987 8.21171 11.1384 8.47206L8.47173 11.1387C8.21138 11.3991 7.78927 11.3991 7.52892 11.1387L4.86225 8.47206C4.6019 8.21171 4.6019 7.7896 4.86225 7.52925C5.1226 7.2689 5.54471 7.2689 5.80506 7.52925L7.33366 9.05784V2.00065C7.33366 1.63246 7.63214 1.33398 8.00033 1.33398ZM3.33366 11.334C3.70185 11.334 4.00033 11.6325 4.00033 12.0007V13.334H12.0003V12.0007C12.0003 11.6325 12.2988 11.334 12.667 11.334C13.0352 11.334 13.3337 11.6325 13.3337 12.0007V13.334C13.3337 14.0704 12.7367 14.6673 12.0003 14.6673H4.00033C3.26395 14.6673 2.66699 14.0704 2.66699 13.334V12.0007C2.66699 11.6325 2.96547 11.334 3.33366 11.334Z" fill="#2CCAD6"/>
</svg>
