<svg width="20" height="20" viewBox="0 0 20 20" fill="none" xmlns="http://www.w3.org/2000/svg">
<path d="M3.33301 9.13848C3.33301 7.93566 3.33301 7.33425 3.63171 6.85095C3.9304 6.36764 4.46832 6.09868 5.54415 5.56077L8.21082 4.22744C9.08863 3.78853 9.52754 3.56908 9.99967 3.56908C10.4718 3.56908 10.9107 3.78853 11.7885 4.22744L14.4552 5.56077C15.531 6.09868 16.0689 6.36764 16.3676 6.85095C16.6663 7.33425 16.6663 7.93566 16.6663 9.13848V12.6663C16.6663 14.552 16.6663 15.4948 16.0806 16.0806C15.4948 16.6663 14.552 16.6663 12.6663 16.6663H7.333C5.44739 16.6663 4.50458 16.6663 3.91879 16.0806C3.33301 15.4948 3.33301 14.552 3.33301 12.6663V9.13848Z" stroke="white" stroke-width="1.2"/>
<path d="M5.24722 11.0812L3.33301 9.16699V14.667C3.33301 15.7716 4.22844 16.667 5.33301 16.667H14.6663C15.7709 16.667 16.6663 15.7716 16.6663 14.667V9.16699L14.7521 11.0812C14.3771 11.4563 13.8683 11.667 13.3379 11.667H6.66143C6.131 11.667 5.62229 11.4563 5.24722 11.0812Z" fill="#7E869E" fill-opacity="0.25" stroke="white" stroke-width="1.2" stroke-linecap="round"/>
</svg>
