<svg width="24" height="24" viewBox="0 0 24 24" fill="none" xmlns="http://www.w3.org/2000/svg">
<path fill-rule="evenodd" clip-rule="evenodd" d="M12 24C18.6274 24 24 18.6274 24 12C24 5.37259 18.6274 0 12 0C5.37259 0 0 5.37259 0 12C0 18.6274 5.37259 24 12 24ZM7.77547 9.8208H10.2672V7.68379C10.2672 5.20565 11.7801 3.8568 13.9907 3.8568C14.7369 3.85415 15.4826 3.89227 16.2246 3.97099V6.56107H14.7001C13.4974 6.56107 13.2645 7.13261 13.2645 7.97141V9.8208H16.1402L15.7655 12.7248H13.2647V20.1432H10.2672V12.7248H7.77547V9.8208Z" fill="white"/>
</svg>
