<svg width="24" height="24" viewBox="0 0 24 24" fill="none" xmlns="http://www.w3.org/2000/svg">
<path d="M12 14.4609C13.3591 14.4609 14.4609 13.3591 14.4609 12C14.4609 10.6409 13.3591 9.53906 12 9.53906C10.6409 9.53906 9.53906 10.6409 9.53906 12C9.53906 13.3591 10.6409 14.4609 12 14.4609Z" fill="white"/>
<path d="M12 0C5.37259 0 0 5.37259 0 12C0 18.6274 5.37259 24 12 24C18.6274 24 24 18.6274 24 12C24 5.37259 18.6274 0 12 0ZM19.414 15.0499C19.3564 16.1908 19.0358 17.3158 18.2044 18.1384C17.3649 18.9688 16.2346 19.2782 15.0827 19.3352H8.91734C7.76534 19.2782 6.63514 18.969 5.79566 18.1384C4.96421 17.3158 4.64366 16.1908 4.58606 15.0499V8.95008C4.64366 7.80922 4.96426 6.68419 5.79566 5.86157C6.63514 5.03117 7.76549 4.72176 8.91734 4.66478H15.0827C16.2347 4.72176 17.3649 5.03102 18.2043 5.86157C19.0358 6.68419 19.3563 7.80922 19.4139 8.95008L19.414 15.0499Z" fill="white"/>
<path d="M14.9347 6.19423C13.4682 6.15401 10.5329 6.15401 9.06636 6.19423C8.30319 6.21518 7.43802 6.40516 6.89427 6.98595C6.32924 7.58965 6.11572 8.31902 6.09407 9.13498C6.056 10.5671 6.09407 14.8655 6.09407 14.8655C6.11886 15.6814 6.32924 16.4109 6.89427 17.0146C7.43802 17.5955 8.30319 17.7853 9.06636 17.8063C10.5329 17.8465 13.4682 17.8465 14.9347 17.8063C15.6979 17.7853 16.5631 17.5954 17.1068 17.0146C17.6719 16.4109 17.8854 15.6815 17.907 14.8655V9.13498C17.8854 8.31902 17.6719 7.58965 17.1068 6.98595C16.5629 6.40498 15.6977 6.21518 14.9347 6.19423V6.19423ZM12.0004 15.8147C11.2459 15.8147 10.5084 15.591 9.88116 15.1719C9.25388 14.7527 8.76497 14.157 8.47627 13.46C8.18756 12.763 8.11202 11.996 8.2592 11.2561C8.40638 10.5162 8.76968 9.83649 9.30314 9.30303C9.8366 8.76957 10.5163 8.40628 11.2562 8.2591C11.9961 8.11192 12.7631 8.18746 13.4601 8.47616C14.1571 8.76487 14.7528 9.25378 15.172 9.88106C15.5911 10.5083 15.8148 11.2458 15.8148 12.0003C15.8148 13.0119 15.4129 13.9821 14.6976 14.6975C13.9822 15.4128 13.012 15.8147 12.0004 15.8147V15.8147ZM15.831 8.97317C15.6802 8.97313 15.5327 8.92835 15.4072 8.8445C15.2818 8.76065 15.1841 8.64149 15.1263 8.50209C15.0686 8.36269 15.0536 8.2093 15.083 8.06133C15.1125 7.91335 15.1851 7.77744 15.2918 7.67076C15.3985 7.56409 15.5345 7.49145 15.6825 7.46203C15.8304 7.43261 15.9838 7.44773 16.1232 7.50547C16.2626 7.56322 16.3817 7.661 16.4656 7.78645C16.5494 7.91191 16.5941 8.0594 16.5941 8.21027C16.5941 8.31047 16.5744 8.40969 16.536 8.50226C16.4977 8.59483 16.4415 8.67894 16.3706 8.74979C16.2997 8.82063 16.2156 8.87682 16.123 8.91515C16.0305 8.95347 15.9312 8.97319 15.831 8.97317Z" fill="white"/>
</svg>
