<svg width="179" height="58" viewBox="0 0 179 58" fill="none" xmlns="http://www.w3.org/2000/svg">
<path d="M111.944 38.8949V12.3545H122.935V15.9633H115.811V35.2861H123.633V38.8949H111.944Z" fill="white"/>
<path d="M130.234 12.3545L119.155 24.7154H123.633L131.542 15.9633H137.445L128.198 26.2499L137.445 35.2861H132.153L123.633 26.9603H119.155L130.845 38.8949H146.692L133.403 25.9089L145.965 12.3545H130.234Z" fill="white"/>
<path d="M149.599 38.6664L142.961 31.4021H147.932L151.646 35.0343H170.478C175.332 32.8607 176.385 27.2552 170.478 23.9662H156.061V20.1625H170.478C181.005 23.1082 180.274 35.3775 171.092 38.6664H149.599Z" fill="white"/>
<path d="M166.764 31.4021V27.6842H152.26C146.762 25.1674 147.406 17.9889 152.26 16.1013H173.285V19.6477H177.291V12.126H151.646C141.645 17.0451 143.312 27.341 151.646 31.4021H166.764Z" fill="white"/>
<path d="M88.5685 38.3785L74.6291 24.6635H80.3516L88.5685 32.6974L102.302 19.2694V35.0788H105.765V12.3545H109.844V38.8949H98.4875V27.8771L88.5685 38.3785Z" fill="white"/>
<path d="M67.166 39.5813V12.3545H78.0191L88.4346 21.7935L98.0331 12.3545H103.781L88.4346 27.4454L77.3189 16.5145H71.2213V35.4213H78.8068V39.5813H67.166Z" fill="white"/>
<path d="M70.0437 49.7815L71.544 46.3742H72.2696L70.3047 50.7842H69.7828L67.826 46.3742H68.5517L70.0437 49.7815ZM68.3315 46.3742V50.7842H67.5773V46.3742H68.3315ZM71.7315 50.7842V46.3742H72.4898V50.7842H71.7315Z" fill="white"/>
<path d="M76.203 50.8657C75.8959 50.8657 75.6173 50.8141 75.3673 50.7108C75.1199 50.6048 74.9066 50.4568 74.7272 50.2666C74.5506 50.0764 74.4147 49.8508 74.3196 49.59C74.2244 49.3291 74.1769 49.0438 74.1769 48.7341V48.5629C74.1769 48.2042 74.2299 47.885 74.3359 47.6051C74.4419 47.3225 74.5859 47.0834 74.768 46.8878C74.9501 46.6921 75.1566 46.544 75.3876 46.4435C75.6187 46.343 75.8578 46.2927 76.1051 46.2927C76.4204 46.2927 76.6922 46.347 76.9205 46.4557C77.1515 46.5644 77.3404 46.7166 77.4872 46.9122C77.6339 47.1051 77.7426 47.3334 77.8133 47.5969C77.8839 47.8578 77.9193 48.1431 77.9193 48.4528V48.7911H74.6253V48.1757H77.1651V48.1186C77.1542 47.923 77.1135 47.7328 77.0428 47.548C76.9748 47.3633 76.8661 47.2111 76.7167 47.0915C76.5672 46.972 76.3633 46.9122 76.1051 46.9122C75.9339 46.9122 75.7763 46.9489 75.6323 47.0223C75.4882 47.0929 75.3645 47.1989 75.2613 47.3402C75.158 47.4815 75.0778 47.654 75.0207 47.8578C74.9637 48.0616 74.9351 48.2966 74.9351 48.5629V48.7341C74.9351 48.9433 74.9637 49.1403 75.0207 49.3251C75.0805 49.5071 75.1661 49.6674 75.2776 49.806C75.3917 49.9446 75.529 50.0533 75.6893 50.1321C75.8524 50.2109 76.0372 50.2503 76.2438 50.2503C76.5101 50.2503 76.7357 50.1959 76.9205 50.0872C77.1053 49.9785 77.267 49.8332 77.4056 49.6511L77.8622 50.0139C77.7671 50.1579 77.6461 50.2951 77.4994 50.4255C77.3526 50.5559 77.1719 50.6619 76.9572 50.7434C76.7452 50.8249 76.4938 50.8657 76.203 50.8657Z" fill="white"/>
<path d="M81.2167 46.3742V50.7842H80.4584V46.3742H81.2167ZM82.6965 46.3742V46.9856H79.0071V46.3742H82.6965Z" fill="white"/>
<path d="M86.6421 50.0302V47.76C86.6421 47.5861 86.6068 47.4353 86.5361 47.3076C86.4682 47.1771 86.3649 47.0766 86.2263 47.006C86.0877 46.9353 85.9165 46.9 85.7126 46.9C85.5224 46.9 85.3552 46.9326 85.2112 46.9978C85.0699 47.063 84.9584 47.1486 84.8769 47.2546C84.7981 47.3605 84.7587 47.4747 84.7587 47.5969H84.0045C84.0045 47.4393 84.0453 47.2831 84.1268 47.1282C84.2083 46.9733 84.3252 46.8334 84.4774 46.7084C84.6323 46.5807 84.8171 46.4802 85.0318 46.4068C85.2492 46.3307 85.4911 46.2927 85.7575 46.2927C86.0782 46.2927 86.3608 46.347 86.6054 46.4557C86.8527 46.5644 87.0457 46.7288 87.1843 46.9489C87.3256 47.1663 87.3963 47.4393 87.3963 47.7681V49.8223C87.3963 49.969 87.4085 50.1253 87.433 50.291C87.4602 50.4568 87.4996 50.5994 87.5512 50.719V50.7842H86.7644C86.7264 50.6972 86.6965 50.5818 86.6747 50.4377C86.653 50.291 86.6421 50.1552 86.6421 50.0302ZM86.7726 48.1105L86.7807 48.6403H86.0184C85.8037 48.6403 85.6121 48.658 85.4436 48.6933C85.2751 48.7259 85.1337 48.7762 85.0196 48.8441C84.9054 48.912 84.8185 48.9976 84.7587 49.1009C84.6989 49.2014 84.669 49.3196 84.669 49.4555C84.669 49.5941 84.7002 49.7204 84.7628 49.8345C84.8253 49.9486 84.919 50.0397 85.044 50.1076C85.1718 50.1728 85.3281 50.2054 85.5129 50.2054C85.7439 50.2054 85.9477 50.1565 86.1244 50.0587C86.301 49.9609 86.441 49.8413 86.5443 49.7C86.6503 49.5587 86.7073 49.4215 86.7155 49.2884L87.0376 49.6511C87.0185 49.7652 86.9669 49.8916 86.8826 50.0302C86.7984 50.1687 86.6856 50.3019 86.5443 50.4296C86.4057 50.5546 86.2399 50.6592 86.0469 50.7434C85.8567 50.8249 85.642 50.8657 85.4028 50.8657C85.1038 50.8657 84.8416 50.8073 84.616 50.6904C84.3931 50.5736 84.2192 50.4174 84.0942 50.2217C83.9719 50.0234 83.9107 49.8019 83.9107 49.5574C83.9107 49.321 83.9569 49.1131 84.0493 48.9338C84.1417 48.7517 84.2749 48.6009 84.4489 48.4814C84.6228 48.3591 84.8321 48.2667 85.0767 48.2042C85.3213 48.1417 85.5944 48.1105 85.8961 48.1105H86.7726Z" fill="white"/>
<path d="M92.198 46.3742V46.9978H90.0659V46.3742H92.198ZM92.8625 46.3742V50.7842H92.1083V46.3742H92.8625ZM89.8824 46.3742H90.6407L90.5266 48.5018C90.5075 48.8305 90.4763 49.1213 90.4328 49.374C90.392 49.6239 90.335 49.8386 90.2616 50.0179C90.1909 50.1973 90.1012 50.344 89.9925 50.4581C89.8865 50.5695 89.7588 50.6524 89.6093 50.7067C89.4598 50.7584 89.2872 50.7842 89.0916 50.7842H88.8551V50.1198L89.0182 50.1076C89.135 50.0994 89.2342 50.0723 89.3158 50.0261C89.4 49.9799 89.4707 49.912 89.5278 49.8223C89.5848 49.7299 89.631 49.6117 89.6664 49.4677C89.7044 49.3237 89.733 49.1525 89.752 48.9542C89.7737 48.7558 89.79 48.5248 89.8009 48.2613L89.8824 46.3742Z" fill="white"/>
<path d="M97.6927 46.3742V46.9978H95.5606V46.3742H97.6927ZM98.3572 46.3742V50.7842H97.6031V46.3742H98.3572ZM95.3772 46.3742H96.1354L96.0213 48.5018C96.0023 48.8305 95.971 49.1213 95.9275 49.374C95.8868 49.6239 95.8297 49.8386 95.7563 50.0179C95.6857 50.1973 95.596 50.344 95.4873 50.4581C95.3813 50.5695 95.2535 50.6524 95.104 50.7067C94.9546 50.7584 94.782 50.7842 94.5863 50.7842H94.3499V50.1198L94.5129 50.1076C94.6298 50.0994 94.729 50.0723 94.8105 50.0261C94.8948 49.9799 94.9654 49.912 95.0225 49.8223C95.0796 49.7299 95.1258 49.6117 95.1611 49.4677C95.1992 49.3237 95.2277 49.1525 95.2467 48.9542C95.2685 48.7558 95.2848 48.5248 95.2956 48.2613L95.3772 46.3742Z" fill="white"/>
<path d="M103.798 46.3742V50.7842H103.044V46.3742H103.798ZM106.693 46.3742L104.601 48.9012H103.546L103.431 48.2409H104.296L105.776 46.3742H106.693ZM105.882 50.7842L104.259 48.7871L104.744 48.2409L106.84 50.7842H105.882Z" fill="white"/>
<path d="M107.874 48.6281V48.5344C107.874 48.2164 107.921 47.9216 108.013 47.6499C108.105 47.3755 108.239 47.1377 108.413 46.9367C108.586 46.7329 108.797 46.5753 109.044 46.4639C109.292 46.3498 109.569 46.2927 109.876 46.2927C110.186 46.2927 110.464 46.3498 110.712 46.4639C110.962 46.5753 111.174 46.7329 111.348 46.9367C111.524 47.1377 111.659 47.3755 111.751 47.6499C111.844 47.9216 111.89 48.2164 111.89 48.5344V48.6281C111.89 48.946 111.844 49.2408 111.751 49.5125C111.659 49.7843 111.524 50.022 111.348 50.2258C111.174 50.4269 110.963 50.5845 110.716 50.6986C110.471 50.81 110.194 50.8657 109.884 50.8657C109.574 50.8657 109.296 50.81 109.048 50.6986C108.801 50.5845 108.589 50.4269 108.413 50.2258C108.239 50.022 108.105 49.7843 108.013 49.5125C107.921 49.2408 107.874 48.946 107.874 48.6281ZM108.629 48.5344V48.6281C108.629 48.8482 108.654 49.0561 108.706 49.2517C108.758 49.4446 108.835 49.6158 108.938 49.7652C109.044 49.9147 109.176 50.0329 109.334 50.1198C109.491 50.2041 109.675 50.2462 109.884 50.2462C110.091 50.2462 110.271 50.2041 110.426 50.1198C110.584 50.0329 110.714 49.9147 110.818 49.7652C110.921 49.6158 110.998 49.4446 111.05 49.2517C111.104 49.0561 111.132 48.8482 111.132 48.6281V48.5344C111.132 48.317 111.104 48.1118 111.05 47.9189C110.998 47.7233 110.92 47.5507 110.814 47.4013C110.71 47.2491 110.58 47.1296 110.422 47.0426C110.267 46.9557 110.085 46.9122 109.876 46.9122C109.669 46.9122 109.487 46.9557 109.33 47.0426C109.175 47.1296 109.044 47.2491 108.938 47.4013C108.835 47.5507 108.758 47.7233 108.706 47.9189C108.654 48.1118 108.629 48.317 108.629 48.5344Z" fill="white"/>
<path d="M116.039 49.7815L117.54 46.3742H118.265L116.3 50.7842H115.778L113.822 46.3742H114.547L116.039 49.7815ZM114.327 46.3742V50.7842H113.573V46.3742H114.327ZM117.727 50.7842V46.3742H118.485V50.7842H117.727Z" fill="white"/>
<path d="M123.307 46.3742V46.9978H121.078V46.3742H123.307ZM121.188 46.3742V50.7842H120.433V46.3742H121.188ZM123.976 46.3742V50.7842H123.218V46.3742H123.976Z" fill="white"/>
<path d="M128.802 46.3742V46.9978H126.67V46.3742H128.802ZM129.467 46.3742V50.7842H128.713V46.3742H129.467ZM126.487 46.3742H127.245L127.131 48.5018C127.112 48.8305 127.08 49.1213 127.037 49.374C126.996 49.6239 126.939 49.8386 126.866 50.0179C126.795 50.1973 126.705 50.344 126.597 50.4581C126.491 50.5695 126.363 50.6524 126.214 50.7067C126.064 50.7584 125.891 50.7842 125.696 50.7842H125.459V50.1198L125.622 50.1076C125.739 50.0994 125.838 50.0723 125.92 50.0261C126.004 49.9799 126.075 49.912 126.132 49.8223C126.189 49.7299 126.235 49.6117 126.271 49.4677C126.309 49.3237 126.337 49.1525 126.356 48.9542C126.378 48.7558 126.394 48.5248 126.405 48.2613L126.487 46.3742Z" fill="white"/>
<path d="M133.18 50.8657C132.873 50.8657 132.594 50.8141 132.344 50.7108C132.097 50.6048 131.884 50.4568 131.704 50.2666C131.528 50.0764 131.392 49.8508 131.296 49.59C131.201 49.3291 131.154 49.0438 131.154 48.7341V48.5629C131.154 48.2042 131.207 47.885 131.313 47.6051C131.419 47.3225 131.563 47.0834 131.745 46.8878C131.927 46.6921 132.134 46.544 132.365 46.4435C132.596 46.343 132.835 46.2927 133.082 46.2927C133.397 46.2927 133.669 46.347 133.897 46.4557C134.128 46.5644 134.317 46.7166 134.464 46.9122C134.611 47.1051 134.72 47.3334 134.79 47.5969C134.861 47.8578 134.896 48.1431 134.896 48.4528V48.7911H131.602V48.1757H134.142V48.1186C134.131 47.923 134.09 47.7328 134.02 47.548C133.952 47.3633 133.843 47.2111 133.694 47.0915C133.544 46.972 133.34 46.9122 133.082 46.9122C132.911 46.9122 132.753 46.9489 132.609 47.0223C132.465 47.0929 132.341 47.1989 132.238 47.3402C132.135 47.4815 132.055 47.654 131.998 47.8578C131.941 48.0616 131.912 48.2966 131.912 48.5629V48.7341C131.912 48.9433 131.941 49.1403 131.998 49.3251C132.057 49.5071 132.143 49.6674 132.255 49.806C132.369 49.9446 132.506 50.0533 132.666 50.1321C132.829 50.2109 133.014 50.2503 133.221 50.2503C133.487 50.2503 133.713 50.1959 133.897 50.0872C134.082 49.9785 134.244 49.8332 134.383 49.6511L134.839 50.0139C134.744 50.1579 134.623 50.2951 134.476 50.4255C134.33 50.5559 134.149 50.6619 133.934 50.7434C133.722 50.8249 133.471 50.8657 133.18 50.8657Z" fill="white"/>
<path d="M137.264 46.3742V50.7842H136.51V46.3742H137.264ZM140.159 46.3742L138.067 48.9012H137.011L136.897 48.2409H137.762L139.241 46.3742H140.159ZM139.347 50.7842L137.725 48.7871L138.21 48.2409L140.305 50.7842H139.347Z" fill="white"/>
<path d="M143.427 46.3742V50.7842H142.669V46.3742H143.427ZM144.907 46.3742V46.9856H141.218V46.3742H144.907Z" fill="white"/>
<path d="M150.821 50.2462C151.001 50.2462 151.166 50.2095 151.319 50.1361C151.471 50.0628 151.596 49.9622 151.694 49.8345C151.792 49.7041 151.847 49.556 151.861 49.3903H152.578C152.565 49.6511 152.476 49.8943 152.313 50.1198C152.153 50.3426 151.942 50.5233 151.681 50.6619C151.421 50.7978 151.134 50.8657 150.821 50.8657C150.49 50.8657 150.2 50.8073 149.953 50.6904C149.708 50.5736 149.505 50.4133 149.341 50.2095C149.181 50.0057 149.06 49.772 148.979 49.5085C148.9 49.2422 148.86 48.961 148.86 48.6648V48.4936C148.86 48.1974 148.9 47.9176 148.979 47.654C149.06 47.3877 149.181 47.1527 149.341 46.9489C149.505 46.7451 149.708 46.5848 149.953 46.468C150.2 46.3511 150.49 46.2927 150.821 46.2927C151.166 46.2927 151.468 46.3633 151.726 46.5046C151.985 46.6432 152.187 46.8334 152.334 47.0752C152.483 47.3144 152.565 47.5861 152.578 47.8904H151.861C151.847 47.7083 151.796 47.544 151.706 47.3972C151.619 47.2505 151.499 47.1337 151.347 47.0467C151.198 46.957 151.022 46.9122 150.821 46.9122C150.59 46.9122 150.396 46.9584 150.238 47.0508C150.083 47.1405 149.96 47.2627 149.867 47.4176C149.778 47.5698 149.712 47.7396 149.672 47.9271C149.634 48.1118 149.615 48.3007 149.615 48.4936V48.6648C149.615 48.8577 149.634 49.0479 149.672 49.2354C149.71 49.4229 149.774 49.5927 149.863 49.7449C149.956 49.897 150.079 50.0193 150.234 50.1117C150.392 50.2013 150.588 50.2462 150.821 50.2462Z" fill="white"/>
<path d="M155.925 50.8657C155.618 50.8657 155.339 50.8141 155.089 50.7108C154.842 50.6048 154.628 50.4568 154.449 50.2666C154.272 50.0764 154.136 49.8508 154.041 49.59C153.946 49.3291 153.899 49.0438 153.899 48.7341V48.5629C153.899 48.2042 153.952 47.885 154.058 47.6051C154.164 47.3225 154.308 47.0834 154.49 46.8878C154.672 46.6921 154.878 46.544 155.109 46.4435C155.34 46.343 155.58 46.2927 155.827 46.2927C156.142 46.2927 156.414 46.347 156.642 46.4557C156.873 46.5644 157.062 46.7166 157.209 46.9122C157.356 47.1051 157.464 47.3334 157.535 47.5969C157.606 47.8578 157.641 48.1431 157.641 48.4528V48.7911H154.347V48.1757H156.887V48.1186C156.876 47.923 156.835 47.7328 156.764 47.548C156.697 47.3633 156.588 47.2111 156.438 47.0915C156.289 46.972 156.085 46.9122 155.827 46.9122C155.656 46.9122 155.498 46.9489 155.354 47.0223C155.21 47.0929 155.086 47.1989 154.983 47.3402C154.88 47.4815 154.799 47.654 154.742 47.8578C154.685 48.0616 154.657 48.2966 154.657 48.5629V48.7341C154.657 48.9433 154.685 49.1403 154.742 49.3251C154.802 49.5071 154.888 49.6674 154.999 49.806C155.113 49.9446 155.251 50.0533 155.411 50.1321C155.574 50.2109 155.759 50.2503 155.965 50.2503C156.232 50.2503 156.457 50.1959 156.642 50.0872C156.827 49.9785 156.989 49.8332 157.127 49.6511L157.584 50.0139C157.489 50.1579 157.368 50.2951 157.221 50.4255C157.074 50.5559 156.894 50.6619 156.679 50.7434C156.467 50.8249 156.215 50.8657 155.925 50.8657Z" fill="white"/>
<path d="M159.944 47.222V52.4797H159.185V46.3742H159.878L159.944 47.222ZM162.916 48.5425V48.6281C162.916 48.9487 162.878 49.2463 162.801 49.5207C162.725 49.7924 162.614 50.0288 162.467 50.2299C162.323 50.4309 162.145 50.5872 161.933 50.6986C161.721 50.81 161.478 50.8657 161.203 50.8657C160.923 50.8657 160.676 50.8195 160.461 50.7271C160.247 50.6347 160.065 50.5002 159.915 50.3236C159.766 50.147 159.646 49.9351 159.556 49.6878C159.469 49.4405 159.41 49.162 159.377 48.8523V48.3958C159.41 48.0697 159.471 47.7776 159.56 47.5195C159.65 47.2614 159.768 47.0413 159.915 46.8592C160.065 46.6745 160.245 46.5345 160.457 46.4394C160.669 46.3416 160.914 46.2927 161.191 46.2927C161.468 46.2927 161.714 46.347 161.929 46.4557C162.144 46.5617 162.324 46.7139 162.471 46.9122C162.618 47.1106 162.728 47.3483 162.801 47.6255C162.878 47.8999 162.916 48.2056 162.916 48.5425ZM162.157 48.6281V48.5425C162.157 48.3224 162.134 48.1159 162.088 47.923C162.042 47.7274 161.97 47.5562 161.872 47.4095C161.777 47.26 161.654 47.1432 161.505 47.0589C161.356 46.972 161.178 46.9285 160.971 46.9285C160.781 46.9285 160.615 46.9611 160.474 47.0263C160.335 47.0915 160.217 47.1799 160.119 47.2913C160.021 47.3999 159.941 47.5249 159.878 47.6662C159.819 47.8048 159.774 47.9488 159.744 48.0983V49.1539C159.798 49.3441 159.874 49.5234 159.972 49.6919C160.07 49.8576 160.2 49.9921 160.364 50.0954C160.527 50.1959 160.732 50.2462 160.979 50.2462C161.183 50.2462 161.358 50.2041 161.505 50.1198C161.654 50.0329 161.777 49.9147 161.872 49.7652C161.97 49.6158 162.042 49.4446 162.088 49.2517C162.134 49.0561 162.157 48.8482 162.157 48.6281Z" fill="white"/>
<path d="M166.617 48.8441H165.169L165.161 48.2409H166.343C166.577 48.2409 166.771 48.2178 166.926 48.1716C167.084 48.1254 167.202 48.0561 167.281 47.9638C167.36 47.8714 167.399 47.7572 167.399 47.6214C167.399 47.5154 167.376 47.423 167.33 47.3442C167.286 47.2627 167.22 47.1962 167.13 47.1445C167.041 47.0902 166.929 47.0508 166.796 47.0263C166.665 46.9992 166.512 46.9856 166.335 46.9856H165.369V50.7842H164.615V46.3742H166.335C166.615 46.3742 166.867 46.3987 167.089 46.4476C167.315 46.4965 167.507 46.5712 167.664 46.6717C167.825 46.7696 167.947 46.8945 168.031 47.0467C168.115 47.1989 168.158 47.3782 168.158 47.5847C168.158 47.7179 168.13 47.8442 168.076 47.9638C168.022 48.0833 167.941 48.1893 167.835 48.2817C167.729 48.374 167.599 48.4501 167.444 48.5099C167.289 48.567 167.111 48.6036 166.91 48.6199L166.617 48.8441ZM166.617 50.7842H164.896L165.271 50.1728H166.617C166.826 50.1728 167 50.147 167.138 50.0954C167.277 50.041 167.38 49.965 167.448 49.8671C167.519 49.7666 167.554 49.647 167.554 49.5085C167.554 49.3699 167.519 49.2517 167.448 49.1539C167.38 49.0533 167.277 48.9773 167.138 48.9256C167 48.8713 166.826 48.8441 166.617 48.8441H165.471L165.479 48.2409H166.91L167.183 48.4691C167.425 48.4882 167.63 48.5479 167.799 48.6485C167.967 48.749 168.095 48.8767 168.182 49.0316C168.269 49.1838 168.312 49.3495 168.312 49.5288C168.312 49.7354 168.273 49.9174 168.194 50.075C168.118 50.2326 168.007 50.3644 167.86 50.4703C167.713 50.5736 167.535 50.6524 167.326 50.7067C167.117 50.7584 166.88 50.7842 166.617 50.7842Z" fill="white"/>
<path d="M170.807 49.59L172.841 46.3742H173.599V50.7842H172.841V47.5684L170.807 50.7842H170.057V46.3742H170.807V49.59Z" fill="white"/>
<path d="M177.243 50.2462C177.423 50.2462 177.588 50.2095 177.741 50.1361C177.893 50.0628 178.018 49.9622 178.116 49.8345C178.213 49.7041 178.269 49.556 178.283 49.3903H179C178.987 49.6511 178.898 49.8943 178.735 50.1198C178.575 50.3426 178.364 50.5233 178.103 50.6619C177.842 50.7978 177.556 50.8657 177.243 50.8657C176.912 50.8657 176.622 50.8073 176.375 50.6904C176.13 50.5736 175.926 50.4133 175.763 50.2095C175.603 50.0057 175.482 49.772 175.401 49.5085C175.322 49.2422 175.282 48.961 175.282 48.6648V48.4936C175.282 48.1974 175.322 47.9176 175.401 47.654C175.482 47.3877 175.603 47.1527 175.763 46.9489C175.926 46.7451 176.13 46.5848 176.375 46.468C176.622 46.3511 176.912 46.2927 177.243 46.2927C177.588 46.2927 177.89 46.3633 178.148 46.5046C178.406 46.6432 178.609 46.8334 178.756 47.0752C178.905 47.3144 178.987 47.5861 179 47.8904H178.283C178.269 47.7083 178.218 47.544 178.128 47.3972C178.041 47.2505 177.921 47.1337 177.769 47.0467C177.62 46.957 177.444 46.9122 177.243 46.9122C177.012 46.9122 176.818 46.9584 176.66 47.0508C176.505 47.1405 176.382 47.2627 176.289 47.4176C176.2 47.5698 176.134 47.7396 176.094 47.9271C176.056 48.1118 176.037 48.3007 176.037 48.4936V48.6648C176.037 48.8577 176.056 49.0479 176.094 49.2354C176.132 49.4229 176.195 49.5927 176.285 49.7449C176.378 49.897 176.501 50.0193 176.656 50.1117C176.814 50.2013 177.009 50.2462 177.243 50.2462Z" fill="white"/>
<path d="M2.09893 21.0493C4.54767 12.927 10.7278 6.29192 19.3568 3.88955L2.09893 21.0493Z" fill="url(#paint0_linear_1754_3058)"/>
<path d="M1.04946 27.7988C1.02915 25.7611 1.10365 24.6829 1.39928 22.8797L21.6114 3.05042C23.5556 2.57489 24.5989 2.4457 26.2366 2.51677L1.04946 27.7988Z" fill="url(#paint1_linear_1754_3058)"/>
<path d="M3.03273 26.7951L3.03178 26.7692L29.968 0C32.0441 0.0865032 33.0394 0.178776 33.9326 0.571992L3.49821 30.8876C3.15945 30.2439 3.11374 28.9998 3.03273 26.7951Z" fill="url(#paint2_linear_1754_3058)"/>
<path d="M1.39928 38.8955C0.696261 38.3603 0.435978 37.4482 0 35.6923L31.8337 3.88955C33.6552 4.3539 34.4718 4.60816 34.9821 5.03353L1.39928 38.8955Z" fill="url(#paint3_linear_1754_3058)"/>
<path d="M2.68196 43.0138C2.07266 41.9095 1.79568 41.2829 1.39928 40.1538L40.1128 1.48718C41.6758 1.99592 42.2928 2.33241 42.7948 3.05042L2.68196 43.0138Z" fill="url(#paint4_linear_1754_3058)"/>
<path d="M7.34624 44.1578C6.78279 43.5679 6.37508 43.0208 5.48053 41.641L46.7594 0.571992C47.8179 1.38985 48.3756 1.83422 49.0915 2.51677L7.34624 44.1578Z" fill="url(#paint5_linear_1754_3058)"/>
<path d="M11.4275 45.5306L9.44516 43.357L47.1092 5.83432C48.0457 6.5641 48.5588 6.98708 49.4413 7.77909L11.4275 45.5306Z" fill="url(#paint6_linear_1754_3058)"/>
<path d="M55.738 36.7222C53.2892 44.8445 47.1091 51.4796 38.4802 53.8819L55.738 36.7222Z" fill="url(#paint7_linear_1754_3058)"/>
<path d="M56.7875 29.9727C56.8078 32.0104 56.7333 33.0886 56.4376 34.8918L36.2255 54.7211C34.2814 55.1966 33.238 55.3258 31.6003 55.2547L56.7875 29.9727Z" fill="url(#paint8_linear_1754_3058)"/>
<path d="M54.8042 30.9764L54.8051 31.0023L27.8689 57.7715C25.7928 57.685 24.7975 57.5927 23.9043 57.1995L54.3387 26.8839C54.6775 27.5276 54.7232 28.7717 54.8042 30.9764Z" fill="url(#paint9_linear_1754_3058)"/>
<path d="M56.4376 18.876C57.1407 19.4112 57.4009 20.3232 57.8369 22.0792L26.0032 53.8819C24.1817 53.4176 23.3651 53.1633 22.8548 52.738L56.4376 18.876Z" fill="url(#paint10_linear_1754_3058)"/>
<path d="M55.155 14.7577C55.7643 15.862 56.0412 16.4886 56.4376 17.6176L17.7241 56.2843C16.1611 55.7756 15.5441 55.4391 15.0422 54.7211L55.155 14.7577Z" fill="url(#paint11_linear_1754_3058)"/>
<path d="M50.4907 13.6137C51.0541 14.2036 51.4618 14.7507 52.3564 16.1305L11.0775 57.1995C10.019 56.3816 9.46131 55.9373 8.74538 55.2547L50.4907 13.6137Z" fill="url(#paint12_linear_1754_3058)"/>
<path d="M46.4094 12.2409L48.3918 14.4145L10.7277 51.9372C9.79121 51.2074 9.27814 50.7844 8.39557 49.9924L46.4094 12.2409Z" fill="url(#paint13_linear_1754_3058)"/>
<defs>
<linearGradient id="paint0_linear_1754_3058" x1="38.4803" y1="2.05917" x2="0.735719" y2="40.5324" gradientUnits="userSpaceOnUse">
<stop stop-color="#B2F8E1"/>
<stop offset="0.628125" stop-color="#0ABED3"/>
<stop offset="1" stop-color="#001592"/>
</linearGradient>
<linearGradient id="paint1_linear_1754_3058" x1="38.4803" y1="2.05917" x2="0.735719" y2="40.5324" gradientUnits="userSpaceOnUse">
<stop stop-color="#B2F8E1"/>
<stop offset="0.628125" stop-color="#0ABED3"/>
<stop offset="1" stop-color="#001592"/>
</linearGradient>
<linearGradient id="paint2_linear_1754_3058" x1="38.4803" y1="2.05917" x2="0.735719" y2="40.5324" gradientUnits="userSpaceOnUse">
<stop stop-color="#B2F8E1"/>
<stop offset="0.628125" stop-color="#0ABED3"/>
<stop offset="1" stop-color="#001592"/>
</linearGradient>
<linearGradient id="paint3_linear_1754_3058" x1="38.4803" y1="2.05917" x2="0.735719" y2="40.5324" gradientUnits="userSpaceOnUse">
<stop stop-color="#B2F8E1"/>
<stop offset="0.628125" stop-color="#0ABED3"/>
<stop offset="1" stop-color="#001592"/>
</linearGradient>
<linearGradient id="paint4_linear_1754_3058" x1="38.4803" y1="2.05917" x2="0.735719" y2="40.5324" gradientUnits="userSpaceOnUse">
<stop stop-color="#B2F8E1"/>
<stop offset="0.628125" stop-color="#0ABED3"/>
<stop offset="1" stop-color="#001592"/>
</linearGradient>
<linearGradient id="paint5_linear_1754_3058" x1="38.4803" y1="2.05917" x2="0.735719" y2="40.5324" gradientUnits="userSpaceOnUse">
<stop stop-color="#B2F8E1"/>
<stop offset="0.628125" stop-color="#0ABED3"/>
<stop offset="1" stop-color="#001592"/>
</linearGradient>
<linearGradient id="paint6_linear_1754_3058" x1="38.4803" y1="2.05917" x2="0.735719" y2="40.5324" gradientUnits="userSpaceOnUse">
<stop stop-color="#B2F8E1"/>
<stop offset="0.628125" stop-color="#0ABED3"/>
<stop offset="1" stop-color="#001592"/>
</linearGradient>
<linearGradient id="paint7_linear_1754_3058" x1="51.7734" y1="12.1265" x2="15.6257" y2="48.7389" gradientUnits="userSpaceOnUse">
<stop stop-color="#B2F8E1"/>
<stop offset="0.628125" stop-color="#0ABED3"/>
<stop offset="1" stop-color="#001592"/>
</linearGradient>
<linearGradient id="paint8_linear_1754_3058" x1="51.7734" y1="12.1265" x2="15.6257" y2="48.7389" gradientUnits="userSpaceOnUse">
<stop stop-color="#B2F8E1"/>
<stop offset="0.628125" stop-color="#0ABED3"/>
<stop offset="1" stop-color="#001592"/>
</linearGradient>
<linearGradient id="paint9_linear_1754_3058" x1="51.7734" y1="12.1265" x2="15.6257" y2="48.7389" gradientUnits="userSpaceOnUse">
<stop stop-color="#B2F8E1"/>
<stop offset="0.628125" stop-color="#0ABED3"/>
<stop offset="1" stop-color="#001592"/>
</linearGradient>
<linearGradient id="paint10_linear_1754_3058" x1="51.7734" y1="12.1265" x2="15.6257" y2="48.7389" gradientUnits="userSpaceOnUse">
<stop stop-color="#B2F8E1"/>
<stop offset="0.628125" stop-color="#0ABED3"/>
<stop offset="1" stop-color="#001592"/>
</linearGradient>
<linearGradient id="paint11_linear_1754_3058" x1="51.7734" y1="12.1265" x2="15.6257" y2="48.7389" gradientUnits="userSpaceOnUse">
<stop stop-color="#B2F8E1"/>
<stop offset="0.628125" stop-color="#0ABED3"/>
<stop offset="1" stop-color="#001592"/>
</linearGradient>
<linearGradient id="paint12_linear_1754_3058" x1="51.7734" y1="12.1265" x2="15.6257" y2="48.7389" gradientUnits="userSpaceOnUse">
<stop stop-color="#B2F8E1"/>
<stop offset="0.628125" stop-color="#0ABED3"/>
<stop offset="1" stop-color="#001592"/>
</linearGradient>
<linearGradient id="paint13_linear_1754_3058" x1="51.7734" y1="12.1265" x2="15.6257" y2="48.7389" gradientUnits="userSpaceOnUse">
<stop stop-color="#B2F8E1"/>
<stop offset="0.628125" stop-color="#0ABED3"/>
<stop offset="1" stop-color="#001592"/>
</linearGradient>
</defs>
</svg>
