<svg width="20" height="20" viewBox="0 0 20 20" fill="none" xmlns="http://www.w3.org/2000/svg">
<path d="M5 4.66699V12.5003H13.7929C14.3066 12.5003 14.5635 12.5003 14.6274 12.346C14.6913 12.1917 14.5097 12.01 14.1464 11.6468L11.1162 8.6165C10.9828 8.48317 10.9162 8.4165 10.9162 8.33366C10.9162 8.25082 10.9828 8.18415 11.1162 8.05082L14.1464 5.02055C14.5097 4.65728 14.6913 4.47565 14.6274 4.32132C14.5635 4.16699 14.3066 4.16699 13.7929 4.16699H5.5C5.2643 4.16699 5.14645 4.16699 5.07322 4.24022C5 4.31344 5 4.43129 5 4.66699Z" fill="#7E869E" fill-opacity="0.25"/>
<path d="M5 12.5003V4.66699C5 4.43129 5 4.31344 5.07322 4.24022C5.14645 4.16699 5.2643 4.16699 5.5 4.16699H13.7929C14.3066 4.16699 14.5635 4.16699 14.6274 4.32132C14.6913 4.47565 14.5097 4.65728 14.1464 5.02055L11.1162 8.05082C10.9828 8.18415 10.9162 8.25082 10.9162 8.33366C10.9162 8.4165 10.9828 8.48317 11.1162 8.6165L14.1464 11.6468C14.5097 12.01 14.6913 12.1917 14.6274 12.346C14.5635 12.5003 14.3066 12.5003 13.7929 12.5003H5ZM5 12.5003V15.8337" stroke="white" stroke-width="1.4" stroke-linecap="round"/>
</svg>
