<svg width="56" height="56" viewBox="0 0 56 56" fill="none" xmlns="http://www.w3.org/2000/svg">
<path d="M55.6486 21.0521L54.1899 18.5255C53.888 18.0025 53.2195 17.8232 52.6959 18.1253C52.1728 18.4272 51.9936 19.096 52.2956 19.6192L53.7543 22.1458C53.8313 22.2791 53.8141 22.4059 53.7971 22.4697C53.78 22.5334 53.7313 22.652 53.5981 22.7289L49.7408 24.9559C49.5367 25.0733 49.2753 25.0032 49.1576 24.7996L41.3978 11.3594C41.2801 11.1556 41.3502 10.8939 41.554 10.7762L45.4112 8.54923C45.615 8.43177 45.877 8.50155 45.9946 8.70541L47.3739 11.0946C47.676 11.6179 48.3449 11.797 48.8679 11.4949C49.3911 11.193 49.5703 10.524 49.2682 10.0009L47.8889 7.6117C47.1682 6.36345 45.5663 5.93394 44.3176 6.65481L40.4602 8.88184C39.8743 9.22023 39.4688 9.75276 39.2779 10.3517H28.343C26.8078 10.3517 25.3644 10.9495 24.2787 12.035L23.1582 13.1555C22.1759 12.9213 21.1694 12.8009 20.1573 12.8009H16.762C16.5923 12.1456 16.1709 11.556 15.5399 11.1915L11.6825 8.96452C11.0777 8.6153 10.3729 8.52265 9.69865 8.70334C9.02417 8.88402 8.46035 9.3167 8.11124 9.92141L0.351432 23.3617C0.00231724 23.9664 -0.0905393 24.671 0.0901426 25.3456C0.270824 26.0202 0.703499 26.5839 1.30832 26.933L5.16564 29.1601C5.57633 29.3971 6.02509 29.5098 6.46836 29.5098C6.62991 29.5098 6.79057 29.4942 6.9485 29.4649L10.1056 32.622C10.0573 32.8703 10.0322 33.1247 10.0322 33.3833C10.0322 34.4342 10.4415 35.4224 11.1847 36.1655C11.8963 36.877 12.8148 37.2579 13.7482 37.3095C13.7339 37.4465 13.7262 37.585 13.7262 37.7248C13.7262 38.7758 14.1355 39.7639 14.8786 40.5071C15.6218 41.2502 16.6098 41.6595 17.6608 41.6595C17.6894 41.6595 17.7176 41.658 17.7461 41.6574C17.7454 41.6859 17.744 41.714 17.744 41.7426C17.744 42.7936 18.1532 43.7817 18.8964 44.5248C19.6396 45.268 20.6276 45.6773 21.6785 45.6773C21.7071 45.6773 21.7354 45.6757 21.7638 45.6752C21.7631 45.7036 21.7617 45.7317 21.7617 45.7603C21.7617 46.8113 22.171 47.7994 22.9142 48.5425C23.6573 49.2856 24.6454 49.695 25.6963 49.695C26.7472 49.695 27.7354 49.2858 28.4786 48.5425L30.0344 46.9867C30.4906 46.5306 30.81 45.9889 30.995 45.4132C31.6862 45.9233 32.5075 46.1785 33.3292 46.1783C34.3366 46.1782 35.3445 45.7947 36.1115 45.0278C36.5703 44.5688 36.9014 44.0164 37.088 43.4137C37.7211 43.8276 38.4608 44.0503 39.2349 44.0503C40.2858 44.0503 41.274 43.6411 42.017 42.8979C42.5693 42.3455 42.9368 41.658 43.0893 40.9099C43.4845 41.0407 43.9018 41.1098 44.33 41.1098C45.3809 41.1098 46.3692 40.7005 47.1122 39.9572C48.6463 38.423 48.6463 35.9268 47.1122 34.3927L44.5596 31.84L49.2191 27.1805C49.3226 27.1928 49.4268 27.1997 49.5314 27.1997C49.9748 27.1997 50.4236 27.0871 50.8342 26.8501L54.6915 24.6232C55.2963 24.2739 55.7289 23.7102 55.9097 23.0356C56.0904 22.3611 55.9978 21.6568 55.6486 21.0521ZM2.40193 25.0387C2.26871 24.9618 2.22016 24.8434 2.20309 24.7795C2.18603 24.7158 2.16886 24.5888 2.24586 24.4555L10.0057 11.0151C10.0826 10.8819 10.2011 10.8334 10.2649 10.8163C10.2921 10.8091 10.3308 10.8017 10.3765 10.8017C10.4381 10.8017 10.5124 10.815 10.5887 10.8589L14.446 13.086C14.6498 13.2036 14.7201 13.4652 14.6024 13.6691L6.84252 27.1094C6.72474 27.3132 6.46333 27.3835 6.25935 27.2657L2.40193 25.0387ZM12.2197 33.3832C12.2197 32.9164 12.4014 32.4777 12.7315 32.1477L13.6754 31.2037C14.016 30.863 14.4634 30.6927 14.9109 30.6927C15.3584 30.6927 15.8059 30.8632 16.1464 31.2037C16.4765 31.5339 16.6583 31.9725 16.6583 32.4392C16.6583 32.9059 16.4765 33.3447 16.1464 33.6747L15.2026 34.6185C14.5213 35.2999 13.4128 35.2999 12.7315 34.6185C12.4014 34.2887 12.2197 33.8499 12.2197 33.3832ZM17.6609 39.472C17.1941 39.472 16.7554 39.2902 16.4255 38.9603C16.0953 38.6302 15.9136 38.1915 15.9136 37.7248C15.9136 37.2581 16.0953 36.8193 16.4255 36.4893L17.9813 34.9335C18.3218 34.593 18.7693 34.4227 19.2168 34.4227C19.6643 34.4227 20.1117 34.593 20.4523 34.9335C20.7824 35.2635 20.9642 35.7023 20.9642 36.169C20.9642 36.6357 20.7824 37.0745 20.4523 37.4044L18.8965 38.9603C18.5665 39.2903 18.1276 39.472 17.6609 39.472ZM21.6787 43.4899C21.2119 43.4899 20.7732 43.3081 20.4433 42.9782C20.1131 42.6481 19.9313 42.2093 19.9313 41.7427C19.9313 41.276 20.1131 40.8372 20.4433 40.5071L21.999 38.9513C22.3396 38.6108 22.7871 38.4404 23.2345 38.4404C23.6819 38.4404 24.1295 38.6108 24.47 38.9514C24.8002 39.2814 24.982 39.7201 24.982 40.1869C24.982 40.6536 24.8002 41.0924 24.47 41.4223L22.9143 42.9782C22.5842 43.3081 22.1454 43.4899 21.6787 43.4899ZM28.4878 45.4401L26.9319 46.9961C26.602 47.326 26.1632 47.5078 25.6964 47.5078C25.2296 47.5078 24.791 47.326 24.461 46.9961C24.1309 46.6659 23.9491 46.2272 23.9491 45.7606C23.9491 45.2938 24.1309 44.8551 24.461 44.5249L26.0168 42.9692C26.3573 42.6285 26.8049 42.4582 27.2524 42.4582C27.6997 42.4582 28.1472 42.6286 28.4878 42.9691C29.1691 43.6502 29.1691 44.7589 28.4878 45.4401ZM45.5658 38.4107C45.2356 38.7407 44.797 38.9225 44.3302 38.9225C43.8635 38.9225 43.4249 38.7407 43.0947 38.4107L32.6552 27.9711C32.2281 27.5442 31.5358 27.5441 31.1084 27.9711C30.6812 28.3982 30.6812 29.0908 31.1084 29.5179L40.4706 38.8803C40.8007 39.2102 40.9824 39.649 40.9824 40.1156C40.9824 40.5823 40.8007 41.0212 40.4706 41.3513C40.1406 41.6812 39.7019 41.863 39.2351 41.863C38.7683 41.863 38.3297 41.6812 37.9996 41.3513L26.7496 30.1012C26.3225 29.6742 25.6299 29.6742 25.2027 30.1012C24.7757 30.5283 24.7757 31.2209 25.2027 31.6479L34.565 41.0102C34.895 41.3402 35.0768 41.779 35.0768 42.2456C35.0768 42.7124 34.895 43.1512 34.565 43.4811C33.8837 44.1625 32.7753 44.1627 32.094 43.4811L30.0349 41.4221C30.032 41.4193 30.0288 41.4168 30.026 41.4141C29.2383 40.6312 28.1993 40.2517 27.1672 40.274C27.1679 40.2449 27.1693 40.2161 27.1693 40.1869C27.1693 39.1359 26.7601 38.1477 26.0169 37.4045C25.2282 36.6159 24.1852 36.2339 23.1494 36.2561C23.1501 36.227 23.1515 36.1982 23.1515 36.1692C23.1515 35.118 22.7422 34.1299 21.999 33.3868C21.1365 32.5243 19.9698 32.1468 18.8411 32.2542C18.7959 31.2728 18.3925 30.3565 17.6932 29.6572C16.159 28.123 13.6627 28.1232 12.1286 29.6572L11.1847 30.601C11.1836 30.6021 11.1825 30.6033 11.1814 30.6044L8.7527 28.1757L16.3664 14.9883H20.1572C20.5287 14.9883 20.8991 15.008 21.2674 15.0463L20.0172 16.2965C19.274 17.0397 18.8648 18.0278 18.8648 19.0788C18.8648 20.1298 19.274 21.118 20.0172 21.8612C20.7843 22.6281 21.7919 23.0117 22.7994 23.0117C23.807 23.0117 24.8147 22.6282 25.5817 21.8612L28.5343 18.9086L45.5657 35.9398C46.2469 36.6209 46.2469 37.7295 45.5658 38.4107ZM35.0575 22.338C36.6491 21.1861 37.6248 19.3272 37.6248 17.3077C37.6248 16.7036 37.135 16.2139 36.531 16.2139C35.927 16.2139 35.4373 16.7036 35.4373 17.3077C35.4373 18.7364 34.6827 20.0395 33.4786 20.7591L29.3129 16.5933C28.8856 16.1663 28.1943 16.1551 27.767 16.5822L24.035 20.3143C23.3538 20.9956 22.2452 20.9955 21.564 20.3143C21.2339 19.9843 21.052 19.5456 21.052 19.0788C21.052 18.6121 21.2339 18.1733 21.564 17.8433L25.8253 13.5818C26.4978 12.9094 27.3919 12.539 28.343 12.539H39.553L47.2632 25.8935C47.2815 25.9251 47.3013 25.9552 47.3207 25.9858L43.013 30.2935L35.0575 22.338Z" fill="#2CCAD6"/>
<path d="M50.7825 15.9044C51.0702 15.9044 51.3512 15.7874 51.5557 15.5839C51.7591 15.3794 51.8762 15.0984 51.8762 14.8107C51.8762 14.5219 51.7592 14.2409 51.5557 14.0364C51.3512 13.8329 51.0702 13.7169 50.7825 13.7169C50.4937 13.7169 50.2127 13.8329 50.0092 14.0364C49.8047 14.2409 49.6887 14.5219 49.6887 14.8107C49.6887 15.0984 49.8047 15.3794 50.0092 15.5839C50.2127 15.7875 50.4937 15.9044 50.7825 15.9044Z" fill="#2CCAD6"/>
</svg>
