<svg width="56" height="56" viewBox="0 0 56 56" fill="none" xmlns="http://www.w3.org/2000/svg">
<path d="M28 0C12.9048 0 0 12.8861 0 28C0 43.0951 12.8861 56 28 56C43.0951 56 56 43.1139 56 28C56 12.9048 43.1139 0 28 0ZM28 53.8125C14.0082 53.8125 2.1875 41.9918 2.1875 28C2.1875 14.0082 14.0082 2.1875 28 2.1875C41.9918 2.1875 53.8125 14.0082 53.8125 28C53.8125 41.9918 41.9918 53.8125 28 53.8125Z" fill="#2CCAD6"/>
<path d="M28 6.125C15.9685 6.125 6.125 15.894 6.125 28C6.125 40.0262 15.8851 49.875 28 49.875C40.0263 49.875 49.875 40.1148 49.875 28C49.875 15.9738 40.1149 6.125 28 6.125ZM45.5 29.0927H47.6567C47.4119 33.5695 45.6683 37.7726 42.6663 41.1194L41.1482 39.6013C40.7211 39.1742 40.0286 39.1742 39.6013 39.6013C39.1742 40.0284 39.1742 40.721 39.6013 41.1482L41.1194 42.6663C37.7724 45.6685 33.5706 47.4119 29.0937 47.6567V45.5C29.0937 44.8959 28.6041 44.4062 28 44.4062C27.3959 44.4062 26.9062 44.8959 26.9062 45.5V47.6567C22.4293 47.4119 18.2274 45.6683 14.8806 42.6663L16.3987 41.1482C16.8258 40.7211 16.8258 40.0286 16.3987 39.6013C15.9715 39.1742 15.279 39.1742 14.8518 39.6013L13.3337 41.1194C10.3316 37.7724 8.58802 33.5706 8.34335 29.0937H10.5C11.1041 29.0937 11.5937 28.6041 11.5937 28C11.5937 27.3959 11.1041 26.9062 10.5 26.9062H8.34335C8.58802 22.4293 10.3317 18.2274 13.3337 14.8806L14.8518 16.3987C15.2789 16.8258 15.9714 16.8258 16.3987 16.3987C16.8258 15.9715 16.8258 15.279 16.3987 14.8518L14.8806 13.3337C18.2276 10.3316 22.4294 8.58802 26.9062 8.34335V10.5C26.9062 11.1041 27.3959 11.5937 28 11.5937C28.6041 11.5937 29.0937 11.1041 29.0937 10.5V8.34335C33.5707 8.58802 37.7726 10.3317 41.1194 13.3337L39.6013 14.8518C39.1742 15.2789 39.1742 15.9714 39.6013 16.3987C40.0284 16.8258 40.721 16.8258 41.1482 16.3987L42.6663 14.8806C45.6685 18.2276 47.4119 22.4293 47.6567 26.9062H45.5C44.8959 26.9062 44.4062 27.3959 44.4062 28C44.4062 28.6041 44.8959 29.0927 45.5 29.0927Z" fill="#2CCAD6"/>
<path d="M37.76 20.8682L30.0872 25.4722C29.7912 25.2288 29.4547 25.0382 29.0937 24.9097V19.25C29.0937 18.6459 28.6041 18.1562 28 18.1562C27.3959 18.1562 26.9062 18.6459 26.9062 19.25V24.9069C25.6332 25.3584 24.7188 26.5741 24.7188 28C24.7188 29.8093 26.1907 31.2812 28 31.2812C29.8093 31.2812 31.2812 29.8093 31.2812 28C31.2812 27.7794 31.2588 27.5605 31.2153 27.3463L38.8856 22.7439C39.4036 22.4333 39.5715 21.7614 39.2607 21.2434C38.9497 20.7252 38.2776 20.5576 37.76 20.8682ZM27.9999 29.0937C27.3968 29.0937 26.9061 28.603 26.9061 28C26.9061 27.3969 27.3968 26.9062 27.9999 26.9062C28.6307 26.9062 29.0936 27.4199 29.0936 28C29.0936 28.603 28.6029 29.0937 27.9999 29.0937Z" fill="#2CCAD6"/>
</svg>
