<svg width="56" height="56" viewBox="0 0 56 56" fill="none" xmlns="http://www.w3.org/2000/svg">
<path d="M47.4128 9.86169C47.4086 9.85742 47.4047 9.85315 47.4009 9.84845C47.3953 9.84247 47.3898 9.83606 47.3837 9.83008L47.0218 9.4353L39.8539 1.61029C39.0567 0.73999 37.9988 0.192688 36.841 0.0422974C36.8397 0.0422974 36.8384 0.0422974 36.8372 0.04187C36.8218 0.0401612 36.8064 0.0380249 36.7906 0.0363159C36.594 0.0123901 36.3953 0 36.1955 0H16.3451C14.1167 0 12.3034 1.8128 12.3034 4.04132V6.00708H10.9221C8.94055 6.00708 7.32812 7.61951 7.32812 9.60192V50.506C7.32812 53.5356 9.79248 56 12.8221 56H37.9314C39.913 56 41.5253 54.3875 41.5253 52.406V50.6932H44.6455C46.874 50.6932 48.6872 48.8799 48.6872 46.6518V13.1818C48.6872 11.9513 48.2348 10.7739 47.4128 9.86169ZM45.7055 11.2361H38.2514C37.819 11.2361 37.4674 10.8845 37.4674 10.4521V2.49725C37.7553 2.64593 38.0181 2.84503 38.2407 3.08813L45.1856 10.6688L45.7055 11.2361ZM44.6459 48.5057H16.3451C15.3228 48.5057 14.4909 47.6738 14.4909 46.6518V41.5625C14.4909 40.9584 14.0013 40.4687 13.3972 40.4687C12.7934 40.4687 12.3034 40.9584 12.3034 41.5625V46.6518C12.3034 48.8804 14.1167 50.6932 16.3451 50.6932H39.3378V52.406C39.3378 53.1814 38.7067 53.8125 37.9314 53.8125H12.8221C10.999 53.8125 9.51563 52.3291 9.51563 50.506V9.60192C9.51563 8.82562 10.1467 8.19458 10.9221 8.19458H12.3034V32.8125C12.3034 33.4166 12.7934 33.9062 13.3972 33.9062C14.0013 33.9062 14.4909 33.4166 14.4909 32.8125V4.04132C14.4909 3.01934 15.3228 2.1875 16.3451 2.1875H35.2799V10.4521C35.2799 12.0906 36.6128 13.4237 38.2514 13.4237H46.4997V46.6518C46.4997 47.6738 45.6679 48.5057 44.6459 48.5057Z" fill="#2CCAD6"/>
<path d="M20.3494 15.5848H32.0432C32.6468 15.5848 33.1369 15.0952 33.1369 14.4911C33.1369 13.887 32.6468 13.3973 32.0432 13.3973H20.3494C19.7453 13.3973 19.2557 13.887 19.2557 14.4911C19.2557 15.0952 19.7453 15.5848 20.3494 15.5848Z" fill="#2CCAD6"/>
<path d="M37.497 22.4441H20.3494C19.7453 22.4441 19.2557 22.9337 19.2557 23.5378C19.2557 24.1419 19.7453 24.6316 20.3494 24.6316H37.497C38.1011 24.6316 38.5907 24.1419 38.5907 23.5378C38.5907 22.9337 38.1011 22.4441 37.497 22.4441Z" fill="#2CCAD6"/>
<path d="M37.497 31.4908H20.3494C19.7453 31.4908 19.2557 31.9805 19.2557 32.5846C19.2557 33.1887 19.7453 33.6783 20.3494 33.6783H37.497C38.1011 33.6783 38.5907 33.1887 38.5907 32.5846C38.5907 31.9805 38.1011 31.4908 37.497 31.4908Z" fill="#2CCAD6"/>
<path d="M37.497 40.5377H20.3494C19.7453 40.5377 19.2557 41.0273 19.2557 41.6315C19.2557 42.2356 19.7453 42.7252 20.3494 42.7252H37.497C38.1011 42.7252 38.5907 42.2356 38.5907 41.6315C38.5907 41.0273 38.1011 40.5377 37.497 40.5377Z" fill="#2CCAD6"/>
<path d="M13.3973 36.0948C12.7932 36.0948 12.3035 36.5861 12.3035 37.1899C12.3035 37.794 12.7932 38.2836 13.3973 38.2836C14.001 38.2836 14.491 37.794 14.491 37.1899V37.1873C14.491 36.5832 14.001 36.0948 13.3973 36.0948Z" fill="#2CCAD6"/>
</svg>
