<svg width="56" height="56" viewBox="0 0 56 56" fill="none" xmlns="http://www.w3.org/2000/svg">
<path d="M29.6349 33.1335C28.4796 31.4991 26.6244 30.5005 24.635 30.4249C24.5929 30.4201 24.5503 30.4175 24.507 30.4175C21.9766 30.4175 19.8856 28.5052 19.6005 26.0502C20.3291 25.5196 21.0013 24.8463 21.597 24.0397C22.8018 22.4087 23.5838 20.3705 23.8737 18.1666C23.9626 18.07 24.0374 17.9575 24.0911 17.8295C24.6013 16.6148 24.8599 15.3181 24.8599 13.975C24.8599 8.81026 20.955 4.60852 16.1554 4.60852C14.9141 4.60852 13.7099 4.89049 12.5714 5.44688C12.1458 5.48275 11.7289 5.55932 11.3284 5.67525C7.31586 6.83452 5.04798 11.6861 6.27309 16.4902C6.39634 16.9736 6.55309 17.4489 6.73924 17.9028C6.78999 18.0269 6.86109 18.1358 6.94486 18.231C7.40697 21.624 9.01292 24.4471 11.2093 26.044C10.927 28.5021 8.83453 30.4178 6.30196 30.4178C6.26302 30.4178 6.22452 30.4199 6.18646 30.4235C2.75461 30.5448 0 33.3725 0 36.8334V43.7392C0 44.3836 0.522264 44.9059 1.16659 44.9059H21.7784C22.4226 44.9059 22.945 44.3836 22.945 43.7392C22.945 43.0949 22.4226 42.5727 21.7784 42.5727H2.33308V36.8333C2.33308 34.5817 4.16466 32.7503 6.41604 32.7503C6.45497 32.7503 6.49347 32.7482 6.53154 32.7444C7.37186 32.7182 8.17654 32.5491 8.92225 32.26L14.4453 40.2316C14.6633 40.5461 15.0215 40.7339 15.4042 40.7339C15.787 40.7339 16.1453 40.5462 16.3631 40.2316L21.8863 32.26C22.6322 32.5491 23.4367 32.7182 24.2771 32.7444C24.3151 32.7482 24.3536 32.7503 24.3926 32.7503C25.7165 32.7503 26.964 33.3968 27.7296 34.48C27.9568 34.8016 28.3171 34.9732 28.6832 34.9732C28.916 34.9732 29.151 34.9037 29.3556 34.7593C29.8817 34.3876 30.0067 33.6596 29.6349 33.1335ZM11.9757 7.91623C12.2817 7.82786 12.6054 7.77536 12.9378 7.76038C13.109 7.75271 13.2761 7.70743 13.428 7.6277C14.2948 7.17226 15.2123 6.94127 16.155 6.94127C19.597 6.94127 22.4084 9.97029 22.521 13.7401C21.8195 13.2097 20.9468 12.8944 20.0016 12.8944H13.9007C13.5969 12.8944 13.3084 12.799 13.0668 12.6186C12.8599 12.4643 12.7002 12.2572 12.6048 12.0191C12.3844 11.4707 11.8392 11.1281 11.2504 11.1653C10.658 11.2033 10.1596 11.615 10.0103 12.1892C9.7127 13.3324 9.15707 14.3972 8.40162 15.3014C7.79657 11.9189 9.32015 8.6835 11.9757 7.91623ZM9.23987 17.7958C10.2588 16.8617 11.0834 15.7297 11.6591 14.4796C11.6631 14.4825 11.6671 14.4854 11.6712 14.4884C12.3192 14.972 13.0901 15.2275 13.9007 15.2275H20.0015C20.7342 15.2275 21.3673 15.6563 21.6677 16.2751C21.66 18.6985 20.9694 20.9622 19.7202 22.6532C18.5421 24.248 17.0093 25.1262 15.404 25.1262C13.9183 25.1262 12.472 24.3587 11.3313 22.9653C10.2247 21.6135 9.49242 19.794 9.23987 17.7958ZM15.4041 37.5189L10.9398 31.0754C12.1374 30.0816 13.0104 28.7112 13.3796 27.1479C14.0296 27.3514 14.7075 27.4594 15.404 27.4594C16.0969 27.4594 16.7753 27.3543 17.4297 27.1513C17.7993 28.713 18.6719 30.0822 19.8687 31.0753L15.4041 37.5189Z" fill="#2CCAD6"/>
<path d="M49.8141 36.9092C49.776 36.9055 49.7375 36.9034 49.6986 36.9034C47.1647 36.9034 45.0715 34.986 44.7909 32.5258C46.2195 31.4855 47.3974 29.9255 48.174 28.0284C48.285 28.3921 48.5695 28.6856 48.9439 28.8017C49.0576 28.8368 49.1739 28.8541 49.2891 28.8541C49.6426 28.8541 49.9848 28.693 50.2097 28.4041C51.8373 26.3137 52.6834 23.5931 52.5924 20.7433C52.5029 17.9477 51.5201 15.3233 49.8248 13.3536C48.0892 11.3369 45.7977 10.2146 43.3705 10.1915C43.2417 10.1862 42.9215 10.1973 42.8698 10.2004C41.6227 9.63475 40.3049 9.3705 38.9479 9.41359C36.1451 9.50317 33.5671 10.9001 31.6887 13.3471C29.8635 15.725 28.9156 18.8266 29.0195 22.0806C29.0371 22.632 29.0807 23.1397 29.1511 23.6232C29.3411 25.0099 29.7231 26.338 30.2865 27.5706C30.4658 27.963 30.847 28.2243 31.2775 28.2502C31.7066 28.2761 32.1176 28.0623 32.3427 27.6942C32.4366 27.5408 32.5572 27.3494 32.6903 27.1619C33.2103 28.742 34.0054 30.1613 35.0148 31.282C35.4454 31.7601 35.9104 32.1759 36.4003 32.5307C36.1174 34.9882 34.0252 36.9031 31.4931 36.9031C31.4541 36.9031 31.4156 36.9052 31.3776 36.909C27.9461 37.0305 25.1916 39.8584 25.1916 43.3191V50.225C25.1916 50.8693 25.7139 51.3916 26.3581 51.3916H54.8334C55.4777 51.3916 56 50.8693 56 50.225V43.3191C56.0002 39.8587 53.2456 37.0309 49.8141 36.9092ZM31.7313 24.6778C31.6162 24.2285 31.5261 23.7676 31.4615 23.2968C31.4024 22.8912 31.3665 22.469 31.3518 22.0063C31.2649 19.2897 32.0419 16.719 33.5397 14.7679C34.9843 12.8858 36.9314 11.8126 39.0224 11.7457C39.0923 11.7434 40.596 11.6587 42.131 12.4323C42.3026 12.5186 42.5004 12.5588 42.693 12.5533C42.715 12.5527 43.3139 12.5244 43.3313 12.5246C45.0835 12.5361 46.7615 13.3712 48.0566 14.8758C49.4053 16.443 50.188 18.5532 50.2603 20.8181C50.2996 22.0482 50.1269 23.2439 49.7609 24.3442C49.6506 24.0504 49.5277 23.7611 49.3923 23.4766C48.266 21.0802 46.37 19.2241 44.0535 18.2498C43.7601 18.1265 43.4291 18.1283 43.1372 18.2549C42.8452 18.3815 42.6177 18.6219 42.5074 18.9205C42.352 19.34 42.1639 19.7488 41.9477 20.1352C41.337 21.2275 40.1057 21.8772 38.7365 21.8293C38.5309 21.8223 38.3223 21.822 38.1167 21.8285C37.1079 21.8608 36.1242 22.0531 35.1877 22.4019C34.2625 22.751 32.7079 23.6271 31.7313 24.6778ZM34.6012 25.3127C35.0435 25.0164 35.5141 24.7724 36.0069 24.5861C36.7009 24.3278 37.4357 24.1845 38.1912 24.1603C38.3454 24.1553 38.5016 24.1556 38.6556 24.1608C40.9081 24.2379 42.945 23.1322 43.9841 21.2738C44.0479 21.1596 44.1101 21.0435 44.1701 20.9263C45.2341 21.5818 46.1436 22.5057 46.8274 23.6271C46.8215 23.6616 46.8164 23.6962 46.8136 23.7319C46.6347 25.9453 45.8711 27.9766 44.6636 29.4516C43.5228 30.8452 42.0765 31.6125 40.5909 31.6125C37.8444 31.6123 35.4012 29.0017 34.6012 25.3127ZM38.5718 33.6319C39.2283 33.8371 39.9056 33.9454 40.5909 33.9454C41.2891 33.9454 41.9687 33.8367 42.6203 33.6322C43.0888 35.6188 44.3734 37.2925 46.1003 38.28C45.4267 40.7142 43.1881 42.4645 40.5962 42.4645C38.0041 42.4645 35.7655 40.7141 35.092 38.2798C36.8187 37.2925 38.1033 35.6186 38.5718 33.6319ZM53.6671 49.0588H27.5249V43.3193C27.5249 41.068 29.3566 39.2364 31.6079 39.2364C31.6469 39.2364 31.6854 39.2343 31.7234 39.2305C32.1252 39.2179 32.5189 39.1737 32.902 39.0983C33.9153 42.4251 37.0159 44.7979 40.5961 44.7979C44.1764 44.7979 47.2768 42.4251 48.2904 39.0983C48.6732 39.1738 49.0671 39.218 49.4687 39.2305C49.5068 39.2343 49.5453 39.2364 49.5842 39.2364C51.8356 39.2364 53.6671 41.0679 53.6671 43.3193V49.0588Z" fill="#2CCAD6"/>
</svg>
