<svg width="56" height="56" viewBox="0 0 56 56" fill="none" xmlns="http://www.w3.org/2000/svg">
<path d="M54.1541 31.7844C55.0192 30.7162 56 29.5056 56 28C56 26.4944 55.0192 25.2838 54.1541 24.2157C53.6135 23.5483 53.0544 22.858 52.9297 22.3097C52.7952 21.7184 53.0043 20.827 53.2065 19.9649C53.5149 18.6499 53.8645 17.1596 53.2317 15.8476C52.5882 14.5138 51.1903 13.8544 49.9571 13.2728C49.1681 12.9004 48.3523 12.5156 47.9886 12.0602C47.6206 11.5994 47.4246 10.7141 47.2352 9.8578C46.9419 8.53107 46.6092 7.02739 45.4589 6.10897C44.3142 5.19482 42.7776 5.20291 41.4231 5.21079C40.542 5.21559 39.6319 5.22074 39.0943 4.9613C38.5776 4.71204 38.0246 4.00732 37.4897 3.32604C36.6442 2.24869 35.6858 1.02741 34.2299 0.696437C32.824 0.376843 31.4575 1.04567 30.2519 1.63575C29.4492 2.02852 28.619 2.43484 27.9999 2.43484C27.3809 2.43484 26.5506 2.02852 25.7479 1.63554C24.5422 1.04545 23.1762 0.376734 21.7698 0.696218C20.3139 1.02719 19.3555 2.24836 18.51 3.32592C17.9751 4.00732 17.4222 4.71182 16.9055 4.96107C16.3679 5.22041 15.4584 5.21604 14.5767 5.21057C13.2221 5.20345 11.6857 5.1946 10.5407 6.10875C9.3906 7.02717 9.05789 8.53087 8.76455 9.85758C8.5751 10.7139 8.37922 11.5992 8.01117 12.0601C7.6475 12.5154 6.83167 12.9002 6.04253 13.2726C4.80933 13.8543 3.41152 14.5137 2.76795 15.8474C2.1351 17.1592 2.48478 18.6497 2.7931 19.9648C2.99545 20.827 3.20458 21.7184 3.07015 22.3096C2.94547 22.8579 2.38645 23.5481 1.8457 24.2156C0.980765 25.2838 0 26.4943 0 28C0 29.5057 0.980765 30.7162 1.84603 31.7844C2.38656 32.4518 2.94568 33.1421 3.07048 33.6903C3.2049 34.2816 2.99578 35.173 2.79355 36.0352C2.4851 37.3501 2.13543 38.8405 2.76817 40.1525C3.41173 41.4863 4.80965 42.1457 6.04286 42.7274C6.8319 43.0997 7.64772 43.4846 8.01139 43.9398C8.37933 44.4006 8.5751 45.2859 8.76455 46.1421C9.05789 47.4689 9.3905 48.9727 10.5408 49.8911C11.6856 50.8052 13.2216 50.7969 14.5767 50.7893C15.4577 50.7842 16.368 50.7794 16.9055 51.0387C17.4222 51.2882 17.9752 51.9927 18.5101 52.6742C19.3556 53.7517 20.314 54.9727 21.7699 55.3038C23.1755 55.6233 24.5421 54.9544 25.748 54.3646C26.5506 53.9716 27.3809 53.5653 27.9999 53.5653C28.619 53.5653 29.4492 53.9716 30.252 54.3647C31.2418 54.8491 32.34 55.3867 33.4797 55.3867C33.7281 55.3867 33.9783 55.3611 34.23 55.304C35.6859 54.973 36.6443 53.7518 37.4899 52.6742C38.0248 51.9928 38.5777 51.2883 39.0943 51.0391C39.6319 50.7797 40.5419 50.7846 41.4231 50.7895C42.7771 50.7968 44.3143 50.8055 45.459 49.8914C46.6091 48.9729 46.9419 47.4693 47.2352 46.1426C47.4246 45.2863 47.6205 44.401 47.9886 43.94C48.3521 43.4848 49.168 43.0999 49.9571 42.7276C51.1904 42.1459 52.5883 41.4863 53.2318 40.1527C53.8646 38.8409 53.515 37.3505 53.2066 36.0354C53.0045 35.1732 52.7953 34.2818 52.9297 33.6903C53.0544 33.142 53.6135 32.4518 54.1541 31.7844ZM52.2621 30.2517C51.546 31.1356 50.8056 32.0498 50.5554 33.1507C50.2963 34.2902 50.5707 35.46 50.8362 36.5914C51.063 37.5585 51.2975 38.5586 51.0389 39.0945C50.7699 39.6521 49.8287 40.0961 48.9183 40.5256C47.878 41.0163 46.8022 41.5238 46.0859 42.4208C45.3654 43.3232 45.1073 44.4892 44.8581 45.6165C44.6417 46.5953 44.4177 47.6071 43.9399 47.9887C43.4673 48.3659 42.4354 48.36 41.4365 48.3548C40.2789 48.3488 39.0817 48.3418 38.0364 48.8461C37.011 49.3408 36.2808 50.2713 35.5746 51.171C34.9498 51.9672 34.3038 52.7901 33.6901 52.9297C33.1228 53.0587 32.2073 52.6111 31.3224 52.1779C30.2706 51.6629 29.1829 51.1306 27.9999 51.1306C26.8168 51.1306 25.7293 51.6628 24.6774 52.1776C23.7924 52.6108 22.8768 53.0592 22.3096 52.9297C21.6959 52.79 21.0498 51.9671 20.4251 51.171C19.7189 50.2713 18.9887 49.3409 17.963 48.846C17.0351 48.3982 15.9874 48.3534 14.9539 48.3534C14.8234 48.3534 14.6929 48.3541 14.563 48.3548C13.5647 48.36 12.5321 48.3659 12.0597 47.9887C11.5816 47.6071 11.3578 46.5951 11.1414 45.6164C10.892 44.4891 10.6342 43.3231 9.91364 42.4207C9.19723 41.5236 8.12153 41.0161 7.08127 40.5256C6.17093 40.096 5.22965 39.6521 4.9607 39.0945C4.70203 38.5585 4.93664 37.5583 5.16337 36.5912C5.42872 35.46 5.70325 34.2902 5.44425 33.1506C5.194 32.0496 4.45353 31.1355 3.73745 30.2515C3.09695 29.4608 2.43458 28.6429 2.43458 27.9998C2.43458 27.3567 3.09695 26.5389 3.73767 25.748C4.45375 24.8641 5.1941 23.9502 5.44447 22.8489C5.70358 21.7096 5.42905 20.5397 5.1636 19.4084C4.93675 18.4413 4.70225 17.4413 4.96092 16.905C5.22987 16.3476 6.17105 15.9035 7.08137 15.4742C8.12175 14.9834 9.19757 14.4759 9.91385 13.5788C10.6344 12.6763 10.8924 11.5104 11.1417 10.383C11.3582 9.40432 11.582 8.3925 12.0599 8.01089C12.5326 7.63366 13.564 7.63934 14.5633 7.64482C15.7211 7.65137 16.9182 7.65782 17.9633 7.15361C18.9888 6.65891 19.7191 5.72845 20.4252 4.82862C21.0499 4.0326 21.6959 3.20955 22.3097 3.06999C22.8768 2.94059 23.7925 3.3887 24.6776 3.82194C25.7293 4.33677 26.8169 4.86909 27.9999 4.86909C29.183 4.86909 30.2707 4.33677 31.3224 3.82172C32.2075 3.38859 33.1228 2.94049 33.6902 3.06987C34.3038 3.20944 34.9499 4.03249 35.5746 4.82841C36.2809 5.72834 37.0111 6.6588 38.0367 7.1535C39.0818 7.65772 40.2773 7.65082 41.4367 7.6447C42.4341 7.63934 43.4677 7.63355 43.94 8.01079C44.418 8.39239 44.6419 9.40432 44.8584 10.3829C45.1076 11.5104 45.3657 12.6763 46.0862 13.5788C46.8026 14.4759 47.8784 14.9833 48.9187 15.4742C49.8289 15.9035 50.7702 16.3476 51.0391 16.905C51.2977 17.4412 51.0631 18.441 50.8364 19.4082C50.571 20.5393 50.2966 21.7093 50.5556 22.8487C50.8058 23.9497 51.5462 24.8638 52.2623 25.7477C52.9028 26.5386 53.5652 27.3565 53.5652 27.9995C53.5652 28.6432 52.9028 29.461 52.2621 30.2517Z" fill="#2CCAD6"/>
<path d="M27.9999 8.52161C17.2594 8.52161 8.52157 17.2596 8.52157 27.9999C8.52157 38.7403 17.2594 47.4782 27.9999 47.4782C38.7402 47.4782 47.4781 38.7403 47.4781 27.9999C47.4781 17.2596 38.7402 8.52161 27.9999 8.52161ZM27.9999 45.0434C18.6022 45.0434 10.9564 37.3977 10.9564 27.9999C10.9564 18.6022 18.602 10.9564 27.9999 10.9564C37.3976 10.9564 45.0432 18.6022 45.0432 27.9999C45.0432 37.3977 37.3976 45.0434 27.9999 45.0434Z" fill="#2CCAD6"/>
<path d="M41.3811 29.3344C40.7198 29.2081 40.0827 29.6402 39.956 30.3004C39.5359 32.4891 38.5149 34.5238 37.0038 36.1845C36.5512 36.6819 36.5876 37.4518 37.0848 37.9042C37.3182 38.1165 37.6114 38.2212 37.904 38.2212C38.2347 38.2212 38.5644 38.087 38.8046 37.8231C40.6175 35.8307 41.8425 33.3881 42.3471 30.7594C42.4739 30.0992 42.0412 29.4613 41.3811 29.3344Z" fill="#2CCAD6"/>
<path d="M40.1037 26.1763C40.1113 26.1978 40.1184 26.2192 40.1251 26.2407C40.2857 26.7648 40.7677 27.1015 41.2887 27.1015C41.4068 27.1015 41.5269 27.0841 41.6458 27.0478C42.2886 26.8507 42.6502 26.1699 42.453 25.527C42.4348 25.4671 42.415 25.4075 42.3934 25.348C42.1647 24.7159 41.4668 24.3886 40.8344 24.6174C40.2019 24.8462 39.8748 25.5441 40.1037 26.1763Z" fill="#2CCAD6"/>
<path d="M29.434 32.9792C29.434 33.6234 28.9116 34.1459 28.2673 34.1459H26.6191V35C26.6191 35.6443 26.0968 36.1667 25.4525 36.1667H25.1302C24.4859 36.1667 23.9636 35.6443 23.9636 35V34.1459H23.3333C22.689 34.1459 22.1667 33.6234 22.1667 32.9792V32.7812C22.1667 32.1369 22.689 31.6146 23.3333 31.6146H23.9636V30.8229H23.3333C22.689 30.8229 22.1667 30.3005 22.1667 29.6562V29.4583C22.1667 28.814 22.689 28.2917 23.3333 28.2917H23.9636V22.1667C23.9636 21.5223 24.4859 21 25.1302 21H28.9737C29.9415 21 30.7913 21.2049 31.523 21.6146C32.2547 22.0243 32.8213 22.6112 33.2226 23.375C33.6298 24.1319 33.8333 24.9965 33.8333 25.9687C33.8333 27.4687 33.3996 28.6527 32.5322 29.5209C31.6706 30.3889 30.4696 30.8229 28.9295 30.8229H26.6191V31.6146H28.2673C28.9116 31.6146 29.434 32.1369 29.434 32.7812V32.9792ZM26.6191 28.2917H28.9118C30.3988 28.2917 31.1424 27.5243 31.1424 25.9896C31.1424 25.2604 30.9535 24.6736 30.5759 24.2292C30.1982 23.7778 29.6759 23.5486 29.0091 23.5417H26.6191V28.2917Z" fill="#2CCAD6"/>
</svg>
