<svg width="24" height="24" viewBox="0 0 24 24" fill="none" xmlns="http://www.w3.org/2000/svg">
<path d="M6.813 6.31139C5.33208 8.1442 5.14687 14.0702 6.813 15.7364C7.185 16.1083 7.75261 16.3952 8.4367 16.6026L8.43164 19.5618C8.43153 19.5931 8.441 19.6238 8.45877 19.6496C8.47654 19.6755 8.50177 19.6953 8.53109 19.7064C8.56041 19.7175 8.59243 19.7194 8.62286 19.7118C8.65329 19.7043 8.68069 19.6876 8.7014 19.6641L11.0318 17.0055C13.3665 17.1086 15.9258 16.6488 17.0552 15.7364C18.888 14.2554 18.7214 7.97747 17.0552 6.31135C15.2445 4.5008 8.42231 4.31981 6.813 6.31139V6.31139ZM11.9234 6.65316C14.169 6.8017 15.7024 8.46661 15.8088 10.8739C15.8105 10.8988 15.8071 10.9238 15.799 10.9473C15.7909 10.9709 15.7782 10.9927 15.7615 11.0113C15.7449 11.0299 15.7247 11.045 15.7022 11.0557C15.6796 11.0664 15.6552 11.0725 15.6302 11.0736C15.6053 11.0748 15.5804 11.0709 15.557 11.0623C15.5336 11.0537 15.5121 11.0405 15.4939 11.0234C15.4756 11.0064 15.4609 10.9859 15.4507 10.9632C15.4405 10.9404 15.4349 10.9158 15.4343 10.8909C15.3381 8.65406 13.9724 7.16217 11.8991 7.02727C11.8741 7.02622 11.8496 7.0202 11.827 7.00955C11.8044 6.9989 11.7841 6.98384 11.7674 6.96525C11.7507 6.94667 11.7379 6.92493 11.7297 6.90132C11.7216 6.87771 11.7182 6.8527 11.7198 6.82776C11.7214 6.80283 11.728 6.77847 11.7392 6.75612C11.7504 6.73376 11.7659 6.71387 11.7848 6.6976C11.8038 6.68133 11.8258 6.66902 11.8496 6.66139C11.8734 6.65376 11.8985 6.65096 11.9234 6.65316ZM12.2488 8.30081C12.2241 8.29859 12.2001 8.29148 12.1781 8.2799C12.1562 8.26833 12.1368 8.25251 12.121 8.23336C12.1052 8.21422 12.0933 8.19213 12.0862 8.16839C12.079 8.14464 12.0766 8.1197 12.0791 8.09501C12.0816 8.07033 12.089 8.04639 12.1009 8.02459C12.1127 8.00278 12.1287 7.98354 12.1481 7.96799C12.1674 7.95243 12.1896 7.94087 12.2135 7.93397C12.2373 7.92707 12.2623 7.92496 12.2869 7.92778C13.6068 8.05135 14.5102 9.03403 14.6023 10.4492C14.6037 10.4744 14.6 10.4997 14.5913 10.5234C14.5827 10.5472 14.5693 10.569 14.552 10.5874C14.5348 10.6058 14.5139 10.6206 14.4907 10.6307C14.4676 10.6408 14.4426 10.6462 14.4173 10.6463H14.417C14.3688 10.6468 14.3223 10.6286 14.2871 10.5957C14.2519 10.5628 14.2307 10.5177 14.2279 10.4696C14.1474 9.23377 13.391 8.4052 12.2488 8.30081ZM13.3966 10.4664H13.3939C13.3481 10.467 13.3036 10.4506 13.2691 10.4204C13.2346 10.3901 13.2125 10.3482 13.207 10.3027C13.1464 9.7951 12.8346 9.44869 12.3708 9.37224C12.3257 9.36547 12.2845 9.34251 12.255 9.30764C12.2255 9.27278 12.2097 9.22838 12.2105 9.18272V9.18033C12.2113 9.15364 12.2179 9.12743 12.2296 9.10346C12.2414 9.07949 12.2582 9.05833 12.2788 9.04138C12.2995 9.02443 12.3235 9.0121 12.3493 9.0052C12.3751 8.99831 12.4021 8.99702 12.4284 9.00141C13.0625 9.10299 13.5002 9.58092 13.5798 10.2611C13.5825 10.2869 13.5799 10.3129 13.572 10.3376C13.5641 10.3623 13.5511 10.3851 13.5338 10.4044C13.5166 10.4238 13.4955 10.4393 13.4719 10.45C13.4482 10.4608 13.4227 10.4664 13.3967 10.4666L13.3966 10.4664ZM15.8162 14.3468C15.4881 14.9964 14.7849 15.6526 14.1756 15.4314C13.2378 15.091 11.9327 14.4068 10.9379 13.605C8.8259 11.9074 8.16267 9.65635 7.80047 8.95322C7.51922 8.01202 8.85647 7.28545 8.85647 7.28545C9.14442 7.1311 9.42365 7.18233 9.61115 7.40977C9.78567 7.64986 10.1347 7.96711 10.6496 8.88464C10.8418 9.23189 10.7238 9.58777 10.5318 9.73777C10.2767 9.94519 9.96206 10.1217 9.98639 10.4966C9.98639 10.4966 10.5493 12.6576 12.6525 13.206C13.0228 13.2294 13.1979 12.9022 13.3987 12.6487C13.566 12.418 13.941 12.3711 14.2408 12.5286C14.6465 12.7418 15.3011 13.2103 15.6939 13.5876C15.9165 13.7724 15.9663 14.0498 15.8162 14.3469V14.3468Z" fill="white"/>
<path d="M12 0C5.37259 0 0 5.37259 0 12C0 18.6274 5.37259 24 12 24C18.6274 24 24 18.6274 24 12C24 5.37259 18.6274 0 12 0ZM19.701 11.9709C19.6317 13.281 19.3095 15.6452 17.9308 16.7593C16.4882 17.925 13.7535 18.3403 11.6752 18.3403C11.4196 18.3403 11.0878 18.3333 10.7092 18.3097L9.05616 20.2469C8.64202 20.7322 7.84786 20.4283 7.86341 19.7905L7.91141 17.8287C7.12301 17.5802 6.38021 17.2143 5.84026 16.6745C4.38869 15.2229 4.26586 12.2574 4.28026 11.0498C4.2912 10.1439 4.42987 7.0608 5.7553 5.4205C7.14586 3.6997 10.3756 3.51389 11.6997 3.51389C13.8814 3.51389 16.6888 3.99 18.0251 5.32622C18.6582 5.95934 19.128 6.96106 19.4212 8.30347C19.6673 9.42946 19.7666 10.7319 19.701 11.9709V11.9709Z" fill="white"/>
</svg>
