<svg width="105" height="82" viewBox="0 0 105 82" fill="none" xmlns="http://www.w3.org/2000/svg">
<path d="M105 31.9988C105 62.6029 84.121 82 63.8968 82C43.6726 82 0 63.0874 0 39.7576C0 16.4277 30.7758 0 51 0C92.1032 7.68713e-05 105 8.66892 105 31.9988Z" fill="#2CCAD6"/>
<g clip-path="url(#clip0_1747_2040)">
<path d="M35.1596 55.9517H37.985C38.3822 55.9517 38.7042 55.6317 38.7042 55.2368C38.7042 54.842 38.3822 54.522 37.985 54.522H35.1596C34.7625 54.522 34.4404 54.842 34.4404 55.2368C34.4404 55.6317 34.7625 55.9517 35.1596 55.9517V55.9517Z" fill="white"/>
<path d="M35.1596 58.8228H40.79C41.1872 58.8228 41.5093 58.5028 41.5093 58.1079C41.5093 57.7131 41.1872 57.3931 40.79 57.3931H35.1596C34.7625 57.3931 34.4404 57.7131 34.4404 58.1079C34.4404 58.5028 34.7625 58.8228 35.1596 58.8228V58.8228Z" fill="white"/>
<path d="M44.2304 38.8345H47.0558C47.453 38.8345 47.775 38.5145 47.775 38.1196C47.775 37.7248 47.453 37.4048 47.0558 37.4048H44.2304C43.8333 37.4048 43.5112 37.7248 43.5112 38.1196C43.5112 38.5145 43.8332 38.8345 44.2304 38.8345Z" fill="white"/>
<path d="M44.2304 41.7056H49.8608C50.258 41.7056 50.5801 41.3856 50.5801 40.9907C50.5801 40.5959 50.2581 40.2759 49.8608 40.2759H44.2304C43.8333 40.2759 43.5112 40.5959 43.5112 40.9907C43.5112 41.3856 43.8332 41.7056 44.2304 41.7056Z" fill="white"/>
<path d="M53.3017 55.9517H56.1272C56.5243 55.9517 56.8464 55.6317 56.8464 55.2368C56.8464 54.842 56.5244 54.522 56.1272 54.522H53.3017C52.9046 54.522 52.5825 54.842 52.5825 55.2368C52.5825 55.6317 52.9046 55.9517 53.3017 55.9517V55.9517Z" fill="white"/>
<path d="M58.9321 57.3931H53.3017C52.9046 57.3931 52.5825 57.7131 52.5825 58.1079C52.5825 58.5028 52.9046 58.8228 53.3017 58.8228H58.9321C59.3293 58.8228 59.6513 58.5028 59.6513 58.1079C59.6513 57.7131 59.3294 57.3931 58.9321 57.3931Z" fill="white"/>
<path d="M57.8064 22.856C57.4759 22.9463 57.1463 23.0543 56.827 23.1772C56.4566 23.3196 56.2725 23.7336 56.4159 24.1018C56.577 24.441 56.9218 24.6595 57.3462 24.5104C57.6205 24.4049 57.9036 24.3121 58.1877 24.2344C58.5706 24.1298 58.7958 23.7365 58.6905 23.3558C58.5852 22.9752 58.1892 22.7508 57.8064 22.856V22.856Z" fill="white"/>
<path d="M61.6865 22.5516C61.3479 22.5147 61.0024 22.4942 60.6595 22.4905C60.6568 22.4905 60.6543 22.4905 60.6517 22.4905C60.2581 22.4905 59.9369 22.8054 59.9327 23.1976C59.9284 23.5924 60.2469 23.9158 60.644 23.9201C60.9399 23.9231 61.238 23.9409 61.5298 23.9727C61.5564 23.9755 61.5828 23.9771 61.609 23.9771C61.971 23.9771 62.2826 23.706 62.323 23.34C62.3664 22.9475 62.0814 22.5946 61.6865 22.5516Z" fill="white"/>
<path d="M64.6455 40.6129C64.3841 40.7482 64.113 40.8716 63.8396 40.9801C63.4707 41.1263 63.291 41.5421 63.4381 41.9088C63.5504 42.1886 63.8206 42.359 64.1063 42.359C64.195 42.359 64.2851 42.3426 64.3725 42.3079C64.6904 42.1819 65.0057 42.0382 65.3096 41.881C65.662 41.6986 65.7989 41.2671 65.6154 40.9168C65.432 40.5667 64.9977 40.4306 64.6455 40.6129V40.6129Z" fill="white"/>
<path d="M68.6576 29.129C68.7787 29.3959 68.8874 29.6718 68.9809 29.949C69.3331 30.8542 70.6022 30.3651 70.3447 29.4948C70.2361 29.1724 70.1096 28.8516 69.9686 28.5412C69.8052 28.1812 69.3794 28.0212 69.0173 28.1835C68.6554 28.3458 68.4942 28.7693 68.6576 29.129Z" fill="white"/>
<path d="M65.4058 23.6941C65.1038 23.5337 64.7903 23.3868 64.4739 23.2575C64.1066 23.1075 63.6862 23.2815 63.5352 23.6467C63.3841 24.0117 63.5594 24.4295 63.9267 24.5797C64.1988 24.6909 64.4685 24.8172 64.7283 24.955C65.01 25.119 65.5119 25.0296 65.7015 24.6613C65.8886 24.3132 65.7562 23.8801 65.4058 23.6941V23.6941Z" fill="white"/>
<path d="M68.2888 38.4735C67.9884 38.2152 67.5342 38.2479 67.2743 38.5466C67.0819 38.7679 66.8757 38.9823 66.6616 39.184C66.3732 39.4554 66.361 39.9079 66.6342 40.1945C66.8735 40.4385 67.3302 40.5176 67.6509 40.2218C67.8995 39.9877 68.1388 39.7387 68.3624 39.4817C68.6221 39.1831 68.5892 38.7316 68.2888 38.4735Z" fill="white"/>
<path d="M70.1184 31.6225C69.7216 31.6398 69.414 31.9736 69.4315 32.3681C69.4372 32.4985 69.4402 32.6311 69.4402 32.7624C69.4402 32.9246 69.4357 33.0888 69.4269 33.2503C69.4053 33.6446 69.7095 33.9814 70.1061 34.0028C70.1193 34.0035 70.1325 34.0039 70.1456 34.0039C70.525 34.0039 70.8423 33.7087 70.8631 33.3277C70.8732 33.1405 70.8784 32.9503 70.8784 32.7624C70.8784 32.6103 70.875 32.4566 70.8683 32.3054C70.8511 31.9109 70.5146 31.6058 70.1184 31.6225V31.6225Z" fill="white"/>
<path d="M69.8659 35.2235C69.4907 35.0936 69.081 35.2913 68.9507 35.6644C68.8543 35.9404 68.7426 36.2151 68.6187 36.4805C68.4515 36.8386 68.6082 37.2636 68.9685 37.4298C69.265 37.5798 69.7507 37.4587 69.9235 37.082C70.0676 36.7734 70.1974 36.4542 70.3095 36.133C70.4398 35.7602 70.2412 35.3528 69.8659 35.2235Z" fill="white"/>
<path d="M61.4355 41.5621C61.1429 41.5909 60.8445 41.6054 60.5488 41.6054C60.1516 41.6054 59.8296 41.9254 59.8296 42.3203C59.8296 42.7151 60.1515 43.0351 60.5488 43.0351C60.8916 43.0351 61.2375 43.0183 61.5768 42.985C61.9721 42.9462 62.2609 42.5963 62.2219 42.2033C62.1829 41.8104 61.8315 41.5247 61.4355 41.5621V41.5621Z" fill="white"/>
<path d="M67.3354 27.0488C67.4776 27.2157 67.6804 27.3016 67.8846 27.3016C68.0488 27.3016 68.2139 27.2461 68.349 27.1323C68.6522 26.8772 68.6898 26.4261 68.4331 26.1248C68.2119 25.8652 67.9752 25.6137 67.7294 25.3775C67.4439 25.103 66.9886 25.1106 66.7125 25.3944C66.4364 25.6781 66.4439 26.1307 66.7295 26.4051C66.941 26.6085 67.1449 26.825 67.3354 27.0488Z" fill="white"/>
<path d="M78.4232 29.7886L74.6063 29.2181C74.2634 27.8671 73.7275 26.5813 73.0088 25.3838L75.3027 22.2953C75.8514 21.5564 75.7757 20.5486 75.1226 19.8992L73.4836 18.2691C72.8301 17.6192 71.8164 17.544 71.0731 18.0899L67.9681 20.371C66.7644 19.6563 65.4715 19.1235 64.1134 18.7825L63.5395 14.9859C63.4022 14.0775 62.6319 13.4182 61.7081 13.4182H59.39C58.466 13.4182 57.6957 14.0775 57.5585 14.986L56.9846 18.7825C55.6266 19.1235 54.3337 19.6563 53.13 20.371L50.0249 18.0899C49.2816 17.5437 48.2678 17.6191 47.6145 18.2691L45.9755 19.8992C45.3225 20.5486 45.2467 21.5563 45.7953 22.2953L48.0894 25.384C47.8805 25.7326 47.6863 26.0916 47.5073 26.4573H40.79C40.3928 26.4573 40.0707 26.7773 40.0707 27.1722V36.4796C40.0707 36.8744 40.3928 37.1944 40.79 37.1944C41.1871 37.1944 41.5092 36.8744 41.5092 36.4796V27.8869H46.5408V32.9965C46.6156 33.3411 46.7757 33.841 47.5045 33.6689L49.8609 32.8221L52.2179 33.6689C52.5618 33.7845 53.1288 33.6114 53.1815 32.9965V27.8869H58.2131V43.5744H49.8615H49.8612H41.5092V39.3389C41.5092 38.944 41.1871 38.624 40.79 38.624C40.3928 38.624 40.0707 38.944 40.0707 39.3389V43.5744H31.7192C31.322 43.5744 31 43.8944 31 44.2893V61.4065C31 61.8012 31.3219 62.1212 31.7192 62.1212H36.7508C37.148 62.1212 37.47 61.8012 37.47 61.4064C37.47 61.0115 37.1481 60.6915 36.7508 60.6915H32.4383V45.004H37.4699V50.1138C37.4604 50.5645 37.9468 50.9528 38.4336 50.7859L40.79 49.9392L43.1469 50.786C43.5213 50.9481 44.1315 50.6274 44.1106 50.1137V45.0039H49.1422V60.6915H39.6275C39.2304 60.6915 38.9083 61.0115 38.9083 61.4064C38.9083 61.8012 39.2303 62.1212 39.6275 62.1212H68.0034C68.4006 62.1212 68.7226 61.8012 68.7226 61.4064V45.7081L71.0733 47.4349C71.7782 47.957 72.816 47.9205 73.4837 47.2558L75.1227 45.6257C75.7758 44.9761 75.8515 43.9683 75.3028 43.2296L73.0089 40.141C73.7278 38.9435 74.2635 37.6577 74.6064 36.3067L78.4232 35.7362C79.3369 35.5997 80.0001 34.8338 80.0001 33.9151V31.6097C80 30.6912 79.3369 29.9253 78.4232 29.7886ZM51.7432 31.9782L50.1053 31.3897C49.9473 31.3329 49.7744 31.333 49.6164 31.3898L47.9792 31.9781V27.8893C47.9956 27.8889 48.012 27.8884 48.0283 27.8869H51.7432V31.9782ZM57.0503 45.004H60.8143V49.0954L59.1764 48.5069C59.0184 48.4502 58.8455 48.4502 58.6875 48.507L57.0503 49.0953V45.004ZM42.6722 49.0954L41.0344 48.5069C40.8764 48.4502 40.7034 48.4502 40.5454 48.507L38.9083 49.0953V45.004H42.6722V49.0954ZM67.2842 60.6916H50.5806V45.004H55.6119V50.1138C55.6256 50.5571 56.0495 50.9628 56.5755 50.7861L58.9319 49.9393L61.2889 50.7861C61.6873 50.9429 62.2629 50.6277 62.2525 50.1138V45.004H67.2841V60.6916H67.2842ZM78.5617 33.9151C78.5617 34.1206 78.4135 34.2919 78.2093 34.3224L73.9103 34.965C73.6147 35.0093 73.3774 35.2306 73.3143 35.5209C72.9834 37.0425 72.3853 38.4785 71.5362 39.7889C71.3745 40.0385 71.3848 40.3616 71.5622 40.6004L74.1455 44.0786C74.2682 44.244 74.2513 44.4695 74.1052 44.615L72.4662 46.2452C72.3204 46.3903 72.0942 46.4072 71.9281 46.2852L68.4644 43.7408C68.3395 43.637 68.1788 43.5743 68.0034 43.5743H59.6514V37.6413C59.946 37.6948 60.2456 37.7228 60.549 37.7228C62.0464 37.7228 63.4512 37.0627 64.4032 35.9116C64.6553 35.6066 64.6111 35.1562 64.3043 34.9055C63.9975 34.6549 63.5443 34.699 63.2921 35.0037C62.6143 35.8232 61.6145 36.2932 60.5489 36.2932C60.2432 36.2932 59.943 36.2541 59.6513 36.1782V29.3465C59.9429 29.2706 60.2432 29.2315 60.5489 29.2315C62.5063 29.2315 64.0987 30.8155 64.0987 32.7624C64.0987 33.1572 64.4208 33.4772 64.8179 33.4772C65.2151 33.4772 65.5372 33.1572 65.5372 32.7624C65.5372 30.0271 63.2994 27.8018 60.5489 27.8018C60.2454 27.8018 59.9458 27.8298 59.6513 27.8833V27.1719C59.6513 26.777 59.3294 26.457 58.9321 26.457H54.1385C54.2713 26.4344 54.399 26.3747 54.5052 26.277C54.7213 26.0777 54.9499 25.8869 55.1848 25.7098C55.5011 25.4712 55.5631 25.0228 55.323 24.7083C55.083 24.3938 54.6318 24.3324 54.3155 24.5708C54.043 24.7763 53.7777 24.9977 53.527 25.229C53.2359 25.4975 53.2187 25.9497 53.4889 26.2392C53.6012 26.3595 53.7456 26.4319 53.8967 26.4571H49.1295C49.2666 26.2118 49.4098 25.9703 49.5617 25.7358C49.7235 25.4861 49.7131 25.163 49.5357 24.9242L46.9526 21.4462C46.8297 21.2807 46.8466 21.0551 46.9929 20.9097L48.6319 19.2796C48.7777 19.1344 49.0041 19.1176 49.1699 19.2395L52.6672 21.8086C52.9077 21.9853 53.2331 21.9956 53.4844 21.8346C54.8017 20.9903 56.2455 20.3954 57.7755 20.0663C58.0676 20.0034 58.2902 19.7676 58.3346 19.4738L58.9808 15.1983C59.0114 14.9952 59.1836 14.8477 59.3899 14.8477H61.708C61.9144 14.8477 62.0864 14.9953 62.1171 15.1983L62.7633 19.4738C62.8077 19.7676 63.0303 20.0034 63.3224 20.0663C64.8524 20.3954 66.2962 20.9903 67.6135 21.8346C67.8648 21.9956 68.1902 21.9853 68.4307 21.8086L71.9281 19.2397C72.094 19.1177 72.3203 19.1347 72.4662 19.2798L74.1054 20.9099C74.2515 21.0553 74.2684 21.2809 74.1456 21.4463L71.5623 24.9244C71.3849 25.1633 71.3746 25.4863 71.5363 25.7359C72.3853 27.0462 72.9835 28.4822 73.3144 30.0039C73.3775 30.2943 73.6147 30.5156 73.9103 30.5598L78.2092 31.2023C78.4134 31.233 78.5616 31.4043 78.5616 31.6098V33.9151H78.5617Z" fill="white"/>
</g>
<defs>
<clipPath id="clip0_1747_2040">
<rect width="49" height="48.703" fill="white" transform="translate(31 13.4182)"/>
</clipPath>
</defs>
</svg>
