<svg width="105" height="82" viewBox="0 0 105 82" fill="none" xmlns="http://www.w3.org/2000/svg">
<path d="M105 31.9988C105 62.6029 84.121 82 63.8968 82C43.6726 82 0 63.0874 0 39.7576C0 16.4277 30.7758 0 51 0C92.1032 7.68713e-05 105 8.66892 105 31.9988Z" fill="#2CCAD6"/>
<path d="M75.5698 38.4079L74.3009 33.3631C74.6478 33.2898 74.9081 32.9839 74.9081 32.6174V31.804C74.9081 30.0379 73.4625 28.6012 71.6858 28.6012H65.9061V26.9234C65.9061 26.0544 65.1948 25.3474 64.3205 25.3474H34.859C33.9847 25.3474 33.2734 26.0544 33.2734 26.9234V40.7515C33.2734 41.1726 33.6169 41.5141 34.0407 41.5141C34.4644 41.5141 34.8079 41.1727 34.8079 40.7515V26.9234C34.8079 26.8953 34.8308 26.8726 34.859 26.8726H64.3204C64.3486 26.8726 64.3715 26.8953 64.3715 26.9234V40.7516C64.3715 41.1728 64.715 41.5142 65.1387 41.5142C65.5624 41.5142 65.906 41.1728 65.906 40.7516V39.8872H74.9565C74.9573 39.8872 74.9579 39.8874 74.9586 39.8874C74.9593 39.8874 74.96 39.8873 74.9607 39.8873C76.0744 39.888 77.02 40.6146 77.3448 41.6157H74.9591C74.5354 41.6157 74.1919 41.9571 74.1919 42.3783V44.0051C74.1919 45.3227 75.2703 46.3945 76.5958 46.3945H77.4654V49.7498H75.4593C74.8003 47.8585 72.9914 46.4961 70.8672 46.4961C68.7431 46.4961 66.9341 47.8585 66.2752 49.7498H65.9058V44.005C65.9058 43.5839 65.5623 43.2424 65.1385 43.2424C64.7149 43.2424 64.3713 43.5838 64.3713 44.005V49.7496H48.4532C47.7942 47.8583 45.9853 46.4959 43.8612 46.4959C41.737 46.4959 39.9281 47.8583 39.2691 49.7496H34.859C34.8308 49.7496 34.8079 49.7269 34.8079 49.6988V48.0211H38.1326C38.5562 48.0211 38.8998 47.6797 38.8998 47.2585C38.8998 46.8373 38.5563 46.4959 38.1326 46.4959H30.7673C30.3436 46.4959 30 46.8373 30 47.2585C30 47.6797 30.3435 48.0211 30.7673 48.0211H33.2735V49.6988C33.2735 50.5679 33.9848 51.2748 34.8591 51.2748H39.0035C39.0033 51.2918 39.0021 51.3086 39.0021 51.3256C39.0021 53.9887 41.182 56.1552 43.8612 56.1552C46.5404 56.1552 48.7202 53.9887 48.7202 51.3256C48.7202 51.3085 48.7191 51.2918 48.7189 51.2748H66.0095C66.0094 51.2918 66.0082 51.3086 66.0082 51.3256C66.0082 53.9887 68.188 56.1552 70.8672 56.1552C73.5465 56.1552 75.7263 53.9887 75.7263 51.3256C75.7263 51.3085 75.7251 51.2918 75.7249 51.2748H78.2327C78.6563 51.2748 78.9999 50.9334 78.9999 50.5122V42.3782C79 40.3699 77.5092 38.7014 75.5698 38.4079ZM65.9061 30.1263H71.6858C72.6165 30.1263 73.3737 30.8789 73.3737 31.804V31.8548H65.9061V30.1263ZM65.9061 38.3621V33.3799H72.7235L73.9766 38.3621H65.9061ZM43.8612 54.6303C42.028 54.6303 40.5365 53.148 40.5365 51.3258C40.5365 49.5036 42.028 48.0213 43.8612 48.0213C45.6944 48.0213 47.1858 49.5036 47.1858 51.3258C47.1858 53.148 45.6944 54.6303 43.8612 54.6303ZM70.8674 54.6303C69.0342 54.6303 67.5428 53.148 67.5428 51.3258C67.5428 49.5036 69.0342 48.0213 70.8674 48.0213C72.7006 48.0213 74.1921 49.5036 74.1921 51.3258C74.1921 53.148 72.7006 54.6303 70.8674 54.6303ZM77.4656 44.8693H76.596C76.1166 44.8693 75.7265 44.4816 75.7265 44.005V43.1408H77.4655V44.8693H77.4656Z" fill="white"/>
<path d="M43.861 49.7498C42.9867 49.7498 42.2754 50.4567 42.2754 51.3258C42.2754 52.1948 42.9867 52.9018 43.861 52.9018C44.7353 52.9018 45.4466 52.1948 45.4466 51.3258C45.4466 50.4567 44.7353 49.7498 43.861 49.7498Z" fill="white"/>
<path d="M70.8673 49.7498C69.993 49.7498 69.2817 50.4567 69.2817 51.3258C69.2817 52.1948 69.993 52.9018 70.8673 52.9018C71.7417 52.9018 72.453 52.1948 72.453 51.3258C72.453 50.4567 71.7417 49.7498 70.8673 49.7498Z" fill="white"/>
<path d="M61.8651 46.4961H50.4079C49.9842 46.4961 49.6406 46.8375 49.6406 47.2587C49.6406 47.6799 49.9841 48.0213 50.4079 48.0213H61.8651C62.2887 48.0213 62.6323 47.6799 62.6323 47.2587C62.6323 46.8375 62.2888 46.4961 61.8651 46.4961Z" fill="white"/>
<path d="M42.2245 43.2424H32.404C31.9803 43.2424 31.6367 43.5838 31.6367 44.005C31.6367 44.4262 31.9802 44.7676 32.404 44.7676H42.2245C42.6481 44.7676 42.9917 44.4262 42.9917 44.005C42.9917 43.5838 42.6481 43.2424 42.2245 43.2424Z" fill="white"/>
<path d="M56.679 32.8915C56.3795 32.5938 55.8936 32.5938 55.5941 32.8916L48.7712 39.673L45.2218 36.1452C44.9222 35.8474 44.4364 35.8474 44.1368 36.1452C43.8372 36.443 43.8372 36.9258 44.1368 37.2236L48.2287 41.2907C48.3785 41.4397 48.5749 41.514 48.7712 41.514C48.9675 41.514 49.1639 41.4397 49.3136 41.2907L56.6789 33.97C56.9786 33.6721 56.9786 33.1893 56.679 32.8915Z" fill="white"/>
</svg>
