<svg width="105" height="82" viewBox="0 0 105 82" fill="none" xmlns="http://www.w3.org/2000/svg">
<path d="M105 31.9988C105 62.6029 84.121 82 63.8968 82C43.6726 82 0 63.0874 0 39.7576C0 16.4277 30.7758 0 51 0C92.1032 7.68713e-05 105 8.66892 105 31.9988Z" fill="#2CCAD6"/>
<g clip-path="url(#clip0_1747_2044)">
<path d="M62.3582 53.2168H60.6906V51.8956C60.6906 51.5015 60.3693 51.1821 59.9728 51.1821C59.5763 51.1821 59.255 51.5015 59.255 51.8956V53.2168H58.8311C58.4347 53.2168 58.1133 53.5362 58.1133 53.9302C58.1133 54.3243 58.4347 54.6437 58.8311 54.6437H62.3583C62.7548 54.6437 63.0761 54.3243 63.0761 53.9302C63.0761 53.5363 62.7548 53.2168 62.3582 53.2168Z" fill="white"/>
<path d="M72.1181 58.7912C72.1162 58.778 72.114 58.7649 72.1114 58.7519L70.8064 52.2375C70.729 51.8509 70.3508 51.6002 69.9622 51.6771C69.5734 51.7541 69.3211 52.1297 69.3984 52.5162L70.6992 59.0099C70.7363 59.2844 70.7777 59.9181 70.4493 60.2939C70.2172 60.5597 69.7996 60.6944 69.2082 60.6944H65.6085V53.9699C65.6085 53.5758 65.2872 53.2564 64.8907 53.2564C64.4942 53.2564 64.1729 53.5758 64.1729 53.9699V60.6944H58.1249L56.5183 49.0684L57.0306 47.8909C57.0443 47.8904 57.058 47.8901 57.0717 47.8888C57.08 47.8881 57.0883 47.8867 57.0966 47.8857C57.1106 47.884 57.1246 47.8821 57.1384 47.8795C57.1474 47.8778 57.1563 47.8757 57.1653 47.8737C57.1783 47.8708 57.1913 47.8677 57.2042 47.864C57.2133 47.8614 57.2224 47.8585 57.2314 47.8555C57.2439 47.8514 57.2563 47.8471 57.2685 47.8423C57.2775 47.8388 57.2865 47.8352 57.2953 47.8313C57.3075 47.826 57.3193 47.8202 57.3312 47.8143C57.3397 47.81 57.3483 47.8057 57.3568 47.801C57.3688 47.7943 57.3806 47.787 57.3924 47.7795C57.4001 47.7747 57.4079 47.77 57.4154 47.7648C57.4281 47.756 57.4403 47.7465 57.4525 47.7369C57.4586 47.7321 57.4649 47.7276 57.4709 47.7226C57.4888 47.7074 57.5062 47.6914 57.5229 47.6744L60.72 44.3873L65.9234 45.9129C65.9249 45.9134 65.9262 45.9138 65.9277 45.9142L66.4371 46.0636C67.1217 46.3224 68.2907 46.9908 68.6121 48.5906L68.7316 49.1867C68.809 49.5732 69.1868 49.8244 69.5757 49.7471C69.9645 49.6701 70.2169 49.2945 70.1394 48.908L70.0199 48.3115C69.5588 46.0155 67.8774 45.0747 66.9163 44.7183C66.9005 44.7125 66.8846 44.7072 66.8684 44.7025L66.3299 44.5446C66.3283 44.5441 66.3266 44.5436 66.3249 44.5431L60.8158 42.928L58.9288 41.6595V40.4785C61.9721 38.897 64.0282 35.7307 64.0282 32.0933V31.9615C65.5905 31.6746 66.7664 30.4713 66.7664 29.0344C66.7664 28.6121 66.6643 28.2101 66.4812 27.8455C66.4825 27.8277 66.484 27.8099 66.484 27.7917V23.8146C66.6871 23.3268 66.79 22.811 66.79 22.28C66.79 20.3565 65.3915 18.7044 63.5323 18.3358C63.3084 16.3268 61.5901 14.759 59.5104 14.759C58.9766 14.759 58.4481 14.8644 57.9582 15.0666C57.2017 14.0394 55.9897 13.4182 54.6914 13.4182C54.6776 13.4182 54.6641 13.4185 54.6515 13.4191C54.6375 13.4185 54.6235 13.4182 54.6094 13.4182C53.311 13.4182 52.099 14.0393 51.3424 15.0666C50.8526 14.8644 50.324 14.759 49.7903 14.759C47.7111 14.759 45.9932 16.3257 45.7684 18.3359C43.9088 18.7046 42.5105 20.3565 42.5105 22.28C42.5105 22.8105 42.6132 23.3258 42.8166 23.8145V27.4083C42.4649 27.8767 42.2596 28.435 42.2596 29.0343C42.2596 30.4712 43.4355 31.6745 44.9977 31.9614V31.9688C44.9977 34.589 46.0913 37.129 47.9979 38.9377C48.6302 39.5376 49.3277 40.0381 50.0716 40.4372V41.6767L48.2299 42.9147L42.6747 44.5434C42.6732 44.5437 42.6719 44.5442 42.6703 44.5446L42.1319 44.7025C42.1158 44.7072 42.1 44.7125 42.0843 44.7183C41.123 45.0746 39.4417 46.0154 38.9803 48.3118L36.889 58.7519C36.8864 58.7649 36.8841 58.778 36.8823 58.7912C36.8014 59.3591 36.7697 60.431 37.4671 61.2295C37.9841 61.8212 38.7664 62.1213 39.7923 62.1213H51.5165H57.4987H69.2081C70.234 62.1213 71.0162 61.8213 71.5333 61.2295C72.2307 60.431 72.1991 59.3591 72.1181 58.7912ZM59.3956 43.6957L56.9282 46.2325L55.6464 45.2873L56.598 44.4375L58.2735 42.9415L59.3956 43.6957ZM55.776 47.179L55.2966 48.2807H53.7036L53.2243 47.179L54.5002 46.2397L55.776 47.179ZM51.8113 41.9686L51.5075 41.6972V41.0677C52.0401 41.2447 52.5861 41.3716 53.1421 41.4514C53.1578 41.4536 53.1736 41.4557 53.1894 41.4579C53.3081 41.4744 53.4274 41.4886 53.5471 41.5006C53.5813 41.504 53.6153 41.5077 53.6496 41.5108C53.7548 41.5202 53.8604 41.5274 53.9663 41.5334C54.0067 41.5357 54.0469 41.5389 54.0873 41.5407C54.2252 41.5467 54.3635 41.5504 54.5024 41.5506C54.5031 41.5506 54.5037 41.5506 54.5044 41.5506C54.5077 41.5506 54.5108 41.5508 54.5141 41.5508C54.5818 41.5508 54.6502 41.5474 54.7182 41.546C54.7776 41.5446 54.837 41.5444 54.8961 41.5419C54.9186 41.5411 54.941 41.5415 54.9635 41.5404C55.8449 41.4995 56.6931 41.3408 57.4932 41.0802V41.7201L54.5131 44.3813L51.8113 41.9686ZM64.0283 30.4977V27.5709C64.789 27.7956 65.3308 28.3667 65.3308 29.0342C65.3307 29.7017 64.789 30.273 64.0283 30.4977ZM44.9977 30.4977C44.237 30.273 43.6952 29.7017 43.6952 29.0342C43.6952 28.3668 44.2369 27.7956 44.9977 27.5709V30.4977ZM44.9977 25.9842V26.1074C44.7372 26.1553 44.4877 26.2287 44.2524 26.3244V23.7073C44.2524 23.5784 44.2253 23.4533 44.1727 23.3369C44.0225 23.0028 43.9464 22.6472 43.9464 22.2801C43.9463 20.9402 44.9973 19.8047 46.3396 19.6946C46.8188 19.655 47.1799 19.2628 47.1794 18.781C47.1794 17.35 48.3507 16.1858 49.7904 16.1858C50.241 16.1858 50.6855 16.3023 51.0756 16.5223C51.2897 16.6432 51.5383 16.6734 51.7751 16.608C52.0121 16.5423 52.209 16.3884 52.3295 16.1746C52.7914 15.3544 53.6651 14.845 54.6051 14.8451C54.6201 14.8455 54.6349 14.8454 54.6505 14.846C54.6656 14.8462 54.6812 14.8455 54.6915 14.845C55.6359 14.845 56.5095 15.3543 56.9715 16.1747C57.0919 16.3883 57.2886 16.5422 57.5256 16.6079C57.7624 16.6735 58.0108 16.6432 58.2252 16.5224C58.6153 16.3023 59.0598 16.1858 59.5105 16.1858C60.9501 16.1858 62.1214 17.3503 62.1214 18.7823C62.121 19.2628 62.482 19.6551 62.9619 19.6948C64.3035 19.8048 65.3545 20.9404 65.3545 22.28C65.3545 22.6471 65.2783 23.0028 65.1279 23.3372C65.0751 23.4547 65.0484 23.5793 65.0484 23.7071V26.4495C64.7143 26.2805 64.345 26.1587 63.952 26.0945C63.864 25.8231 63.7143 25.6352 63.581 25.5133C63.1765 25.1435 62.6602 25.1187 62.4586 25.1238C62.4452 25.1238 62.4324 25.124 62.4193 25.1245C62.066 25.1415 61.7084 25.1193 61.3562 25.0599C60.2417 24.8722 59.275 24.341 58.7035 23.6024C58.6971 23.594 58.6904 23.5858 58.6836 23.5777C58.6774 23.5704 58.6711 23.5635 58.6649 23.5565C58.2809 23.0921 57.8572 22.966 57.5676 22.9425C57.0294 22.8985 56.6255 23.1693 56.4806 23.2849C56.4636 23.2977 56.447 23.3113 56.431 23.3258C55.6843 24.0004 54.7211 24.5006 53.6454 24.7721C51.7515 25.2503 49.7978 24.9128 48.6683 23.9121C48.6673 23.9111 48.6663 23.9103 48.6653 23.9094C48.3823 23.6474 47.8593 23.4211 47.2517 23.6003C47.2393 23.6039 47.2272 23.6078 47.2151 23.6121C46.8883 23.7278 46.6236 23.8273 46.3824 23.9252C45.5413 24.2664 44.9977 25.0745 44.9977 25.9842ZM48.989 37.9055C47.3649 36.3647 46.4333 34.2008 46.4333 31.9687V31.3132V26.7554V25.984C46.4333 25.6569 46.6262 25.3674 46.9249 25.2462C47.1398 25.1591 47.3777 25.0695 47.6724 24.9649C47.6848 24.9624 47.6933 24.9631 47.7031 24.969C47.7149 24.9799 47.7269 24.9902 47.7393 25.0001C49.2389 26.3096 51.6334 26.7521 53.9989 26.1551C55.29 25.829 56.4558 25.2237 57.3722 24.4037C57.3791 24.3979 57.3861 24.392 57.3929 24.3858C57.3932 24.3856 57.4384 24.3654 57.4456 24.3637C57.446 24.3639 57.4888 24.3796 57.5603 24.4681C57.5684 24.4781 57.5764 24.4875 57.5845 24.4967C58.3756 25.5044 59.6608 26.2217 61.1163 26.4668C61.5343 26.5372 61.9591 26.5663 62.3802 26.554C62.4211 26.5563 62.4627 26.5553 62.505 26.5502C62.5318 26.5502 62.5659 26.5548 62.591 26.5611C62.5919 26.5711 62.5926 26.5836 62.5926 26.5992V26.7555V31.3133V32.0933C62.5926 35.2812 60.732 38.0416 58.0104 39.3373C57.9665 39.348 57.923 39.3617 57.881 39.3811C57.0167 39.7794 56.1051 40.0189 55.1631 40.0962C55.1469 40.0975 55.1305 40.0984 55.1141 40.0996C55.0115 40.1074 54.9084 40.1131 54.805 40.117C54.7028 40.1207 54.6007 40.1238 54.4991 40.1237C54.4824 40.1237 54.4658 40.1231 54.4492 40.123C54.3315 40.122 54.214 40.119 54.097 40.113C54.0883 40.1125 54.0795 40.1124 54.0708 40.1119C52.1765 40.0084 50.3957 39.24 48.989 37.9055ZM50.7526 42.9414L53.3798 45.2873L52.0978 46.2325L49.6304 43.6957L50.7526 42.9414ZM52.3397 60.6943L52.6253 58.6275C52.6793 58.2371 52.4045 57.8771 52.0118 57.8235C51.6196 57.7704 51.257 58.0428 51.203 58.4332L50.8907 60.6942H44.8533V53.9697C44.8533 53.5756 44.5321 53.2562 44.1356 53.2562C43.7391 53.2562 43.4178 53.5756 43.4178 53.9697V60.6942H39.7925C39.201 60.6942 38.7834 60.5595 38.5512 60.2937C38.2228 59.9179 38.2642 59.2843 38.3013 59.0098L40.3884 48.5907C40.7099 46.9907 41.879 46.3222 42.5637 46.0634L43.0727 45.9142C43.0742 45.9138 43.0756 45.9133 43.0772 45.9128L48.3005 44.3814L51.5034 47.6743C51.52 47.6914 51.5373 47.7073 51.5553 47.7225C51.5614 47.7276 51.5678 47.7321 51.574 47.737C51.586 47.7465 51.5982 47.756 51.6107 47.7647C51.6184 47.77 51.6263 47.7747 51.6342 47.7796C51.6458 47.787 51.6574 47.7943 51.6693 47.8008C51.6778 47.8056 51.6865 47.8099 51.6952 47.8143C51.7069 47.8201 51.7187 47.8259 51.7307 47.8311C51.7397 47.8351 51.7488 47.8388 51.7579 47.8423C51.77 47.847 51.782 47.8513 51.7943 47.8553C51.8036 47.8584 51.8129 47.8613 51.8222 47.864C51.8348 47.8675 51.8474 47.8706 51.86 47.8734C51.8693 47.8755 51.8786 47.8777 51.888 47.8794C51.9013 47.8819 51.9148 47.8836 51.9282 47.8853C51.937 47.8865 51.9458 47.8879 51.9547 47.8886C51.9596 47.8891 51.9645 47.8894 51.9693 47.8897L52.4934 49.0941L51.663 55.1037C51.609 55.4941 51.8838 55.8541 52.2765 55.9077C52.6682 55.9605 53.0314 55.6883 53.0853 55.298L53.8577 49.7075H55.1571L56.6753 60.6942H52.3397V60.6943Z" fill="white"/>
</g>
<defs>
<clipPath id="clip0_1747_2044">
<rect width="49" height="48.703" fill="white" transform="translate(30 13.4182)"/>
</clipPath>
</defs>
</svg>
