<svg width="105" height="82" viewBox="0 0 105 82" fill="none" xmlns="http://www.w3.org/2000/svg">
<path d="M105 31.9988C105 62.6029 84.121 82 63.8968 82C43.6726 82 0 63.0874 0 39.7576C0 16.4277 30.7758 0 51 0C92.1032 7.68713e-05 105 8.66892 105 31.9988Z" fill="#2CCAD6"/>
<g clip-path="url(#clip0_1747_2041)">
<path d="M79.5969 55.7853L78.02 54.2176C77.7396 53.939 77.285 53.939 77.0047 54.2176C76.7243 54.4963 76.7243 54.9478 77.0047 55.2265L78.5819 56.7941C78.5935 56.806 78.6294 56.8413 78.6088 56.9045C78.5882 56.9673 78.5385 56.9751 78.5224 56.9773L74.7515 57.5618C74.0846 57.6651 73.5668 58.1801 73.4629 58.8426L72.8756 62.5892C72.873 62.6056 72.8651 62.6557 72.8016 62.6762C72.7388 62.6966 72.704 62.6624 72.6913 62.6494L65.8186 55.8184C68.2052 54.3399 70.2105 52.3085 71.652 49.9055L74.8966 53.1312C75.0364 53.2705 75.2203 53.34 75.4039 53.34C75.5878 53.34 75.7714 53.2705 75.9115 53.1312C76.1919 52.8525 76.1919 52.4006 75.9115 52.1223L72.3642 48.5954C73.4887 46.2946 74.1201 43.7136 74.1201 40.9885V23.3781C74.1201 21.2906 72.4124 19.5925 70.3137 19.5925C69.9331 19.5925 69.5559 19.649 69.1922 19.7609C68.3353 20.0236 67.4407 20.1566 66.5334 20.1566C63.7965 20.1566 61.2398 18.9397 59.5191 16.818C58.7916 15.9206 57.7097 15.406 56.5515 15.406C55.393 15.406 54.3115 15.9206 53.5844 16.8176C51.8632 18.9397 49.3065 20.1566 46.5696 20.1566C45.6623 20.1566 44.7673 20.0236 43.9109 19.7605C43.5471 19.649 43.1699 19.5925 42.7894 19.5925C40.6903 19.5925 38.9829 21.2906 38.9829 23.3781V31.1024C38.9829 31.4963 39.3041 31.8158 39.7007 31.8158C40.097 31.8158 40.4185 31.4963 40.4185 31.1024V23.3781C40.4185 22.0776 41.482 21.0194 42.7894 21.0194C43.026 21.0194 43.2608 21.0547 43.4877 21.1242C44.4817 21.4288 45.5184 21.5834 46.5696 21.5834C49.7428 21.5834 52.707 20.1729 54.7021 17.7131C55.1552 17.1535 55.8293 16.8328 56.5515 16.8328C57.2734 16.8328 57.9474 17.1535 58.4013 17.7131C60.3961 20.1726 63.3599 21.5834 66.5334 21.5834C67.5843 21.5834 68.6213 21.4288 69.6153 21.1242C69.8419 21.0547 70.0767 21.0194 70.3137 21.0194C71.621 21.0194 72.6846 22.0776 72.6846 23.3781V40.9881C72.6846 43.649 72.0292 46.1604 70.8703 48.3717C70.858 48.3921 70.8471 48.4133 70.8371 48.4345C68.0927 53.6153 62.6593 57.0238 56.5515 57.0238C53.7447 57.0238 51.1032 56.3074 48.8018 55.0496C48.7951 55.0459 48.7887 55.0422 48.7816 55.0384C43.6735 52.2368 40.4185 46.8947 40.4185 40.9881V33.9561C40.4185 33.5618 40.097 33.2427 39.7007 33.2427C39.3041 33.2427 38.9829 33.5618 38.9829 33.9561V40.9881C38.9829 43.7132 39.6143 46.2946 40.7389 48.595L37.159 52.1543C36.8786 52.4333 36.8786 52.8848 37.159 53.1635C37.2992 53.3028 37.4827 53.3723 37.6666 53.3723C37.8502 53.3723 38.0341 53.3028 38.1743 53.1635L41.451 49.9055C42.8925 52.3081 44.8982 54.3399 47.2844 55.8184L40.4117 62.6494C40.399 62.6624 40.3643 62.6966 40.3015 62.6762C40.2379 62.6553 40.2301 62.6056 40.2278 62.5892L39.6401 58.8423C39.5362 58.1801 39.0184 57.6651 38.3515 57.5614L34.581 56.9773C34.5645 56.9751 34.5152 56.9673 34.4946 56.9045C34.4737 56.8413 34.5096 56.806 34.5212 56.7941L36.1462 55.1789C36.4266 54.9002 36.4266 54.4488 36.1462 54.1701C35.8655 53.8914 35.4113 53.8918 35.1313 54.1701L33.5062 55.7853C33.0927 56.1963 32.9484 56.7945 33.1297 57.3467C33.3107 57.8992 33.7821 58.2975 34.3597 58.3874L38.1302 58.9712C38.1777 58.9786 38.2143 59.015 38.2218 59.0622L38.8095 62.8092C38.8996 63.3836 39.3007 63.8526 39.8562 64.0324C40.0147 64.084 40.177 64.1089 40.3377 64.1089C40.74 64.1089 41.1318 63.9521 41.4271 63.6582L48.5809 56.5478C50.9746 57.7639 53.6838 58.4506 56.5515 58.4506C59.4192 58.4506 62.1288 57.7639 64.5222 56.5478L71.6759 63.6582C71.9717 63.9521 72.3634 64.1089 72.7653 64.1089C72.9261 64.1089 73.0883 64.084 73.2472 64.0324C73.8027 63.8526 74.2039 63.3836 74.2939 62.8092L74.8816 59.0622C74.8887 59.015 74.9257 58.9786 74.9728 58.9712L78.7438 58.3871C79.321 58.2975 79.7924 57.8988 79.9737 57.3467C80.1546 56.7945 80.0103 56.1963 79.5969 55.7853V55.7853Z" fill="white"/>
<path d="M41.7998 40.9883C41.7998 49.0734 48.4172 55.6506 56.5515 55.6506C64.6945 55.6506 71.3033 49.0652 71.3033 40.9883V33.9562C71.3033 33.562 70.9818 33.2428 70.5855 33.2428C70.1889 33.2428 69.8677 33.562 69.8677 33.9562V40.9883C69.8677 43.392 69.2195 45.6482 68.0879 47.593L62.8765 42.4125C62.5962 42.1342 62.1416 42.1339 61.8616 42.4125C61.5812 42.6912 61.5812 43.143 61.8612 43.4217L67.2852 48.8129C64.8594 52.0921 60.9513 54.2238 56.5515 54.2238C49.2089 54.2238 43.2354 48.2864 43.2354 40.9887V24.9073L54.2532 35.8591C54.3934 35.9984 54.5769 36.0679 54.7608 36.0679C54.9444 36.0679 55.128 35.9984 55.2682 35.8591C55.5485 35.5804 55.5485 35.1286 55.2685 34.8499L44.5916 24.2377C45.2436 24.3347 45.9046 24.3837 46.5696 24.3837C50.4206 24.3837 54.0289 22.7477 56.5515 19.8773C59.0738 22.7477 62.6822 24.3837 66.5335 24.3837C67.6639 24.3837 68.7829 24.2422 69.8677 23.9627V31.1025C69.8677 31.4964 70.1889 31.816 70.5855 31.816C70.9818 31.816 71.3033 31.4964 71.3033 31.1025V23.3786C71.3033 23.0669 71.1526 22.77 70.8999 22.5849C70.6487 22.4006 70.3205 22.3449 70.0225 22.4363C68.8965 22.7815 67.7226 22.9569 66.5335 22.9569C62.9401 22.9569 59.5838 21.3595 57.3254 18.5749C57.1355 18.3404 56.8532 18.2063 56.5515 18.2063C56.2495 18.2063 55.9672 18.3404 55.7773 18.5749C53.519 21.3595 50.163 22.9569 46.5696 22.9569C45.3804 22.9569 44.2066 22.7815 43.0802 22.4363C42.7823 22.3449 42.4544 22.4006 42.2028 22.5849C42.115 22.6492 42.0398 22.7272 41.9785 22.8142C41.974 22.8205 41.9699 22.8265 41.9658 22.8328C41.8652 22.9821 41.8084 23.1549 41.8006 23.3348C41.8006 23.3389 41.8006 23.3429 41.8002 23.347V23.3537C41.8002 23.3563 41.7998 23.3593 41.7998 23.3623V23.3768V23.3779V40.9883Z" fill="white"/>
<path d="M60.8809 31.9389L54.612 38.7101L52.1865 36.1745C50.9708 34.9037 48.9416 34.8524 47.6631 36.0608C46.3845 37.2688 46.3329 39.2857 47.5483 40.5568L51.9648 45.1744C52.6594 45.9005 53.6359 46.317 54.6442 46.317H54.6741C55.6935 46.3084 56.6737 45.8763 57.3635 45.1309L65.5895 36.2455C66.7839 34.9554 66.6998 32.9396 65.4018 31.752C64.1034 30.5648 62.0754 30.6484 60.8809 31.9389V31.9389ZM64.4298 32.8021C65.1453 33.4568 65.1917 34.5682 64.5334 35.2794L56.307 44.1648C55.8853 44.6208 55.286 44.8849 54.6685 44.8901H54.6442C54.0273 44.8901 53.4303 44.6352 53.0056 44.1912L48.5891 39.5737C47.9188 38.8729 47.9472 37.7611 48.6522 37.0949C48.9932 36.7727 49.4306 36.6133 49.8672 36.6133C50.3338 36.6133 50.8 36.7958 51.1461 37.1577L54.1002 40.2462C54.2356 40.3881 54.4236 40.4684 54.6202 40.4684H54.6262C54.8247 40.4665 55.0143 40.3833 55.1485 40.238L61.9374 32.905C62.5957 32.1938 63.7139 32.1474 64.4298 32.8021V32.8021Z" fill="white"/>
</g>
<defs>
<clipPath id="clip0_1747_2041">
<rect width="49" height="48.703" fill="white" transform="translate(32 15.406)"/>
</clipPath>
</defs>
</svg>
