<svg width="81" height="74" viewBox="0 0 81 74" fill="none" xmlns="http://www.w3.org/2000/svg">
<path d="M81 28.8769C81 56.4953 64.8934 74 49.2918 74C33.6903 74 0 56.9326 0 35.8788C0 14.825 23.7413 0 39.3429 0C71.051 6.93717e-05 81 7.82317 81 28.8769Z" fill="#2CCAD6"/>
<path d="M58.2708 32.5245C58.6951 32.5245 59.0391 32.1806 59.0391 31.7563V21.9203C59.0391 21.7168 58.9581 21.5213 58.8141 21.3773L53.6612 16.2249C53.5172 16.0809 53.3217 16 53.1182 16H30.2503C28.9878 16 27.9609 17.0271 27.9609 18.2899V52.708C27.9609 53.9717 28.9878 55 30.2503 55H56.7477C58.011 55 59.0391 53.9717 59.0391 52.708V38.3222C59.0391 37.8979 58.6951 37.554 58.2708 37.554C57.8468 37.554 57.5028 37.8979 57.5028 38.3222V52.7077C57.5028 53.1246 57.1642 53.4635 56.7477 53.4635H30.2503C29.8352 53.4635 29.4972 53.1246 29.4972 52.7077V18.2899C29.4972 17.8745 29.8349 17.5365 30.2503 17.5365H52.3502V20.3986C52.3502 21.6614 53.3779 22.6885 54.6416 22.6885H57.5031V31.7563C57.5028 32.1806 57.8468 32.5245 58.2708 32.5245ZM53.8862 20.3986V18.6226L56.4165 21.1523H54.6416C54.2251 21.1523 53.8862 20.814 53.8862 20.3986Z" fill="white"/>
<path d="M49.851 26.4873H46.5863C46.162 26.4873 45.8184 26.1433 45.8184 25.7193C45.8184 25.295 46.162 24.951 46.5863 24.951H49.851C50.275 24.951 50.619 25.295 50.619 25.7193C50.619 26.1433 50.275 26.4873 49.851 26.4873Z" fill="white"/>
<path d="M44.8215 25.3304C44.8215 25.8163 44.6832 26.2046 44.4029 26.4983C44.1223 26.7896 43.7837 26.9818 43.3868 27.0767V27.7307C43.3868 28.033 43.13 28.2812 42.8256 28.2812C42.5236 28.2812 42.2775 28.033 42.2775 27.7307V27.0809C42.0293 27.0249 41.805 26.9321 41.6042 26.8048C41.3367 26.6343 41.2376 26.5414 41.054 26.3019C40.547 25.6393 41.3843 24.929 41.8696 25.4405C41.93 25.5033 41.9928 25.5765 42.0639 25.6565C42.2668 25.883 42.5643 25.9199 42.8083 25.9199C43.2677 25.9199 43.4986 25.7297 43.4986 25.3498C43.4986 25.2141 43.4103 25.1082 43.2377 25.0329C43.0627 24.9573 42.8515 24.8904 42.6033 24.832C42.3528 24.7737 42.1046 24.694 41.8568 24.5946C41.6086 24.4952 41.3971 24.3226 41.2221 24.081C41.0474 23.8391 40.9612 23.5306 40.9612 23.1571C40.9612 22.7837 41.082 22.449 41.3149 22.1491C41.5482 21.8533 41.8827 21.6527 42.2861 21.5727L42.2882 21.4474V20.8196C42.2882 20.5173 42.534 20.2712 42.8363 20.2712C43.1383 20.2712 43.3865 20.5173 43.3865 20.8196V21.5813C43.559 21.6182 43.7188 21.67 43.8613 21.739C44.0057 21.8081 44.105 21.864 44.161 21.9074L44.2431 21.9827C44.9658 22.5225 44.269 23.483 43.6453 22.9584C43.2246 22.6022 42.2665 22.5246 42.2665 23.1765C42.2665 23.3125 42.3314 23.4226 42.4584 23.5068C42.5861 23.5907 42.7435 23.6469 42.9291 23.6752C43.1145 23.7031 43.3216 23.7505 43.5439 23.8153C43.7682 23.8802 43.9732 23.9558 44.161 24.0441C44.3466 24.1304 44.504 24.2837 44.6314 24.5062C44.7587 24.7264 44.8215 25.0025 44.8215 25.3304Z" fill="white"/>
<path d="M38.9099 26.4873H35.6452C35.2209 26.4873 34.877 26.1433 34.877 25.7193C34.877 25.295 35.2209 24.951 35.6452 24.951H38.9099C39.3339 24.951 39.6779 25.295 39.6779 25.7193C39.6779 26.1433 39.3339 26.4873 38.9099 26.4873Z" fill="white"/>
<path d="M49.851 23.7139H46.5863C46.162 23.7139 45.8184 23.3699 45.8184 22.9456C45.8184 22.5213 46.162 22.1774 46.5863 22.1774H49.851C50.275 22.1774 50.619 22.5213 50.619 22.9456C50.619 23.3699 50.275 23.7139 49.851 23.7139Z" fill="white"/>
<path d="M38.9099 23.7139H35.6452C35.2209 23.7139 34.877 23.3699 34.877 22.9456C34.877 22.5213 35.2209 22.1774 35.6452 22.1774H38.9099C39.3339 22.1774 39.6779 22.5213 39.6779 22.9456C39.6779 23.3699 39.3339 23.7139 38.9099 23.7139Z" fill="white"/>
<path d="M51.3962 32.3883H42.6638C42.2395 32.3883 41.8955 32.0446 41.8955 31.6203C41.8955 31.196 42.2395 30.8521 42.6638 30.8521H51.3962C51.8205 30.8521 52.1641 31.196 52.1641 31.6203C52.1641 32.0446 51.8205 32.3883 51.3962 32.3883Z" fill="white"/>
<path d="M51.3962 35.2936H42.6638C42.2395 35.2936 41.8955 34.9499 41.8955 34.5256C41.8955 34.1013 42.2395 33.7573 42.6638 33.7573H51.3962C51.8205 33.7573 52.1641 34.1013 52.1641 34.5256C52.1641 34.9499 51.8205 35.2936 51.3962 35.2936Z" fill="white"/>
<path d="M38.9941 35.7642H34.4714C34.0471 35.7642 33.7031 35.4202 33.7031 34.9959V30.882C33.7031 30.4577 34.0471 30.1138 34.4714 30.1138H38.9941C39.4181 30.1138 39.7621 30.4577 39.7621 30.882V34.9959C39.7621 35.4202 39.4181 35.7642 38.9941 35.7642ZM35.2394 34.2279H38.2258V31.6503H35.2394V34.2279Z" fill="white"/>
<path d="M38.9941 42.7747H34.4714C34.0471 42.7747 33.7031 42.4307 33.7031 42.0064V37.8925C33.7031 37.4682 34.0471 37.1243 34.4714 37.1243H38.9941C39.4181 37.1243 39.7621 37.4682 39.7621 37.8925V42.0064C39.7621 42.4307 39.4181 42.7747 38.9941 42.7747ZM35.2394 41.2384H38.2258V38.6608H35.2394V41.2384Z" fill="white"/>
<path d="M38.9941 50.5106H34.4714C34.0471 50.5106 33.7031 50.1666 33.7031 49.7423V45.6261C33.7031 45.2018 34.0471 44.8578 34.4714 44.8578H38.9941C39.4181 44.8578 39.7621 45.2018 39.7621 45.6261V49.7423C39.7621 50.1666 39.4181 50.5106 38.9941 50.5106ZM35.2394 48.974H38.2258V46.3943H35.2394V48.974Z" fill="white"/>
<path d="M51.3444 39.2716H42.612C42.1877 39.2716 41.8438 38.9277 41.8438 38.5034C41.8438 38.0791 42.1877 37.7351 42.612 37.7351H51.3444C51.7687 37.7351 52.1124 38.0791 52.1124 38.5034C52.1124 38.9277 51.7687 39.2716 51.3444 39.2716Z" fill="white"/>
<path d="M51.3444 42.1791H42.612C42.1877 42.1791 41.8438 41.8351 41.8438 41.4108C41.8438 40.9868 42.1877 40.6428 42.612 40.6428H51.3444C51.7687 40.6428 52.1124 40.9868 52.1124 41.4108C52.1124 41.8351 51.7687 42.1791 51.3444 42.1791Z" fill="white"/>
<path d="M51.3465 47.0442H42.612C42.1877 47.0442 41.8438 46.7003 41.8438 46.276C41.8438 45.8517 42.1877 45.5077 42.612 45.5077H51.3465C51.7708 45.5077 52.1148 45.8517 52.1148 46.276C52.1148 46.7003 51.7708 47.0442 51.3465 47.0442Z" fill="white"/>
<path d="M51.3465 49.9492H42.612C42.1877 49.9492 41.8438 49.6055 41.8438 49.1812C41.8438 48.7569 42.1877 48.413 42.612 48.413H51.3465C51.7708 48.413 52.1148 48.7569 52.1148 49.1812C52.1148 49.6055 51.7708 49.9492 51.3465 49.9492Z" fill="white"/>
<path d="M58.2709 35.5654C57.8469 35.5654 57.5029 35.2218 57.5029 34.7975V34.7823C57.5029 34.358 57.8469 34.014 58.2709 34.014C58.6952 34.014 59.0392 34.358 59.0392 34.7823V34.7975C59.0392 35.2218 58.6952 35.5654 58.2709 35.5654Z" fill="white"/>
</svg>
