<svg width="81" height="74" viewBox="0 0 81 74" fill="none" xmlns="http://www.w3.org/2000/svg">
<path d="M81 28.8769C81 56.4953 64.8934 74 49.2918 74C33.6903 74 0 56.9326 0 35.8788C0 14.825 23.7413 0 39.3429 0C71.051 6.93717e-05 81 7.82317 81 28.8769Z" fill="#2CCAD6"/>
<g clip-path="url(#clip0_295_722)">
<path d="M59.6228 27.8643L59.1695 20.0162C59.0698 18.2907 57.6934 16.9144 55.968 16.8147L42.1744 16.0179C41.4893 15.9779 40.8179 16.2339 40.3325 16.7192L22.8553 34.1964C22.5978 34.4539 22.5978 34.8713 22.8553 35.1286C23.1127 35.3861 23.5301 35.3861 23.7875 35.1286L41.2647 17.6515C41.4844 17.4319 41.7881 17.316 42.0983 17.3341L55.892 18.1309C56.949 18.192 57.7922 19.0352 57.8533 20.0922L58.2032 26.1498C57.3909 25.3011 56.4641 24.5404 55.441 23.9922C54.9844 22.0542 53.2195 20.6326 51.1989 20.6326C48.7963 20.6326 46.8417 22.5872 46.8417 24.9898C46.8417 29.1206 52.0695 30.9144 54.6178 27.6915C56.3678 29.034 57.749 31.3022 58.6175 33.32L58.6502 33.8857C58.6681 34.1958 58.5523 34.4997 58.3327 34.7193C39.6515 53.4005 56.2986 36.7534 37.8444 55.2077C37.233 55.8192 36.2381 55.8192 35.6265 55.2077L20.7764 40.3577C20.1649 39.7462 20.1649 38.7512 20.7764 38.1397L21.5317 37.3845C21.7891 37.127 21.7891 36.7096 21.5317 36.4522C21.2742 36.1948 20.8568 36.1948 20.5995 36.4522L19.8442 37.2075C18.7186 38.333 18.7186 40.1645 19.8442 41.29L34.6942 56.1401C35.8223 57.2682 37.6483 57.2683 38.7766 56.1401L48.7333 46.1834C50.8532 49.7675 54.5351 53.2607 58.5244 52.1919C60.8867 51.5589 62.6472 49.4427 63.4814 46.2332C64.9669 40.5178 63.1318 32.7286 59.6228 27.8643ZM51.1989 21.9511C52.2407 21.9511 53.1847 22.4925 53.735 23.3205C51.7144 22.81 49.7002 23.3329 48.1628 24.8627C48.2297 23.2458 49.5659 21.9511 51.1989 21.9511ZM50.2674 27.883C51.1413 26.6445 52.195 26.4162 53.4812 26.9965C52.6794 27.9078 51.4164 28.2519 50.2674 27.883ZM62.2053 45.9015C61.4957 48.6319 60.0672 50.4136 58.1831 50.9184C54.7707 51.8329 51.471 48.3316 49.698 45.2186L50.3764 44.5402C51.0476 45.7581 51.8043 46.8224 52.6328 47.7123C54.0055 49.1869 56.0151 50.544 57.9444 50.0273C59.477 49.6166 60.6646 48.1022 61.2886 45.7631C61.3824 45.4113 61.1733 45.0501 60.8216 44.9562C60.4697 44.8624 60.1086 45.0714 60.0147 45.4232C59.5246 47.2604 58.6457 48.4744 57.6032 48.7537C56.5008 49.0489 55.0033 48.3239 53.5977 46.8139C52.7683 45.9229 52.0134 44.832 51.3498 43.5667C59.8167 35.0998 59.3102 35.6135 59.4164 35.4852C60.1115 37.7134 60.518 40.1888 60.4273 42.5211C60.4132 42.8849 60.6965 43.1913 61.0604 43.2054C61.4239 43.2197 61.7306 42.9363 61.7448 42.5723C61.868 39.4073 61.1397 35.9001 59.8862 32.9362C59.8798 32.9192 59.8728 32.9025 59.8651 32.8863C58.8242 30.4415 57.0898 27.6672 54.8399 26.2378C54.809 26.2147 54.7775 26.1951 54.7441 26.178C52.5826 24.8514 50.5292 25.1491 49.1281 27.213C48.8902 26.9909 48.688 26.7316 48.5316 26.4463C49.9642 24.5159 52.1642 23.8768 54.5364 25.0122C54.5576 25.024 54.5797 25.0347 54.6023 25.0442C56.1084 25.7848 57.4186 27.1041 58.4207 28.4524C58.4367 28.4774 58.4543 28.5012 58.4733 28.5237C61.8143 33.0705 63.5994 40.538 62.2053 45.9015Z" fill="white"/>
<path d="M40.3375 23.3971C39.8646 22.9242 39.0992 22.9241 38.6262 23.3971L23.6302 38.393C23.1584 38.8649 23.1584 39.6325 23.6302 40.1043L35.8794 52.3535C36.3511 52.8252 37.1188 52.8253 37.5907 52.3535L52.5867 37.3576C53.0596 36.8847 53.0596 36.1192 52.5867 35.6463L44.6901 27.7497C44.4326 27.4923 44.0152 27.4923 43.7579 27.7497C43.5004 28.0072 43.5004 28.4246 43.7579 28.6819L51.5778 36.5019L36.7351 51.3447L24.6391 39.2487L39.4818 24.406L41.4211 26.3453C41.6786 26.6027 42.096 26.6027 42.3533 26.3453C42.6108 26.0878 42.6108 25.6704 42.3533 25.4131L40.3375 23.3971Z" fill="white"/>
<path d="M44.6445 31.3399C43.9591 30.6545 42.8439 30.6545 42.1585 31.3399L41.6831 31.8153C40.0065 30.8841 37.8539 31.1565 36.4679 32.5424C34.7648 34.2456 34.7648 37.017 36.4679 38.7201L37.2643 39.5165C37.4255 39.6777 37.5143 39.8918 37.5143 40.1193C37.5143 40.5899 37.1322 40.9722 36.6614 40.9722C36.4339 40.9722 36.2198 40.8833 36.0585 40.7221L35.2623 39.9259C35.0588 39.7224 34.9721 39.4319 35.0302 39.1488C35.2254 38.1994 34.6117 37.2682 33.6623 37.073C32.7105 36.8773 31.782 37.4893 31.5865 38.4409C31.3742 39.4734 31.5429 40.5418 32.0487 41.4496L31.5736 41.9246C30.8882 42.61 30.8882 43.7252 31.5736 44.4106C32.259 45.096 33.3742 45.096 34.0596 44.4106L34.5343 43.936C36.2095 44.8686 38.3623 44.5961 39.7502 43.2081C41.4584 41.4999 41.4588 38.7387 39.7502 37.0304L38.9538 36.2341C38.6216 35.9018 38.6216 35.3607 38.9538 35.0284C39.2863 34.696 39.8272 34.696 40.1596 35.0284L40.9558 35.8247C41.1593 36.0281 41.246 36.3186 41.1879 36.6017C40.9926 37.5511 41.6063 38.4822 42.5561 38.6776C43.5055 38.8723 44.4366 38.2586 44.6316 37.3096C44.8439 36.2771 44.6753 35.2088 44.1694 34.301L44.6445 33.8259C45.3299 33.1405 45.3299 32.0253 44.6445 31.3399ZM43.7123 32.8937L42.8612 33.7447C42.6296 33.9763 42.6031 34.3429 42.7991 34.6053C43.3187 35.301 43.5159 36.1899 43.3403 37.0442C43.2915 37.2814 43.0589 37.4347 42.8214 37.3862C42.584 37.3373 42.4305 37.1045 42.4793 36.8672C42.627 36.1486 42.4061 35.4103 41.8881 34.8925L41.0919 34.0962C40.2455 33.2497 38.8681 33.2497 38.0216 34.0962C37.1752 34.9426 37.1752 36.32 38.0216 37.1664L38.818 37.9628C40.011 39.1557 40.0111 41.0827 38.818 42.2759C37.7523 43.3417 36.042 43.4663 34.8394 42.5661C34.577 42.3695 34.2101 42.3957 33.9782 42.6277L33.1274 43.4785C32.8531 43.7528 32.3772 43.5605 32.3772 43.1677C32.3772 43.0504 32.4229 42.94 32.5058 42.8569L33.3569 42.0058C33.5885 41.7742 33.615 41.4077 33.419 41.1453C32.8994 40.4496 32.7022 39.5607 32.8778 38.7064C32.921 38.4955 33.1065 38.3552 33.3072 38.3552C33.5876 38.3552 33.7944 38.6124 33.7388 38.8833C33.5911 39.6019 33.812 40.3401 34.33 40.858L35.1262 41.6543C35.9751 42.5031 37.3474 42.5033 38.1964 41.6543C39.0453 40.8054 39.0454 39.4331 38.1964 38.5841L37.4001 37.7878C36.2109 36.5987 36.2109 34.6638 37.4001 33.4746C38.4639 32.4107 40.1745 32.2864 41.3791 33.1854C41.6415 33.3812 42.008 33.3547 42.2395 33.1231L43.0907 32.272C43.1737 32.189 43.2841 32.1433 43.4015 32.1433C43.7927 32.1434 43.9874 32.6185 43.7123 32.8937Z" fill="white"/>
</g>
<defs>
<clipPath id="clip0_295_722">
<rect width="45" height="45" fill="white" transform="translate(19 14)"/>
</clipPath>
</defs>
</svg>
