<svg width="81" height="74" viewBox="0 0 81 74" fill="none" xmlns="http://www.w3.org/2000/svg">
<path d="M81 28.8769C81 56.4953 64.8934 74 49.2918 74C33.6903 74 0 56.9326 0 35.8788C0 14.825 23.7413 0 39.3429 0C71.051 6.93717e-05 81 7.82317 81 28.8769Z" fill="#2CCAD6"/>
<g clip-path="url(#clip0_295_795)">
<path d="M35.881 60.7852C36.1675 61.0713 36.6315 61.0713 36.918 60.7852L40.5846 57.1186L39.5477 56.0816L36.3995 59.2297L22.77 45.6002L31.0514 37.3188L30.0145 36.2819L21.2146 45.0817C20.9285 45.3682 20.9285 45.8323 21.2146 46.1187L35.881 60.7852Z" fill="white"/>
<path d="M64.9955 32.3199L63.5288 19.12C63.4909 18.7788 63.2216 18.5092 62.8804 18.4716L49.6806 17.0049C49.4596 16.9817 49.2394 17.059 49.0815 17.2155L43.9482 22.3487L44.9852 23.3857L49.8693 18.5017L62.1399 19.8641L63.5023 32.1312L60.6249 35.009L59.2313 25.6362C60.2317 25.2387 60.8004 24.1788 60.578 23.1257C60.356 22.0727 59.4075 21.3329 58.3318 21.3734C57.2566 21.4142 56.3668 22.2234 56.2246 23.2905C56.0824 24.3571 56.7295 25.3712 57.7568 25.692L58.8911 33.3185L48.6518 23.0821C48.3654 22.7956 47.9013 22.7956 47.6149 23.0821L43.9482 26.7487L44.9852 27.7856L48.1333 24.6375L57.3629 33.8671L55.6814 35.5486L56.7184 36.5855L58.9183 34.3856C58.9599 34.3383 58.995 34.2857 59.0225 34.2294L59.3305 36.2994L57.8814 37.7485L58.9183 38.7855L59.5987 38.1048L60.0645 41.2304C60.1752 42.1327 60.7713 42.9018 61.6175 43.2341C62.4639 43.5664 63.4239 43.4085 64.1193 42.8227C64.8143 42.2369 65.133 41.3178 64.9493 40.4272L63.5997 34.1038L64.7849 32.9189C64.9425 32.7614 65.0198 32.5411 64.9955 32.3199ZM58.3999 22.8672C58.8048 22.8672 59.1332 23.1956 59.1332 23.6005C59.1332 24.0055 58.8048 24.3339 58.3999 24.3339C57.9949 24.3339 57.6665 24.0055 57.6665 23.6005C57.6665 23.1956 57.9949 22.8672 58.3999 22.8672ZM63.5134 40.7252C63.5836 41.0886 63.4497 41.4617 63.1636 41.6973C62.8779 41.9329 62.4858 41.9931 62.1424 41.8541C61.799 41.7152 61.5591 41.3998 61.5172 41.0317L60.8931 36.8143L62.368 35.3394L63.5134 40.7252Z" fill="white"/>
<path d="M26.3486 45.5219L31.1149 40.7556L32.1519 41.7926L27.3856 46.5589L26.3486 45.5219Z" fill="white"/>
<path d="M28.6211 47.7949L33.3874 43.0286L34.4247 44.0655L29.6581 48.8319L28.6211 47.7949Z" fill="white"/>
<path d="M30.8945 50.0679L33.6811 47.2814L34.7184 48.3184L31.9315 51.1049L30.8945 50.0679Z" fill="white"/>
<path d="M33.168 52.3416L35.1485 50.3615L36.1854 51.3984L34.2053 53.3789L33.168 52.3416Z" fill="white"/>
<path d="M35.4414 54.615L36.9081 53.1487L37.9451 54.1857L36.4787 55.652L35.4414 54.615Z" fill="white"/>
<path d="M47.3998 57.3335C49.8981 57.3325 52.3301 56.529 54.337 55.0412L59.6257 60.3298C60.5198 61.2236 61.9689 61.2236 62.8626 60.3298C63.7564 59.4361 63.7564 57.9866 62.8626 57.0929L57.4515 51.6818L57.3577 51.7756C60.1653 47.2342 59.5487 41.3694 55.8588 37.5109C52.1686 33.652 46.3371 32.7747 41.675 35.3768C37.0126 37.9789 34.6981 43.4029 36.0455 48.5694C37.3925 53.7357 42.0607 57.3389 47.3998 57.3335ZM61.8257 58.1299C62.1469 58.4511 62.1469 58.9717 61.8257 59.2929C61.5045 59.6141 60.9839 59.6141 60.6627 59.2929L55.4664 54.0973C55.8656 53.7195 56.2377 53.3146 56.5803 52.8852L61.8257 58.1299ZM47.3998 35.3338C53.0698 35.3338 57.6663 39.9303 57.6663 45.6003C57.6663 51.2704 53.0698 55.8669 47.3998 55.8669C41.7298 55.8669 37.1333 51.2704 37.1333 45.6003C37.1394 39.9328 41.7323 35.3399 47.3998 35.3338Z" fill="white"/>
<path d="M47.3995 54.4002C52.2596 54.4002 56.1994 50.4604 56.1994 45.6003C56.1994 40.7402 52.2596 36.8004 47.3995 36.8004C42.5394 36.8004 38.5996 40.7402 38.5996 45.6003C38.605 50.4582 42.5416 54.3948 47.3995 54.4002ZM47.3995 38.2671C51.4496 38.2671 54.7327 41.5502 54.7327 45.6003C54.7327 49.6504 51.4496 52.9335 47.3995 52.9335C43.3494 52.9335 40.0663 49.6504 40.0663 45.6003C40.0706 41.552 43.3512 38.2714 47.3995 38.2671Z" fill="white"/>
<path d="M48.1334 48.5335H46.6668C46.2618 48.5335 45.9334 48.2052 45.9334 47.8002H44.4668C44.4668 49.0151 45.4518 50.0002 46.6668 50.0002V51.4668H48.1334V50.0002C49.3483 50.0002 50.3334 49.0151 50.3334 47.8002V47.0669C50.3334 45.8519 49.3483 44.8669 48.1334 44.8669H46.6668C46.2618 44.8669 45.9334 44.5386 45.9334 44.1336V43.4003C45.9334 42.9953 46.2618 42.6669 46.6668 42.6669H48.1334C48.5384 42.6669 48.8667 42.9953 48.8667 43.4003H50.3334C50.3334 42.1853 49.3483 41.2003 48.1334 41.2003V39.7336H46.6668V41.2003C45.4518 41.2003 44.4668 42.1853 44.4668 43.4003V44.1336C44.4668 45.3485 45.4518 46.3336 46.6668 46.3336H48.1334C48.5384 46.3336 48.8667 46.6619 48.8667 47.0669V47.8002C48.8667 48.2052 48.5384 48.5335 48.1334 48.5335Z" fill="white"/>
<path d="M24.6666 34.6004H29.5653L34.507 38.1299C34.6313 38.219 34.7802 38.267 34.9331 38.267C35.0742 38.2666 35.2124 38.2258 35.3313 38.1495C35.5852 37.9856 35.7123 37.683 35.6518 37.3869L35.0946 34.6004H39.3331C41.3572 34.5979 42.9972 32.9576 42.9997 30.9338V20.6672C42.9972 18.6431 41.3572 17.0031 39.3331 17.0006H24.6666C22.6425 17.0031 21.0025 18.6431 21 20.6672V30.9338C21.0025 32.9576 22.6425 34.5979 24.6666 34.6004ZM22.4666 20.6672C22.4666 19.4523 23.4517 18.4673 24.6666 18.4673H39.3331C40.548 18.4673 41.5331 19.4523 41.5331 20.6672V30.9338C41.5331 32.1487 40.548 33.1337 39.3331 33.1337H34.1998C33.9796 33.1337 33.7709 33.2326 33.6316 33.403C33.4923 33.5738 33.4371 33.7979 33.4812 34.0135L33.8478 35.8622L30.2238 33.2737C30.1007 33.1839 29.9524 33.1348 29.7999 33.1337H24.6666C23.4517 33.1337 22.4666 32.1487 22.4666 30.9338V20.6672Z" fill="white"/>
<path d="M24.6669 31.6671H40.0667V30.2004H25.4002V28.2447L26.8669 26.2896L28.4803 28.4405C28.6275 28.6249 28.8506 28.7327 29.0866 28.7338C29.3247 28.7273 29.5449 28.6056 29.677 28.4072L32.0653 24.8244L35.1028 28.4706C35.2428 28.6371 35.4491 28.7334 35.6668 28.7338C35.6897 28.7352 35.7126 28.7352 35.7359 28.7338C35.9765 28.7109 36.1903 28.5712 36.3077 28.3596L39.9743 21.7597L38.6924 21.0486L35.545 26.7129L32.5641 23.134C32.4177 22.9528 32.1932 22.8532 31.9604 22.8672C31.7298 22.8797 31.5182 23.0004 31.39 23.1927L29.0318 26.7318L27.4534 24.6271C27.3091 24.4517 27.0939 24.35 26.8669 24.35C26.6399 24.35 26.4247 24.4517 26.2804 24.6271L25.4002 25.8005V20.6672H23.9336V30.9338C23.9336 31.3387 24.2619 31.6671 24.6669 31.6671Z" fill="white"/>
</g>
<defs>
<clipPath id="clip0_295_795">
<rect width="44" height="44" fill="white" transform="translate(21 17)"/>
</clipPath>
</defs>
</svg>
