<svg width="81" height="74" viewBox="0 0 81 74" fill="none" xmlns="http://www.w3.org/2000/svg">
<path d="M81 28.8769C81 56.4953 64.8934 74 49.2918 74C33.6903 74 0 56.9326 0 35.8788C0 14.825 23.7413 0 39.3429 0C71.051 6.93717e-05 81 7.82317 81 28.8769Z" fill="#2CCAD6"/>
<g clip-path="url(#clip0_295_723)">
<path d="M60.6942 20L47.2504 20.333V17C47.2504 15.3431 45.9073 14 44.2504 14H38.2504C36.5936 14 35.2504 15.3431 35.2504 17V20.6345L33.6927 20.675C32.4706 20.7016 31.4952 21.7026 31.5004 22.925V23.825C31.4952 25.0477 32.471 26.0488 33.6934 26.075L35.2504 26.1155C35.2504 29.9405 35.1229 30.3155 35.6674 31.25H30.0004C29.172 31.25 28.5004 31.9216 28.5004 32.75H19.5004C19.0454 32.7586 18.618 32.97 18.3349 33.3263C18.0519 33.6827 17.9427 34.1468 18.0372 34.592C18.8869 39.6215 22.8889 40.2057 28.5004 40.2462C28.5037 41.0739 29.1728 41.7447 30.0004 41.75H34.8349C36.3574 46.1052 35.9434 48.644 34.0099 53H32.2504V50C32.2504 49.5858 31.9146 49.25 31.5004 49.25C31.0862 49.25 30.7504 49.5858 30.7504 50V53H30.0004C29.172 53 28.5004 53.6716 28.5004 54.5V57.5C28.5004 58.3284 29.172 59 30.0004 59H61.5004C62.3289 59 63.0004 58.3284 63.0004 57.5V54.5C63.0004 53.6716 62.3289 53 61.5004 53H60.7504V50C60.7504 49.5858 60.4146 49.25 60.0004 49.25C59.5862 49.25 59.2504 49.5858 59.2504 50V53H57.4887C55.5574 48.644 55.1434 46.1052 56.6637 41.75H61.5004C62.3289 41.75 63.0004 41.0784 63.0004 40.25V32.75C63.0004 31.9216 62.3289 31.25 61.5004 31.25H46.8334C47.3697 30.3297 47.2504 29.939 47.2504 26.417C65.3179 26.867 59.6112 26.7507 60.7549 26.7507C61.9961 26.7483 63.0008 25.7412 63.0004 24.5V22.25C63.0006 21.6434 62.7559 21.0624 62.3217 20.6388C61.8875 20.2152 61.3006 19.9848 60.6942 20ZM33.7339 24.575C33.3262 24.566 33.0003 24.2329 33.0004 23.825V22.925C33.0003 22.5174 33.3257 22.1844 33.7332 22.175L35.2504 22.1352V24.6147L33.7339 24.575ZM19.5162 34.3415C19.5079 34.292 19.5162 34.2575 19.5102 34.25H28.5004V38.7432C21.9792 38.675 20.0862 37.7157 19.5162 34.3415ZM61.5004 57.5H30.0004V54.5H61.5004V57.5ZM55.8499 53H35.6502C37.3542 49.0017 37.8394 46.1187 36.4212 41.75H55.0797C53.6614 46.1187 54.1504 49.0017 55.8507 53H55.8499ZM61.5004 40.25H30.0004V32.75H61.5004V40.25ZM38.2504 31.25C37.422 31.25 36.7504 30.5784 36.7504 29.75V17C36.7504 16.1716 37.422 15.5 38.2504 15.5H44.2504C45.0789 15.5 45.7504 16.1716 45.7504 17V29.75C45.7504 30.5784 45.0789 31.25 44.2504 31.25H38.2504ZM61.5004 24.5C61.5005 24.7022 61.4189 24.8959 61.2742 25.0371C61.1294 25.1783 60.9338 25.2551 60.7317 25.25L60.0004 25.232V23.75C60.0004 23.3358 59.6646 23 59.2504 23C58.8362 23 58.5004 23.3358 58.5004 23.75V25.1945L57.0004 25.1577V23.75C57.0004 23.3358 56.6646 23 56.2504 23C55.8362 23 55.5004 23.3358 55.5004 23.75V25.1202L47.2504 24.9155V21.8345L60.7332 21.5C60.9351 21.4954 61.1303 21.5723 61.2747 21.7135C61.4191 21.8546 61.5005 22.0481 61.5004 22.25V24.5Z" fill="white"/>
<path d="M29.25 14C28.8358 14 28.5 14.3358 28.5 14.75V23C28.5 23.4142 28.8358 23.75 29.25 23.75C29.6642 23.75 30 23.4142 30 23V14.75C30 14.3358 29.6642 14 29.25 14Z" fill="white"/>
<path d="M23.25 26H27C27.4142 26 27.75 25.6642 27.75 25.25C27.75 24.8358 27.4142 24.5 27 24.5H23.25C22.8358 24.5 22.5 24.8358 22.5 25.25C22.5 25.6642 22.8358 26 23.25 26Z" fill="white"/>
<path d="M22.7196 18.7197C22.4268 19.0126 22.4268 19.4873 22.7196 19.7802L25.7196 22.7802C26.0139 23.0644 26.4817 23.0604 26.771 22.7711C27.0603 22.4818 27.0643 22.014 26.7801 21.7197L23.7801 18.7197C23.4872 18.4269 23.0125 18.4269 22.7196 18.7197Z" fill="white"/>
<path d="M18.9696 14.9697C18.6768 15.2626 18.6768 15.7373 18.9696 16.0302L20.4696 17.5302C20.7639 17.8144 21.2317 17.8104 21.521 17.5211C21.8103 17.2318 21.8143 16.764 21.5301 16.4697L20.0301 14.9697C19.7372 14.6769 19.2625 14.6769 18.9696 14.9697Z" fill="white"/>
<path d="M18.75 26H20.25C20.6642 26 21 25.6642 21 25.25C21 24.8358 20.6642 24.5 20.25 24.5H18.75C18.3358 24.5 18 24.8358 18 25.25C18 25.6642 18.3358 26 18.75 26Z" fill="white"/>
<path d="M33.75 34.25H32.25C31.8358 34.25 31.5 34.5858 31.5 35C31.5 35.4142 31.8358 35.75 32.25 35.75H33.75C34.1642 35.75 34.5 35.4142 34.5 35C34.5 34.5858 34.1642 34.25 33.75 34.25Z" fill="white"/>
<path d="M36 35C36 35.4142 36.3358 35.75 36.75 35.75H55.5C55.9142 35.75 56.25 35.4142 56.25 35C56.25 34.5858 55.9142 34.25 55.5 34.25H36.75C36.3358 34.25 36 34.5858 36 35Z" fill="white"/>
</g>
<defs>
<clipPath id="clip0_295_723">
<rect width="45" height="45" fill="white" transform="translate(18 14)"/>
</clipPath>
</defs>
</svg>
